<svg version="1.2" xmlns="http://www.w3.org/2000/svg" viewBox="0 0 1500 1000" width="1500" height="1000">
	<title>5712799</title>
	<defs>
		<clipPath clipPathUnits="userSpaceOnUse" id="cp1">
			<path d="m1500 1000h-1500v-1000h1500z"/>
		</clipPath>
	</defs>
	<style>
		.s0 { fill: #0e0624 } 
		.s1 { fill: #dbd6ff } 
		.s2 { fill: #ffffff } 
		.s3 { fill: #b297fe } 
		.s4 { fill: #d8caff } 
		.s5 { fill: #8573b3 } 
		.s6 { fill: #fff9f2 } 
		.s7 { fill: #ede8fc } 
		.s8 { fill: #1e0e49 } 
		.s9 { fill: #48299a } 
		.s10 { fill: #626899 } 
		.s11 { fill: #787ead } 
		.s12 { fill: #7078ba } 
		.s13 { fill: #434978 } 
		.s14 { fill: #4d548a } 
		.s15 { fill: #6e679c } 
		.s16 { fill: #867dbd } 
		.s17 { fill: #ffefeb } 
		.s18 { fill: #331977 } 
		.s19 { fill: #726ba1 } 
		.s20 { fill: #fae4dc } 
		.s21 { fill: #3d2b25 } 
		.s22 { fill: #e6c7b2 } 
		.s23 { fill: #000000 } 
		.s24 { fill: #050505 } 
		.s25 { fill: #f9f9ff } 
		.s26 { fill: #ab8569 } 
		.s27 { fill: #bd9e92 } 
		.s28 { fill: none;stroke: #fae4dc;stroke-miterlimit:10;stroke-width: 1 } 
		.s29 { mix-blend-mode: color-burn;fill: #d9d9d9 } 
		.s30 { fill: none;stroke: #3d2b25;stroke-miterlimit:10;stroke-width: 1 } 
		.s31 { fill: #3e1d12 } 
		.s32 { fill: #7c67b7 } 
	</style>
	<g id="BACKGROUND">
		<path id="&lt;Path&gt;" fill-rule="evenodd" class="s0" d="m1500 0v1000h-1500v-1000z"/>
	</g>
	<g id="OBJECTS">
		<g id="&lt;Clip Group&gt;" clip-path="url(#cp1)">
			<g id="&lt;Group&gt;">
				<path id="&lt;Path&gt;" fill-rule="evenodd" class="s1" d="m1500.4 476.2v546.5h-1557.6v-546.5z"/>
				<path id="&lt;Path&gt;" class="s2" d="m1041 351.3l5 132-847.3 16.6v-89.2c74.1-16.8 125.7-68 202.3-49 13.8 3.4 24.4 9.7 39.5 7.4 11-1.7 18.7-9.2 30.9-6.8 14.4 2.7 25.6 16.3 41.1 19.4 11.8 2.3 27.8 1.5 40.1 0.4 24.5-2.1 53.6-13.1 72.8-28.6 33.5-27.2 57.4-34.2 98.4-44.4 16.3-4 33.3-16.3 50.7-15.1 5.6 0.4 10.1 1.9 14.1 4 6.2 3.1 11.6 7.4 19.3 11 34.2 16 45.5-8.5 74.7-23.1 7.6-3.8 14.2-5.7 20.2-6.2 17.7-1.5 30.6 9.2 52.2 19.8 29 14.1 69.3 19.8 91 45.1q-1.4 4.1-5 6.7z"/>
				<path id="&lt;Path&gt;" class="s3" d="m28.7 506.7v-225c28.8-13.4 58-28.2 90-28.1 26.9 0.1 49.8 1.1 76.4-3.8 37.4-6.8 63.5 15.4 95.7 32.5 20.4 10.8 42.9 25.1 63.5 35.2 20.9 10.2 44.8 7.6 65.9 20.1 32.5 19.2 58.5 42.1 89.9 62.9 21.8 14.4 45.6 27.1 68.4 39.6 29.9 16.3 69.7 38.5 96.7 57.1-6.8 2.7-12.2 2.2-19.8 2.2z"/>
				<path id="&lt;Path&gt;" class="s4" d="m1522.8 4.5l-39.2 492.6h-695.3c23.1-9.5 34.7-29.7 57.8-39.5 16.5-7 35.6-9.1 51.1-18.8 23.8-14.9 49-34.9 67.5-56.1 43.6-50 99.5-85.1 148-129.7 18.6-17.1 30.3-34.2 52.2-50.1 17.9-12.9 34.9-15 56.6-20.3 10.3-2.5 29.4-4.5 38.5-11q1-0.8 1.9-1.5c7.5-7 6.5-17.2 15.5-25.9 11.3-10.9 19.4-7.1 30-20.1 5.8-7.2 7.2-18.1 14.3-23.8 14-11.1 34.7-2.1 48.9-14.9 15.7-14.3 16.9-39.3 39.6-49.9 14.9-7 21.2-3 34.8-14.6 17.4-14.8 19.8-21.6 44.4-20.8 10.9 0.3 21.3 1.3 31.7 4q0.9 0.2 1.7 0.4z"/>
				<path id="&lt;Path&gt;" class="s5" d="m1195.1 365.7c-1.8-1.6-3.3-3.7-4.1-6 0.8 0.3 1.6 0.6 2.4 0.4 0.8-0.2 1.1-0.9 2.1-0.7 0-0.3 0.2-0.6 0.2-0.9 0.3 0 0.6-0.2 1-0.2-2.4-2.3-5.4-4.2-7.1-7.2 0.9 0.3 1.7 0.5 2.7 0.4-0.1-0.2 0-0.5 0-0.7 0.3 0.1 0.9 0 1.2 0.1-0.6-2.3-2.9-4.3-4-6.4-1.6-3.2-3-6.9-3.7-10.4-0.7 3.5-2.2 7.2-3.8 10.4-1 2.1-3.4 4.1-3.9 6.4 0.3-0.1 0.8 0 1.1-0.1 0 0.2 0.1 0.5 0.1 0.7 0.9 0.1 1.8-0.1 2.7-0.4-1.8 3-4.7 4.9-7.1 7.2 0.3 0 0.6 0.2 1 0.2 0 0.3 0.2 0.6 0.2 0.9 1-0.2 1.2 0.5 2 0.7 0.9 0.2 1.7-0.1 2.5-0.4-0.8 2.3-2.4 4.4-4.1 6-1.4 1.3-3.6 3-3.6 5 1.5 0.5 1.7 1.1 3.4 0.9 1.2-0.2 3.6 0.6 4.5-0.1 0 0.2 0.3 0.5 0.3 0.9 0.8 0.1 3.9-0.1 4.9-0.7 0.9 0.7 3.7 0.8 4.5 0.7-0.1-0.4 0.3-0.7 0.3-0.9 0.9 0.7 3.3-0.1 4.5 0.1 1.6 0.2 1.9-0.4 3.3-0.9 0-2-2.1-3.7-3.5-5z"/>
				<path id="&lt;Path&gt;" class="s5" d="m1178.8 313.1c-1.7-1.6-3.3-3.7-4.1-6 0.8 0.3 1.6 0.5 2.5 0.4 0.8-0.2 1-0.9 2-0.8 0-0.3 0.2-0.5 0.2-0.8 0.4 0 0.7-0.2 1-0.2-2.4-2.3-5.3-4.2-7.1-7.2 0.9 0.2 1.8 0.5 2.7 0.4 0-0.2 0.1-0.5 0.1-0.7 0.3 0.1 0.8 0 1.1 0.1-0.5-2.3-2.9-4.3-3.9-6.4-1.6-3.2-3.1-6.9-3.8-10.4-0.7 3.5-2.1 7.2-3.7 10.4-1.1 2.1-3.4 4.1-4 6.4 0.3-0.1 0.9 0 1.2-0.1-0.1 0.2 0 0.5 0 0.7 1 0.1 1.8-0.2 2.7-0.4-1.7 3-4.7 4.9-7.1 7.2 0.4 0 0.7 0.2 1 0.2 0 0.3 0.2 0.5 0.2 0.8 1-0.1 1.3 0.6 2.1 0.8 0.8 0.1 1.6-0.1 2.4-0.4-0.8 2.3-2.3 4.4-4.1 6-1.4 1.3-3.5 3-3.5 5 1.4 0.4 1.7 1.1 3.3 0.9 1.2-0.2 3.6 0.5 4.5-0.1 0 0.2 0.4 0.5 0.3 0.9 0.8 0.1 3.9-0.1 4.9-0.7 1 0.6 3.7 0.8 4.5 0.7 0-0.4 0.3-0.7 0.3-0.9 0.9 0.6 3.3-0.1 4.5 0.1 1.7 0.2 1.9-0.5 3.4-0.9 0-2-2.2-3.7-3.6-5z"/>
				<path id="&lt;Path&gt;" class="s5" d="m1264.5 193.5c-1.8-1.7-3.4-3.7-4.2-6 0.9 0.3 1.7 0.5 2.5 0.3 0.8-0.2 1-0.8 2-0.7 0-0.3 0.2-0.5 0.2-0.9 0.4 0.1 0.7-0.1 1-0.2-2.3-2.3-5.3-4.2-7.1-7.1 1 0.2 1.8 0.4 2.7 0.3 0-0.2 0.1-0.5 0.1-0.7 0.3 0.1 0.8 0 1.2 0.1-0.6-2.2-2.9-4.2-4-6.3-1.6-3.3-3.1-6.9-3.8-10.5-0.7 3.6-2.1 7.2-3.7 10.5-1.1 2.1-3.4 4.1-4 6.3 0.4-0.1 0.9 0 1.2-0.1 0 0.2 0.1 0.5 0 0.7 1 0.1 1.8-0.1 2.7-0.3-1.7 2.9-4.7 4.8-7.1 7.1 0.4 0.1 0.7 0.3 1.1 0.2 0 0.4 0.2 0.6 0.2 0.9 1-0.1 1.2 0.5 2 0.7 0.8 0.2 1.6 0 2.5-0.3-0.8 2.3-2.4 4.3-4.2 6-1.3 1.3-3.5 2.9-3.5 5 1.4 0.4 1.7 1.1 3.4 0.8 1.1-0.1 3.6 0.6 4.4 0 0.1 0.2 0.4 0.5 0.4 0.9 0.7 0 3.8-0.1 4.9-0.7 0.9 0.6 3.7 0.7 4.4 0.7 0-0.4 0.3-0.7 0.4-0.9 0.8 0.6 3.3-0.1 4.4 0 1.7 0.3 2-0.4 3.4-0.8 0-2.1-2.2-3.7-3.5-5z"/>
				<path id="&lt;Path&gt;" class="s5" d="m1032.5 346.9c-1.8-1.7-3.4-3.7-4.2-6.1 0.9 0.4 1.7 0.6 2.5 0.4 0.8-0.2 1-0.8 2-0.7 0-0.3 0.2-0.6 0.2-0.9 0.4 0 0.7-0.2 1.1-0.2-2.4-2.3-5.4-4.2-7.1-7.2 0.9 0.3 1.7 0.5 2.7 0.4-0.1-0.2 0-0.5 0-0.7 0.3 0.1 0.8 0 1.2 0.1-0.6-2.2-2.9-4.2-4-6.4-1.6-3.2-3-6.9-3.7-10.4-0.7 3.5-2.2 7.2-3.8 10.4-1.1 2.2-3.4 4.2-4 6.4 0.4-0.1 0.9 0 1.2-0.1 0 0.2 0.1 0.5 0.1 0.7 0.9 0.1 1.7-0.1 2.7-0.4-1.8 3-4.8 4.9-7.1 7.2 0.3 0 0.6 0.2 1 0.2 0 0.3 0.2 0.6 0.2 0.9 1-0.1 1.2 0.5 2 0.7 0.8 0.2 1.6 0 2.5-0.4-0.8 2.4-2.4 4.4-4.2 6.1-1.3 1.3-3.5 2.9-3.5 5 1.4 0.4 1.7 1 3.4 0.8 1.1-0.2 3.6 0.6 4.4 0 0.1 0.2 0.4 0.5 0.4 0.8 0.7 0.1 3.9 0 4.9-0.7 0.9 0.7 3.7 0.8 4.4 0.7 0-0.3 0.3-0.6 0.4-0.8 0.8 0.6 3.3-0.2 4.4 0 1.7 0.2 2-0.4 3.4-0.8 0-2.1-2.2-3.7-3.5-5z"/>
				<path id="&lt;Path&gt;" class="s0" d="m538 432.5c-1-0.9-1.8-2-2.3-3.3 0.5 0.2 0.9 0.3 1.4 0.2 0.5-0.1 0.6-0.5 1.1-0.4 0-0.2 0.2-0.3 0.1-0.5 0.3 0 0.4-0.1 0.6-0.1-1.3-1.3-3-2.3-3.9-4 0.5 0.1 0.9 0.3 1.5 0.2 0-0.1 0-0.3 0-0.4 0.2 0.1 0.5 0 0.6 0.1-0.3-1.3-1.6-2.4-2.2-3.6-0.8-1.8-1.7-3.8-2-5.8-0.4 2-1.2 4-2.1 5.8-0.6 1.2-1.9 2.3-2.2 3.6 0.1-0.1 0.4 0 0.6-0.1 0 0.1 0.1 0.3 0 0.4 0.6 0.1 1-0.1 1.5-0.2-0.9 1.7-2.6 2.7-3.9 4 0.2 0 0.4 0.1 0.6 0.1 0 0.2 0.1 0.3 0.1 0.5 0.5-0.1 0.6 0.3 1.1 0.4 0.5 0.1 0.9 0 1.4-0.2-0.5 1.3-1.3 2.4-2.3 3.3-0.8 0.8-2 1.7-2 2.8 0.8 0.3 1 0.6 1.9 0.5 0.6-0.1 2 0.3 2.5 0 0 0.1 0.2 0.2 0.2 0.4 0.4 0.1 2.1 0 2.7-0.3 0.5 0.3 2 0.4 2.5 0.3-0.1-0.2 0.1-0.3 0.1-0.4 0.5 0.3 1.9-0.1 2.5 0 0.9 0.1 1.1-0.2 1.9-0.5 0-1.1-1.2-2-2-2.8z"/>
				<path id="&lt;Path&gt;" class="s0" d="m512.5 421.9c-1-0.9-1.8-2.1-2.3-3.4 0.5 0.2 0.9 0.3 1.4 0.2 0.4-0.1 0.6-0.4 1.1-0.4 0-0.1 0.1-0.3 0.1-0.4 0.2 0 0.4-0.2 0.6-0.2-1.3-1.2-3-2.3-4-4 0.5 0.2 1 0.3 1.5 0.3 0-0.2 0.1-0.3 0.1-0.4 0.1 0 0.4 0 0.6 0-0.3-1.2-1.6-2.3-2.2-3.5-0.9-1.8-1.7-3.9-2.1-5.8-0.4 1.9-1.2 4-2.1 5.8-0.6 1.2-1.8 2.3-2.2 3.5 0.2 0 0.5 0 0.7 0 0 0.1 0 0.2 0 0.4 0.6 0 1-0.1 1.5-0.3-1 1.7-2.6 2.8-3.9 4 0.2 0 0.3 0.2 0.5 0.2 0 0.1 0.1 0.3 0.1 0.4 0.6 0 0.7 0.3 1.2 0.4 0.4 0.1 0.9 0 1.4-0.2-0.5 1.3-1.4 2.5-2.4 3.4-0.7 0.7-1.9 1.6-1.9 2.8 0.8 0.2 0.9 0.6 1.9 0.4 0.6-0.1 2 0.4 2.4 0 0.1 0.1 0.2 0.3 0.2 0.5 0.5 0 2.2 0 2.7-0.4 0.6 0.4 2.1 0.4 2.5 0.4 0-0.2 0.2-0.4 0.2-0.5 0.5 0.4 1.9-0.1 2.5 0 0.9 0.2 1.1-0.2 1.9-0.4 0-1.2-1.2-2.1-2-2.8z"/>
				<path id="&lt;Path&gt;" class="s0" d="m605.2 459c-1-0.9-1.8-2.1-2.3-3.4 0.5 0.2 0.9 0.4 1.4 0.2 0.5-0.1 0.6-0.4 1.1-0.3 0-0.2 0.1-0.4 0.1-0.5 0.3 0 0.4-0.1 0.6-0.1-1.3-1.3-3-2.4-3.9-4 0.5 0.1 0.9 0.2 1.5 0.2-0.1-0.1 0-0.3 0-0.4 0.2 0 0.5 0 0.6 0-0.3-1.2-1.6-2.3-2.2-3.5-0.9-1.8-1.7-3.8-2.1-5.8-0.3 2-1.1 4-2 5.8-0.6 1.2-1.9 2.3-2.2 3.5 0.1 0 0.4 0 0.6 0 0 0.1 0.1 0.3 0 0.4 0.6 0 1-0.1 1.5-0.2-0.9 1.6-2.6 2.7-3.9 4 0.2 0 0.3 0.1 0.6 0.1 0 0.1 0.1 0.3 0.1 0.5 0.5-0.1 0.6 0.2 1.1 0.3 0.5 0.2 0.9 0 1.4-0.2-0.5 1.3-1.3 2.5-2.3 3.4-0.8 0.7-2 1.6-2 2.8 0.8 0.2 1 0.6 1.9 0.4 0.6 0 2 0.4 2.5 0 0 0.1 0.2 0.3 0.2 0.5 0.4 0 2.1 0 2.7-0.4 0.5 0.4 2 0.4 2.4 0.4 0-0.2 0.2-0.4 0.2-0.5 0.5 0.4 1.9 0 2.5 0 0.9 0.2 1.1-0.2 1.9-0.4 0-1.2-1.2-2.1-2-2.8z"/>
				<path id="&lt;Path&gt;" class="s0" d="m429.8 357c-1-1-1.9-2.1-2.3-3.4 0.4 0.2 0.9 0.3 1.3 0.2 0.5-0.1 0.6-0.5 1.2-0.4 0-0.2 0.1-0.3 0.1-0.5 0.2 0 0.4-0.1 0.5-0.1-1.3-1.3-2.9-2.3-3.9-4 0.5 0.2 0.9 0.3 1.5 0.2 0-0.1 0-0.3 0-0.4 0.2 0.1 0.5 0 0.7 0.1-0.4-1.3-1.6-2.4-2.2-3.6-0.9-1.7-1.7-3.8-2.1-5.8-0.4 2-1.2 4.1-2.1 5.8-0.6 1.2-1.9 2.3-2.2 3.6 0.2-0.1 0.5 0 0.6-0.1 0 0.1 0.1 0.3 0.1 0.4 0.5 0.1 1 0 1.5-0.2-1 1.7-2.7 2.7-4 4 0.2 0 0.4 0.1 0.6 0.1 0 0.2 0.1 0.3 0.1 0.5 0.5-0.1 0.7 0.3 1.1 0.4 0.5 0.1 0.9 0 1.4-0.2-0.5 1.3-1.3 2.4-2.3 3.4-0.8 0.7-2 1.6-2 2.7 0.8 0.3 1 0.6 1.9 0.5 0.7-0.1 2 0.3 2.5 0 0 0.1 0.2 0.2 0.2 0.5 0.4 0 2.1-0.1 2.7-0.4 0.5 0.3 2.1 0.4 2.5 0.4 0-0.3 0.1-0.4 0.2-0.5 0.4 0.3 1.8-0.1 2.4 0 1 0.1 1.1-0.2 1.9-0.5 0-1.1-1.2-2-1.9-2.7z"/>
				<path id="&lt;Path&gt;" class="s0" d="m631.1 493.4c-1-0.9-1.9-2.1-2.3-3.4 0.5 0.2 0.9 0.3 1.4 0.2 0.4-0.1 0.5-0.4 1.1-0.4 0-0.1 0.1-0.3 0.1-0.4 0.2 0 0.4-0.2 0.6-0.2-1.3-1.2-3-2.3-4-4 0.5 0.2 1 0.3 1.5 0.3 0-0.2 0.1-0.3 0.1-0.4 0.1 0 0.4 0 0.6 0-0.3-1.2-1.6-2.3-2.2-3.5-0.9-1.8-1.7-3.9-2.1-5.8-0.4 1.9-1.2 4-2.1 5.8-0.6 1.2-1.8 2.3-2.2 3.5 0.2 0 0.5 0 0.7 0 0 0.1 0 0.2 0 0.4 0.5 0 1-0.1 1.5-0.3-1 1.7-2.6 2.8-3.9 4 0.1 0 0.3 0.2 0.5 0.2 0 0.1 0.1 0.3 0.1 0.4 0.6 0 0.7 0.3 1.2 0.4 0.4 0.1 0.9 0 1.3-0.2-0.4 1.3-1.3 2.5-2.3 3.4-0.7 0.7-1.9 1.6-1.9 2.8 0.8 0.2 0.9 0.6 1.9 0.4 0.6-0.1 2 0.4 2.4 0 0 0.1 0.2 0.3 0.2 0.5 0.4 0 2.2 0 2.7-0.4 0.6 0.4 2.1 0.4 2.5 0.4 0-0.2 0.2-0.4 0.2-0.5 0.5 0.4 1.8-0.1 2.5 0 0.9 0.2 1.1-0.2 1.9-0.4 0-1.2-1.2-2.1-2-2.8z"/>
				<path id="&lt;Path&gt;" class="s0" d="m472.1 391c-1-0.9-1.9-2.1-2.3-3.4 0.4 0.2 0.9 0.3 1.3 0.2 0.5-0.1 0.6-0.4 1.2-0.4 0-0.1 0.1-0.3 0.1-0.4 0.2 0 0.4-0.1 0.6-0.2-1.4-1.2-3-2.3-4-3.9 0.5 0.1 1 0.2 1.5 0.2 0-0.2 0-0.3 0-0.4 0.2 0 0.5 0 0.7 0-0.3-1.2-1.6-2.3-2.2-3.5-0.9-1.8-1.7-3.8-2.1-5.8-0.4 2-1.2 4-2.1 5.8-0.6 1.2-1.9 2.3-2.2 3.5 0.2 0 0.5 0 0.7 0-0.1 0.1 0 0.2 0 0.4 0.5 0 1-0.1 1.5-0.2-1 1.6-2.6 2.7-4 3.9 0.2 0.1 0.4 0.2 0.6 0.2 0 0.1 0.1 0.3 0.1 0.4 0.6 0 0.7 0.3 1.1 0.4 0.5 0.1 1 0 1.4-0.2-0.4 1.3-1.3 2.5-2.3 3.4-0.7 0.7-1.9 1.6-2 2.8 0.9 0.2 1 0.6 1.9 0.4 0.7-0.1 2 0.4 2.5 0 0 0.1 0.2 0.3 0.2 0.5 0.4 0 2.2 0 2.7-0.4 0.5 0.4 2.1 0.4 2.5 0.4 0-0.2 0.2-0.4 0.2-0.5 0.5 0.4 1.8-0.1 2.5 0 0.9 0.2 1-0.2 1.8-0.4 0-1.2-1.2-2.1-1.9-2.8z"/>
				<path id="&lt;Path&gt;" class="s5" d="m486.6 384.6c-1-0.9-1.8-2.1-2.3-3.4 0.5 0.2 0.9 0.3 1.4 0.2 0.5-0.1 0.6-0.4 1.1-0.4 0-0.1 0.2-0.3 0.1-0.4 0.3 0 0.4-0.1 0.6-0.2-1.3-1.2-3-2.3-3.9-4 0.5 0.2 0.9 0.3 1.5 0.3 0-0.2 0-0.3 0-0.4 0.2 0 0.5 0 0.6 0-0.3-1.2-1.6-2.3-2.1-3.5-0.9-1.8-1.7-3.9-2.1-5.8-0.4 1.9-1.2 4-2.1 5.8-0.6 1.2-1.9 2.3-2.2 3.5 0.2 0 0.4 0 0.6 0 0 0.1 0.1 0.2 0 0.4 0.6 0 1-0.1 1.5-0.3-0.9 1.7-2.6 2.8-3.9 4 0.2 0.1 0.4 0.2 0.6 0.2 0 0.1 0.1 0.3 0.1 0.4 0.5 0 0.7 0.3 1.1 0.4 0.5 0.1 0.9 0 1.4-0.2-0.5 1.3-1.3 2.5-2.3 3.4-0.8 0.7-2 1.6-2 2.8 0.8 0.2 1 0.6 1.9 0.4 0.6-0.1 2 0.4 2.5 0 0 0.1 0.2 0.3 0.2 0.5 0.4 0 2.1 0 2.7-0.4 0.5 0.4 2 0.4 2.5 0.4 0-0.2 0.1-0.4 0.2-0.5 0.4 0.4 1.8-0.1 2.4 0 0.9 0.2 1.1-0.2 1.9-0.4 0-1.2-1.2-2.1-2-2.8z"/>
				<path id="&lt;Path&gt;" class="s0" d="m457.8 417.7c-1-0.9-1.9-2.1-2.3-3.4 0.4 0.2 0.9 0.3 1.3 0.2 0.5-0.1 0.6-0.4 1.2-0.4 0-0.1 0.1-0.3 0.1-0.4 0.2 0 0.4-0.1 0.6-0.2-1.4-1.2-3-2.3-4-4 0.5 0.2 1 0.3 1.5 0.3 0-0.2 0-0.3 0-0.4 0.2 0 0.5 0 0.7 0-0.3-1.2-1.6-2.3-2.2-3.5-0.9-1.8-1.7-3.9-2.1-5.8-0.4 1.9-1.2 4-2.1 5.8-0.6 1.2-1.9 2.3-2.2 3.5 0.2 0 0.5 0 0.7 0-0.1 0.1 0 0.2 0 0.4 0.5 0 1-0.1 1.5-0.3-1 1.7-2.6 2.8-4 4 0.2 0.1 0.4 0.2 0.6 0.2 0 0.1 0.1 0.3 0.1 0.4 0.6 0 0.7 0.3 1.1 0.4 0.5 0.1 1 0 1.4-0.2-0.4 1.3-1.3 2.5-2.3 3.4-0.7 0.7-1.9 1.6-2 2.8 0.9 0.2 1 0.6 1.9 0.4 0.7-0.1 2 0.4 2.5 0 0 0.1 0.2 0.3 0.2 0.5 0.4 0 2.2 0 2.7-0.4 0.5 0.4 2.1 0.4 2.5 0.4 0-0.2 0.2-0.4 0.2-0.5 0.5 0.4 1.8-0.1 2.5 0 0.9 0.2 1-0.2 1.8-0.4 0-1.2-1.2-2.1-1.9-2.8z"/>
				<path id="&lt;Path&gt;" class="s5" d="m1143.5 384.9c-1.7-1.7-3.3-3.7-4.1-6 0.8 0.3 1.6 0.5 2.5 0.3 0.8-0.2 1-0.8 2-0.7 0-0.3 0.2-0.5 0.2-0.8 0.4 0 0.7-0.2 1-0.2-2.4-2.4-5.3-4.3-7.1-7.2 0.9 0.2 1.7 0.5 2.7 0.3 0-0.2 0.1-0.5 0.1-0.7 0.3 0.1 0.8 0 1.1 0.1-0.6-2.2-2.9-4.2-3.9-6.3-1.6-3.2-3.1-6.9-3.8-10.5-0.7 3.6-2.1 7.3-3.7 10.5-1.1 2.1-3.4 4.1-4 6.3 0.3-0.1 0.8 0 1.2-0.1-0.1 0.2 0 0.5 0 0.7 1 0.2 1.8-0.1 2.7-0.3-1.7 2.9-4.7 4.8-7.1 7.2 0.3 0 0.7 0.2 1 0.2 0 0.3 0.2 0.5 0.2 0.8 1-0.1 1.2 0.5 2.1 0.7 0.8 0.2 1.6 0 2.4-0.3-0.8 2.3-2.3 4.3-4.1 6-1.4 1.3-3.5 3-3.5 5 1.4 0.4 1.7 1.1 3.3 0.9 1.2-0.2 3.6 0.5 4.5-0.1 0 0.2 0.3 0.5 0.3 0.9 0.8 0 3.9-0.1 4.9-0.7 1 0.6 3.7 0.7 4.5 0.7 0-0.4 0.3-0.7 0.3-0.9 0.9 0.6 3.3-0.1 4.5 0.1 1.6 0.2 1.9-0.5 3.4-0.9 0-2-2.2-3.7-3.6-5z"/>
				<path id="&lt;Path&gt;" class="s5" d="m1130.7 267.4c-1.8-1.6-3.4-3.7-4.2-6 0.9 0.3 1.7 0.5 2.5 0.3 0.8-0.1 1-0.8 2-0.7 0-0.3 0.2-0.5 0.2-0.8 0.4 0 0.7-0.2 1.1-0.2-2.4-2.3-5.4-4.3-7.1-7.2 0.9 0.2 1.7 0.5 2.7 0.4-0.1-0.3 0-0.5 0-0.8 0.3 0.2 0.8 0.1 1.2 0.2-0.6-2.3-2.9-4.3-4-6.4-1.6-3.2-3-6.9-3.7-10.4-0.8 3.5-2.2 7.2-3.8 10.4-1.1 2.1-3.4 4.1-4 6.4 0.4-0.1 0.9 0 1.2-0.2 0 0.3 0.1 0.5 0 0.8 1 0.1 1.8-0.2 2.7-0.4-1.7 2.9-4.7 4.9-7 7.2 0.3 0 0.6 0.2 1 0.2 0 0.3 0.2 0.5 0.2 0.8 1-0.1 1.2 0.6 2 0.7 0.8 0.2 1.6 0 2.5-0.3-0.8 2.3-2.4 4.4-4.2 6-1.3 1.3-3.5 3-3.5 5 1.4 0.4 1.7 1.1 3.4 0.9 1.1-0.2 3.6 0.5 4.4-0.1 0.1 0.2 0.4 0.5 0.4 0.9 0.7 0 3.9-0.1 4.9-0.7 0.9 0.6 3.7 0.8 4.4 0.7 0-0.4 0.3-0.7 0.4-0.9 0.8 0.6 3.3-0.1 4.4 0.1 1.7 0.2 2-0.5 3.4-0.9 0-2-2.2-3.7-3.5-5z"/>
				<path id="&lt;Path&gt;" class="s5" d="m1103.1 286.6c-1.8-1.7-3.3-3.7-4.1-6 0.8 0.3 1.6 0.5 2.4 0.3 0.9-0.2 1.1-0.8 2.1-0.7 0-0.3 0.2-0.5 0.2-0.8 0.3 0 0.7-0.2 1-0.3-2.4-2.3-5.4-4.2-7.1-7.1 0.9 0.2 1.7 0.5 2.7 0.3 0-0.2 0.1-0.5 0-0.7 0.4 0.1 0.9 0 1.2 0.1-0.6-2.2-2.9-4.2-3.9-6.3-1.7-3.3-3.1-6.9-3.8-10.5-0.7 3.6-2.2 7.2-3.8 10.5-1 2.1-3.3 4.1-3.9 6.3 0.3-0.1 0.8 0 1.2-0.1-0.1 0.2 0 0.5 0 0.7 1 0.2 1.8-0.1 2.7-0.3-1.8 2.9-4.7 4.8-7.1 7.1 0.3 0.1 0.6 0.3 1 0.3 0 0.3 0.2 0.5 0.2 0.8 1-0.1 1.2 0.5 2 0.7 0.9 0.2 1.7 0 2.5-0.3-0.8 2.3-2.3 4.3-4.1 6-1.4 1.3-3.6 2.9-3.6 5 1.5 0.4 1.8 1.1 3.4 0.8 1.2-0.1 3.6 0.6 4.5 0 0 0.2 0.3 0.5 0.3 0.9 0.8 0 3.9-0.1 4.9-0.7 0.9 0.6 3.7 0.7 4.5 0.7 0-0.4 0.3-0.7 0.3-0.9 0.9 0.6 3.3-0.1 4.5 0 1.6 0.3 1.9-0.4 3.4-0.8-0.1-2.1-2.2-3.7-3.6-5z"/>
				<path id="&lt;Path&gt;" class="s2" d="m1535.1 4.1c-7.5 16.6-14 34.1-23.9 49-11.6 17.6-26 24-42.9 35-19.7 12.9-30.8 15.7-41.7 38.7-9.8 20.8-21.2 49.3-38.9 64.3-17.9 15.2-36.9 29.1-54.9 44.6-23.1 19.9-33.7 45.3-51.9 68.6-13.4 17.1-36.4 24-54.5 35.8-11.9 7.8-20.9 19.9-32.5 27.1-2.8-11.9 9-21.1 14.7-30.4 8.9-14.6 17.4-36.9 18.9-53.8 1.7-19.4 0.2-27 14.3-41.1 8.9-8.8 24.4-19.6 29.5-30.8 2.7-5.8 3.8-21.5 4.6-41 7.5-7 6.5-17.2 15.5-25.9 11.3-10.9 19.4-7.1 30-20.1 5.8-7.2 7.2-18.1 14.3-23.8 14-11.1 34.7-2.1 48.9-14.9 15.7-14.3 16.9-39.3 39.6-49.9 14.9-7 21.2-3 34.8-14.6 17.4-14.8 19.8-21.6 44.4-20.8 10.9 0.3 21.3 1.3 31.7 4z"/>
				<path id="&lt;Path&gt;" class="s4" d="m892.8 284.7c-6.8 12.7-8.6 34.2-15.6 43.9-15 21-34.3 47.3-55.9 61.6-36.4 24-59.4 60-95.7 84.5 4.4-13.7 16-24.7 21.2-38.4 5.4-14.3 10.3-34.4 13.1-49.4 4-21.9-5.3-40.3 6-61.7 4-7.5 8.2-14.9 12.7-22.2 6.2 3.1 11.6 7.4 19.3 11 34.2 16 45.5-8.5 74.7-23.1 7.6-3.8 14.2-5.7 20.2-6.2z"/>
				<path id="&lt;Path&gt;" class="s6" d="m446.5 32.8c0 1.2-1 2.2-2.2 2.2-1.2 0-2.2-1-2.2-2.2 0-1.2 1-2.2 2.2-2.2 1.2 0 2.2 1 2.2 2.2z"/>
				<path id="&lt;Path&gt;" class="s6" d="m528.8 189.6c0 1.7-1.4 3.1-3.1 3.1-1.7 0-3.1-1.4-3.1-3.1 0-1.8 1.4-3.2 3.1-3.2 1.7 0 3.1 1.4 3.1 3.2z"/>
				<path id="&lt;Path&gt;" class="s6" d="m483.3 237.6c0 1.1-0.8 1.9-1.8 1.9-1.1 0-1.9-0.8-1.9-1.9 0-1 0.8-1.8 1.9-1.8 1 0 1.8 0.8 1.8 1.8z"/>
				<path id="&lt;Path&gt;" class="s6" d="m259.7 189.6c0 1.7-1.4 3.1-3.2 3.1-1.7 0-3.1-1.4-3.1-3.1 0-1.8 1.4-3.2 3.1-3.2 1.8 0 3.2 1.4 3.2 3.2z"/>
				<path id="&lt;Path&gt;" class="s6" d="m542.7 336.9c0 1.3-1.1 2.4-2.5 2.4-1.4 0-2.5-1.1-2.5-2.4 0-1.4 1.1-2.5 2.5-2.5 1.4 0 2.5 1.1 2.5 2.5z"/>
				<path id="&lt;Path&gt;" class="s6" d="m1073.2 47.4c0 0.2-0.2 0.4-0.5 0.4-0.2 0-0.4-0.2-0.4-0.4 0-0.3 0.2-0.5 0.4-0.5 0.3 0 0.5 0.2 0.5 0.5z"/>
				<path id="&lt;Path&gt;" class="s6" d="m1055.9 69.4c0 1-0.8 1.9-1.8 1.9-1.1 0-1.9-0.9-1.9-1.9 0-1 0.8-1.8 1.9-1.8 1 0 1.8 0.8 1.8 1.8z"/>
				<path id="&lt;Path&gt;" class="s6" d="m1160.4 168.3c0 1.1-0.8 1.9-1.9 1.9-1 0-1.8-0.8-1.8-1.9 0-1 0.8-1.9 1.8-1.9 1.1 0 1.9 0.9 1.9 1.9z"/>
				<path id="&lt;Path&gt;" class="s6" d="m1124.5 191.1c0-0.8-0.7-1.5-1.6-1.5-0.8 0-1.5 0.7-1.5 1.5 0 0.9 0.7 1.6 1.5 1.6 0.9 0 1.6-0.7 1.6-1.6z"/>
				<path id="&lt;Path&gt;" class="s6" d="m1336 43.4c0 1.9-1.6 3.5-3.6 3.5-2 0-3.6-1.6-3.6-3.5 0-2 1.6-3.6 3.6-3.6 2 0 3.6 1.6 3.6 3.6z"/>
				<path id="&lt;Path&gt;" class="s6" d="m1302 88.1c0-1-0.8-1.8-1.8-1.8-0.9 0-1.7 0.8-1.7 1.8 0 0.9 0.8 1.7 1.7 1.7 1 0 1.8-0.8 1.8-1.7z"/>
				<path id="&lt;Path&gt;" class="s6" d="m311.2 31.7c0 0.6-0.5 1.1-1.1 1.1-0.6 0-1.1-0.5-1.1-1.1 0-0.6 0.5-1.1 1.1-1.1 0.6 0 1.1 0.5 1.1 1.1z"/>
				<path id="&lt;Path&gt;" class="s6" d="m93.9 27.6c0 1.7-1.4 3-3 3-1.7 0-3-1.3-3-3 0-1.6 1.3-3 3-3 1.6 0 3 1.4 3 3z"/>
				<path id="&lt;Path&gt;" class="s6" d="m87.9 52.8c0 2.8-2.3 5-5 5-2.8 0-5-2.2-5-5 0-2.7 2.2-5 5-5 2.7 0 5 2.3 5 5z"/>
				<path id="&lt;Path&gt;" class="s6" d="m44.5 44c0 1.6-1.3 2.9-3 2.9-1.6 0-2.9-1.3-2.9-2.9 0-1.6 1.3-3 2.9-3 1.7 0 3 1.4 3 3z"/>
				<g id="&lt;Group&gt;">
					<g id="&lt;Group&gt;">
						<path id="&lt;Path&gt;" class="s7" d="m1544.9 600.1h-898.3c13.7-12.5 28.7-15 45.6-19.8 30.2-8.8 67.2-19.7 95.8-34.7 15.4-8.2 26.1-16.7 44.1-19.4 17.9-2.6 34.7-0.9 51.5-0.6 34.4 0.7 56-22 89.2-24.4 28.8-2.1 52.5-14.2 79.9-22.9 25.3-8 52.8-7.6 77.3-16.3 22.1-7.9 39.3-19.4 62.8-24.4 18.7-3.9 39.9-8.6 57.5-16.1 20-8.5 38.4-23.9 60.3-27.8 9.2-1.6 18.3-1.3 27.5-1.5 9.4-0.2 18.8-1 28.1-4.8 54.6-22.6 115.2-62.1 175.6-61z"/>
						<path id="&lt;Path&gt;" class="s3" d="m1264.4 598.1c2-8.9 4.1-18.8-10.6-17.2 15.7-22.9 45-22.3 52.7-52.4 9.2-35.5 41.3-47.1 60-75.2-12.5-4.4-33 2.7-45.4 6.2-16 4.5-32.8 17.1-50.1 16.3 9.4-12.9 23.4-27.2 34.6-39.4 12-13.2 23.7-30.8 36.5-46.2 9.4-0.2 18.8-1 28.1-4.8 54.6-22.6 115.2-62.1 175.6-61l3.1 273.7z"/>
					</g>
					<g id="&lt;Group&gt;">
						<path id="&lt;Path&gt;" class="s0" d="m715.1 590.2c-3.2-3-5.9-6.7-7.4-10.9 1.5 0.7 2.9 1 4.4 0.7 1.5-0.3 1.9-1.5 3.7-1.3 0-0.5 0.3-1 0.3-1.5 0.7 0 1.3-0.4 1.9-0.4-4.3-4.1-9.6-7.6-12.8-12.9 1.7 0.5 3.1 0.9 4.9 0.7-0.1-0.4 0.1-0.9 0-1.3 0.6 0.2 1.6 0 2.1 0.2-1-4-5.1-7.6-7-11.4-2.9-5.8-5.5-12.4-6.8-18.7-1.2 6.3-3.8 12.9-6.7 18.7-1.9 3.8-6.1 7.4-7.1 11.4 0.6-0.2 1.5 0 2.1-0.2-0.1 0.4 0.1 0.9 0.1 1.3 1.7 0.2 3.2-0.2 4.8-0.7-3.1 5.3-8.5 8.8-12.7 12.9 0.6 0 1.1 0.4 1.8 0.4 0 0.5 0.4 1 0.4 1.5 1.7-0.2 2.1 1 3.6 1.3 1.5 0.3 2.9 0 4.4-0.7-1.4 4.2-4.2 7.9-7.4 10.9-2.4 2.3-6.3 5.2-6.3 8.9 2.6 0.8 3.1 2 6 1.5 2.1-0.3 6.5 1.1 8 0 0.1 0.3 0.7 0.9 0.6 1.5 1.4 0.1 7-0.1 8.8-1.2 1.7 1.1 6.6 1.3 8 1.2 0-0.6 0.6-1.2 0.6-1.5 1.6 1.1 5.9-0.3 8 0 3 0.5 3.5-0.7 6.1-1.5-0.1-3.7-3.9-6.6-6.4-8.9z"/>
						<path id="&lt;Path&gt;" class="s8" d="m750.7 569c-2.5-2.3-4.6-5.2-5.7-8.4 1.1 0.5 2.2 0.8 3.4 0.5 1.1-0.3 1.4-1.1 2.8-1 0-0.4 0.3-0.7 0.3-1.2 0.5 0.1 0.9-0.2 1.4-0.3-3.3-3.2-7.4-5.8-9.8-9.9 1.2 0.4 2.4 0.7 3.7 0.5 0-0.3 0.1-0.7 0.1-1 0.4 0.2 1.1 0.1 1.6 0.2-0.8-3.1-4-5.9-5.5-8.8-2.2-4.5-4.2-9.6-5.2-14.4-1 4.8-3 9.9-5.2 14.4-1.5 2.9-4.7 5.7-5.4 8.8 0.4-0.1 1.1 0 1.6-0.2-0.1 0.3 0.1 0.7 0 1 1.4 0.2 2.5-0.1 3.8-0.5-2.5 4.1-6.6 6.7-9.9 9.9 0.5 0.1 0.9 0.4 1.5 0.3-0.1 0.5 0.2 0.8 0.2 1.2 1.4-0.1 1.7 0.7 2.8 1 1.2 0.3 2.3 0 3.5-0.5-1.2 3.2-3.3 6.1-5.8 8.4-1.9 1.7-4.9 4-4.9 6.9 2 0.6 2.4 1.5 4.7 1.1 1.6-0.2 5 0.8 6.2 0 0 0.3 0.5 0.7 0.5 1.2 1 0.1 5.3-0.1 6.7-1 1.3 0.9 5.1 1.1 6.2 1 0-0.5 0.4-0.9 0.5-1.2 1.1 0.8 4.5-0.2 6.1 0 2.3 0.4 2.7-0.5 4.7-1.1 0-2.9-3-5.2-4.9-6.9z"/>
						<path id="&lt;Path&gt;" class="s9" d="m780.7 560c-2.5-2.4-4.6-5.2-5.7-8.4 1.1 0.5 2.2 0.8 3.4 0.5 1.1-0.3 1.4-1.1 2.8-1 0-0.4 0.3-0.7 0.2-1.2 0.6 0.1 1-0.2 1.5-0.3-3.3-3.2-7.4-5.8-9.9-9.9 1.3 0.4 2.4 0.7 3.8 0.5-0.1-0.3 0.1-0.7 0-1 0.5 0.2 1.2 0.1 1.7 0.2-0.8-3.1-4-5.9-5.5-8.8-2.2-4.5-4.2-9.6-5.2-14.4-1 4.8-3 9.9-5.2 14.4-1.5 2.9-4.7 5.7-5.5 8.8 0.5-0.1 1.2 0 1.7-0.2-0.1 0.3 0 0.7 0 1 1.3 0.2 2.5-0.1 3.7-0.5-2.4 4.1-6.5 6.7-9.8 9.9 0.5 0.1 0.9 0.4 1.4 0.3 0 0.5 0.3 0.8 0.3 1.2 1.4-0.1 1.7 0.7 2.8 1 1.2 0.3 2.3 0 3.4-0.5-1.1 3.2-3.2 6-5.7 8.4-1.9 1.7-4.9 4-4.9 6.9 2 0.6 2.4 1.5 4.7 1.1 1.6-0.2 5 0.8 6.1 0 0.1 0.3 0.5 0.7 0.5 1.2 1.1 0.1 5.4-0.1 6.8-1 1.3 0.9 5.1 1.1 6.2 1-0.1-0.5 0.4-0.9 0.4-1.2 1.2 0.8 4.6-0.2 6.2 0 2.3 0.4 2.7-0.5 4.7-1.1 0-2.9-3-5.2-4.9-6.9z"/>
						<path id="&lt;Path&gt;" class="s9" d="m828.4 542.5c-2.5-2.4-4.6-5.2-5.8-8.4 1.2 0.5 2.3 0.8 3.5 0.5 1.1-0.3 1.4-1.2 2.8-1 0-0.4 0.3-0.8 0.2-1.2 0.6 0 1-0.3 1.5-0.3-3.3-3.2-7.4-5.8-9.9-9.9 1.3 0.3 2.4 0.7 3.8 0.5-0.1-0.3 0.1-0.7 0-1 0.5 0.2 1.2 0 1.7 0.2-0.8-3.1-4-5.9-5.5-8.8-2.2-4.5-4.2-9.6-5.2-14.5-1 4.9-3 10-5.2 14.5-1.5 2.9-4.7 5.7-5.5 8.8 0.5-0.2 1.2 0 1.6-0.2 0 0.3 0.1 0.7 0.1 1 1.3 0.2 2.5-0.2 3.7-0.5-2.4 4.1-6.5 6.7-9.8 9.9 0.5 0 0.9 0.3 1.4 0.3 0 0.4 0.3 0.8 0.3 1.2 1.4-0.2 1.7 0.7 2.8 1 1.2 0.3 2.3 0 3.4-0.5-1.1 3.2-3.2 6-5.7 8.4-1.9 1.7-4.9 4-4.9 6.8 2 0.6 2.4 1.5 4.7 1.2 1.6-0.2 5 0.8 6.1 0 0.1 0.2 0.5 0.6 0.5 1.2 1.1 0 5.4-0.1 6.8-1 1.3 0.9 5.1 1 6.1 1 0-0.6 0.5-1 0.5-1.2 1.2 0.8 4.6-0.2 6.2 0 2.3 0.3 2.7-0.6 4.7-1.2 0-2.8-3-5.1-4.9-6.8z"/>
						<path id="&lt;Path&gt;" class="s9" d="m864 542.5c-2.5-2.4-4.6-5.2-5.8-8.4 1.2 0.5 2.3 0.8 3.5 0.5 1.1-0.3 1.4-1.2 2.8-1 0-0.4 0.2-0.8 0.2-1.2 0.6 0 1-0.3 1.4-0.3-3.2-3.2-7.3-5.8-9.8-9.9 1.3 0.3 2.4 0.7 3.8 0.5-0.1-0.3 0.1-0.7 0-1 0.5 0.2 1.2 0 1.6 0.2-0.8-3.1-4-5.9-5.4-8.8-2.3-4.5-4.3-9.6-5.2-14.5-1 4.9-3 10-5.2 14.5-1.5 2.9-4.7 5.7-5.5 8.8 0.5-0.2 1.2 0 1.6-0.2 0 0.3 0.1 0.7 0.1 1 1.3 0.2 2.5-0.2 3.7-0.5-2.4 4.1-6.5 6.7-9.8 9.9 0.5 0 0.9 0.3 1.4 0.3 0 0.4 0.3 0.8 0.3 1.2 1.4-0.2 1.7 0.7 2.8 1 1.1 0.3 2.3 0 3.4-0.5-1.1 3.2-3.3 6-5.7 8.4-1.9 1.7-4.9 4-4.9 6.8 2 0.6 2.4 1.5 4.7 1.2 1.6-0.2 4.9 0.8 6.1 0 0.1 0.2 0.5 0.6 0.5 1.2 1.1 0 5.4-0.1 6.8-1 1.3 0.9 5.1 1 6.1 1 0-0.6 0.5-1 0.5-1.2 1.2 0.8 4.6-0.2 6.2 0 2.3 0.3 2.6-0.6 4.7-1.2-0.1-2.8-3-5.1-4.9-6.8z"/>
						<path id="&lt;Path&gt;" class="s9" d="m899.1 542.5c-2.4-2.4-4.6-5.2-5.7-8.4 1.2 0.5 2.3 0.8 3.4 0.5 1.2-0.3 1.5-1.2 2.8-1 0-0.4 0.3-0.8 0.3-1.2 0.5 0 1-0.3 1.4-0.3-3.3-3.2-7.4-5.8-9.8-9.9 1.3 0.3 2.4 0.7 3.7 0.5 0-0.3 0.1-0.7 0.1-1 0.4 0.2 1.2 0 1.6 0.2-0.8-3.1-4-5.9-5.4-8.8-2.3-4.5-4.3-9.6-5.3-14.5-0.9 4.9-2.9 10-5.2 14.5-1.4 2.9-4.6 5.7-5.4 8.8 0.4-0.2 1.1 0 1.6-0.2 0 0.3 0.1 0.7 0.1 1 1.3 0.2 2.4-0.2 3.7-0.5-2.4 4.1-6.5 6.7-9.8 9.9 0.4 0 0.9 0.3 1.4 0.3 0 0.4 0.3 0.8 0.3 1.2 1.3-0.2 1.6 0.7 2.8 1 1.1 0.3 2.2 0 3.4-0.5-1.1 3.2-3.3 6-5.8 8.4-1.8 1.7-4.8 4-4.8 6.8 2 0.6 2.4 1.5 4.6 1.2 1.6-0.2 5 0.8 6.2 0 0 0.2 0.5 0.6 0.5 1.2 1 0 5.3-0.1 6.7-1 1.3 0.9 5.2 1 6.2 1 0-0.6 0.5-1 0.5-1.2 1.2 0.8 4.5-0.2 6.1 0 2.3 0.3 2.7-0.6 4.7-1.2 0-2.8-3-5.1-4.9-6.8z"/>
						<path id="&lt;Path&gt;" class="s9" d="m919.6 519c-1.6-1.5-3-3.4-3.8-5.5 0.8 0.3 1.5 0.5 2.3 0.3 0.8-0.2 1-0.8 1.9-0.7 0-0.2 0.2-0.5 0.1-0.8 0.4 0.1 0.7-0.1 1-0.1-2.2-2.2-4.9-3.9-6.5-6.7 0.8 0.3 1.6 0.5 2.4 0.4 0-0.2 0.1-0.5 0.1-0.7 0.3 0.1 0.8 0 1.1 0.1-0.6-2-2.7-3.9-3.7-5.8-1.5-3-2.8-6.4-3.4-9.6-0.7 3.2-2 6.6-3.5 9.6-1 1.9-3.1 3.8-3.6 5.8 0.3-0.1 0.8 0 1.1-0.1-0.1 0.2 0 0.5 0 0.7 0.9 0.1 1.6-0.1 2.5-0.4-1.6 2.8-4.4 4.5-6.6 6.7 0.3 0 0.6 0.2 1 0.1 0 0.3 0.2 0.6 0.2 0.8 0.9-0.1 1.1 0.5 1.8 0.7 0.8 0.2 1.5 0 2.3-0.3-0.7 2.1-2.2 4-3.8 5.5-1.3 1.2-3.3 2.7-3.3 4.6 1.4 0.4 1.6 1 3.2 0.8 1-0.2 3.3 0.5 4 0 0.1 0.1 0.4 0.4 0.4 0.7 0.7 0.1 3.5 0 4.5-0.6 0.8 0.6 3.4 0.7 4.1 0.6 0-0.3 0.3-0.6 0.3-0.7 0.8 0.5 3-0.2 4.1 0 1.5 0.2 1.8-0.4 3.1-0.8 0-1.9-2-3.4-3.3-4.6z"/>
						<path id="&lt;Path&gt;" class="s9" d="m960.5 510.1c-1.7-1.5-3.1-3.4-3.8-5.5 0.7 0.3 1.5 0.5 2.3 0.3 0.7-0.2 0.9-0.8 1.8-0.6 0-0.3 0.2-0.6 0.2-0.8 0.3 0 0.6-0.2 0.9-0.2-2.1-2.2-4.9-3.9-6.5-6.6 0.8 0.2 1.6 0.4 2.5 0.3 0-0.2 0.1-0.5 0-0.6 0.3 0.1 0.8 0 1.1 0-0.5-2-2.6-3.9-3.6-5.8-1.5-3-2.8-6.3-3.5-9.6-0.6 3.3-2 6.6-3.4 9.6-1 1.9-3.1 3.8-3.7 5.8 0.3 0 0.8 0.1 1.1 0 0 0.1 0.1 0.4 0 0.6 0.9 0.1 1.7-0.1 2.5-0.3-1.6 2.7-4.3 4.4-6.5 6.6 0.3 0 0.6 0.2 0.9 0.2 0 0.2 0.2 0.5 0.2 0.8 0.9-0.2 1.1 0.4 1.9 0.6 0.7 0.2 1.5 0 2.3-0.3-0.8 2.1-2.2 4-3.9 5.5-1.2 1.2-3.2 2.7-3.2 4.6 1.3 0.4 1.6 1 3.1 0.8 1.1-0.1 3.3 0.5 4.1 0 0 0.2 0.3 0.4 0.3 0.8 0.7 0 3.6-0.1 4.5-0.7 0.9 0.6 3.4 0.7 4.1 0.7 0-0.4 0.3-0.6 0.3-0.8 0.8 0.5 3.1-0.1 4.1 0 1.6 0.2 1.8-0.4 3.1-0.8 0-1.9-2-3.4-3.2-4.6z"/>
						<path id="&lt;Path&gt;" class="s9" d="m1001.5 492.5c-1.7-1.5-3.1-3.4-3.9-5.6 0.8 0.4 1.5 0.6 2.3 0.4 0.8-0.2 1-0.8 1.9-0.7 0-0.3 0.2-0.5 0.2-0.8 0.3 0 0.6-0.2 0.9-0.2-2.2-2.1-4.9-3.8-6.5-6.6 0.8 0.3 1.6 0.5 2.5 0.4-0.1-0.2 0-0.5 0-0.7 0.3 0.1 0.8 0 1.1 0.1-0.6-2-2.7-3.9-3.7-5.8-1.4-3-2.8-6.4-3.4-9.6-0.7 3.2-2 6.6-3.5 9.6-1 1.9-3.1 3.8-3.6 5.8 0.3-0.1 0.8 0 1.1-0.1-0.1 0.2 0 0.5 0 0.7 0.9 0.1 1.6-0.1 2.5-0.4-1.6 2.8-4.4 4.5-6.5 6.6 0.3 0 0.5 0.2 0.9 0.2 0 0.3 0.2 0.5 0.2 0.8 0.9-0.1 1.1 0.5 1.8 0.7 0.8 0.2 1.5 0 2.3-0.4-0.7 2.2-2.2 4.1-3.8 5.6-1.3 1.2-3.2 2.7-3.3 4.6 1.4 0.4 1.6 1 3.2 0.8 1-0.2 3.3 0.5 4.1-0.1 0 0.2 0.3 0.5 0.3 0.8 0.7 0.1 3.5 0 4.5-0.6 0.8 0.6 3.4 0.7 4.1 0.6 0-0.3 0.3-0.6 0.3-0.8 0.8 0.6 3-0.1 4.1 0.1 1.5 0.2 1.8-0.4 3.1-0.8 0-1.9-2-3.4-3.2-4.6z"/>
						<path id="&lt;Path&gt;" class="s9" d="m1031.7 486.8c-1.6-1.6-3-3.4-3.8-5.6 0.8 0.3 1.5 0.5 2.3 0.4 0.7-0.2 0.9-0.8 1.9-0.7 0-0.3 0.1-0.5 0.1-0.8 0.4 0 0.7-0.2 1-0.2-2.2-2.1-4.9-3.9-6.6-6.6 0.9 0.2 1.6 0.5 2.5 0.4 0-0.2 0.1-0.5 0.1-0.7 0.3 0.1 0.7 0 1 0.1-0.5-2-2.6-3.9-3.6-5.9-1.5-2.9-2.8-6.3-3.4-9.6-0.7 3.3-2 6.7-3.5 9.6-1 2-3.1 3.9-3.6 5.9 0.3-0.1 0.7 0 1-0.1 0 0.2 0.1 0.5 0.1 0.7 0.9 0.1 1.6-0.2 2.5-0.4-1.7 2.7-4.4 4.5-6.6 6.6 0.3 0 0.6 0.2 1 0.2 0 0.3 0.2 0.5 0.2 0.8 0.9-0.1 1.1 0.5 1.8 0.7 0.8 0.1 1.5-0.1 2.3-0.4-0.8 2.2-2.2 4-3.8 5.6-1.3 1.2-3.3 2.7-3.3 4.6 1.4 0.4 1.6 1 3.1 0.7 1.1-0.1 3.3 0.6 4.1 0 0.1 0.2 0.4 0.5 0.4 0.8 0.7 0.1 3.5 0 4.5-0.6 0.8 0.6 3.4 0.7 4.1 0.6-0.1-0.3 0.2-0.6 0.3-0.8 0.8 0.6 3-0.1 4.1 0 1.5 0.3 1.7-0.3 3.1-0.7 0-1.9-2-3.4-3.3-4.6z"/>
						<path id="&lt;Path&gt;" class="s9" d="m1043.6 514.3c-1.7-1.6-3.1-3.4-3.9-5.6 0.8 0.3 1.6 0.5 2.3 0.3 0.8-0.1 1-0.7 1.9-0.6 0-0.3 0.2-0.5 0.2-0.8 0.3 0 0.6-0.2 0.9-0.2-2.2-2.1-4.9-3.9-6.5-6.6 0.8 0.2 1.6 0.5 2.5 0.3-0.1-0.1 0-0.4 0-0.6 0.3 0.1 0.8 0 1.1 0.1-0.6-2.1-2.7-3.9-3.7-5.9-1.4-2.9-2.8-6.3-3.4-9.6-0.7 3.3-2 6.7-3.5 9.6-1 2-3.1 3.8-3.6 5.9 0.3-0.1 0.8 0 1.1-0.1-0.1 0.2 0 0.5 0 0.6 0.9 0.2 1.7-0.1 2.5-0.3-1.6 2.7-4.4 4.5-6.5 6.6 0.3 0 0.6 0.2 0.9 0.2 0 0.3 0.2 0.5 0.2 0.8 0.9-0.1 1.1 0.5 1.8 0.6 0.8 0.2 1.6 0 2.3-0.3-0.7 2.2-2.1 4-3.8 5.6-1.2 1.2-3.2 2.7-3.2 4.6 1.3 0.4 1.5 1 3.1 0.7 1-0.1 3.3 0.6 4.1 0 0 0.2 0.3 0.5 0.3 0.8 0.7 0.1 3.6 0 4.5-0.6 0.8 0.6 3.4 0.7 4.1 0.6 0-0.3 0.3-0.6 0.3-0.8 0.8 0.6 3-0.1 4.1 0 1.5 0.3 1.8-0.3 3.1-0.7 0-1.9-2-3.4-3.2-4.6z"/>
						<path id="&lt;Path&gt;" class="s0" d="m989.6 524.1c-1.6-1.5-3-3.4-3.8-5.5 0.8 0.3 1.5 0.5 2.3 0.3 0.7-0.2 0.9-0.8 1.8-0.6 0-0.3 0.2-0.6 0.2-0.8 0.4 0 0.7-0.2 1-0.2-2.2-2.2-4.9-3.9-6.6-6.6 0.9 0.2 1.6 0.4 2.5 0.3 0-0.2 0.1-0.5 0.1-0.6 0.3 0.1 0.7 0 1 0-0.5-2-2.6-3.9-3.6-5.8-1.5-3-2.8-6.3-3.5-9.6-0.6 3.3-1.9 6.6-3.4 9.6-1 1.9-3.1 3.8-3.6 5.8 0.3 0 0.7 0.1 1 0 0 0.1 0.1 0.4 0.1 0.6 0.9 0.1 1.6-0.1 2.4-0.3-1.6 2.7-4.3 4.4-6.5 6.6 0.3 0 0.6 0.2 1 0.2-0.1 0.2 0.1 0.5 0.1 0.8 1-0.2 1.2 0.4 1.9 0.6 0.8 0.2 1.5 0 2.3-0.3-0.8 2.1-2.2 4-3.8 5.5-1.3 1.2-3.3 2.7-3.3 4.6 1.4 0.4 1.6 1 3.1 0.8 1.1-0.1 3.3 0.5 4.1 0 0.1 0.2 0.4 0.4 0.3 0.8 0.7 0 3.6-0.1 4.5-0.7 0.9 0.6 3.4 0.7 4.1 0.7 0-0.4 0.3-0.6 0.4-0.8 0.8 0.5 3-0.1 4.1 0 1.5 0.2 1.7-0.4 3.1-0.8 0-1.9-2-3.4-3.3-4.6z"/>
						<path id="&lt;Path&gt;" class="s8" d="m945.2 528.7c-1.6-1.6-3.1-3.5-3.8-5.6 0.8 0.3 1.5 0.5 2.3 0.3 0.7-0.2 0.9-0.7 1.8-0.6 0-0.3 0.2-0.5 0.2-0.8 0.4 0 0.6-0.2 1-0.2-2.2-2.1-5-3.9-6.6-6.6 0.9 0.2 1.6 0.4 2.5 0.3 0-0.2 0.1-0.4 0-0.6 0.3 0.1 0.8 0 1.1 0.1-0.5-2.1-2.6-3.9-3.6-5.9-1.5-3-2.8-6.3-3.5-9.6-0.6 3.3-2 6.6-3.4 9.6-1 2-3.1 3.8-3.7 5.9 0.3-0.1 0.8 0 1.1-0.1 0 0.2 0.1 0.4 0 0.6 0.9 0.1 1.7-0.1 2.5-0.3-1.6 2.7-4.3 4.5-6.5 6.6 0.3 0 0.6 0.2 0.9 0.2 0 0.3 0.2 0.5 0.2 0.8 0.9-0.1 1.1 0.4 1.9 0.6 0.8 0.2 1.5 0 2.3-0.3-0.8 2.1-2.2 4-3.9 5.6-1.2 1.1-3.2 2.7-3.2 4.5 1.3 0.4 1.6 1 3.1 0.8 1.1-0.1 3.3 0.5 4.1 0 0 0.2 0.3 0.4 0.3 0.8 0.7 0 3.6-0.1 4.5-0.7 0.9 0.6 3.4 0.7 4.1 0.7 0-0.4 0.3-0.6 0.3-0.8 0.8 0.5 3.1-0.1 4.1 0 1.6 0.2 1.8-0.4 3.2-0.8-0.1-1.8-2-3.4-3.3-4.5z"/>
						<path id="&lt;Path&gt;" class="s0" d="m743.7 594.3c-3.2-3-6-6.6-7.5-10.8 1.5 0.6 3 1 4.5 0.6 1.4-0.3 1.8-1.4 3.6-1.2 0-0.6 0.4-1 0.3-1.6 0.7 0.1 1.3-0.3 1.9-0.3-4.3-4.2-9.6-7.6-12.7-12.9 1.6 0.4 3.1 0.9 4.8 0.7-0.1-0.4 0.1-0.9 0.1-1.3 0.6 0.2 1.5 0 2.1 0.2-1.1-4-5.2-7.6-7.1-11.4-2.9-5.8-5.5-12.4-6.8-18.7-1.2 6.3-3.8 12.9-6.7 18.7-1.9 3.8-6 7.4-7.1 11.4 0.6-0.2 1.5 0 2.1-0.2 0 0.4 0.1 0.9 0.1 1.3 1.7 0.2 3.2-0.3 4.8-0.7-3.1 5.3-8.4 8.7-12.7 12.9 0.6 0 1.2 0.4 1.8 0.3 0 0.6 0.4 1 0.4 1.6 1.8-0.2 2.2 0.9 3.6 1.2 1.5 0.4 3 0 4.5-0.6-1.5 4.2-4.3 7.8-7.5 10.8-2.4 2.3-6.3 5.3-6.3 9 2.6 0.7 3.1 1.9 6.1 1.5 2-0.3 6.4 1 7.9-0.1 0.1 0.4 0.7 0.9 0.7 1.6 1.3 0.1 6.9-0.1 8.7-1.3 1.7 1.2 6.7 1.4 8 1.3 0-0.7 0.6-1.2 0.7-1.6 1.5 1.1 5.8-0.2 7.9 0.1 3 0.4 3.5-0.8 6.1-1.5 0-3.7-3.9-6.7-6.3-9z"/>
						<path id="&lt;Path&gt;" class="s8" d="m818.4 581.9c-3.2-3-6-6.6-7.5-10.8 1.5 0.6 3 1 4.5 0.6 1.4-0.3 1.8-1.4 3.6-1.2 0-0.6 0.4-1 0.3-1.6 0.7 0.1 1.3-0.3 1.9-0.4-4.3-4.1-9.6-7.5-12.7-12.8 1.6 0.4 3.1 0.9 4.8 0.7-0.1-0.4 0.1-0.9 0.1-1.3 0.6 0.2 1.5 0 2.1 0.2-1.1-4-5.2-7.6-7.1-11.4-2.9-5.8-5.5-12.4-6.8-18.7-1.2 6.3-3.8 12.9-6.7 18.7-1.9 3.8-6 7.4-7.1 11.4 0.6-0.2 1.5 0 2.1-0.2 0 0.4 0.1 0.9 0.1 1.3 1.7 0.2 3.2-0.3 4.8-0.7-3.1 5.3-8.4 8.7-12.7 12.8 0.6 0.1 1.2 0.5 1.8 0.4 0 0.6 0.4 1 0.4 1.6 1.8-0.2 2.2 0.9 3.6 1.2 1.5 0.4 3 0 4.5-0.6-1.5 4.2-4.3 7.8-7.5 10.8-2.4 2.3-6.3 5.3-6.3 9 2.6 0.7 3.1 1.9 6.1 1.5 2-0.3 6.4 1 7.9-0.1 0.1 0.4 0.7 0.9 0.7 1.6 1.3 0.1 6.9-0.1 8.7-1.3 1.7 1.2 6.7 1.4 8 1.3 0-0.7 0.6-1.2 0.7-1.6 1.5 1.1 5.8-0.2 7.9 0.1 3 0.4 3.5-0.8 6.1-1.5 0-3.7-3.9-6.7-6.3-9z"/>
						<path id="&lt;Path&gt;" class="s8" d="m933.7 586.1c-3.2-3-5.9-6.7-7.4-10.9 1.5 0.6 2.9 1 4.4 0.7 1.5-0.4 1.9-1.5 3.7-1.3 0-0.5 0.4-1 0.3-1.5 0.7 0 1.3-0.4 1.9-0.4-4.3-4.2-9.6-7.6-12.8-12.9 1.7 0.5 3.1 0.9 4.9 0.7-0.1-0.4 0.1-0.9 0-1.3 0.6 0.2 1.6 0 2.1 0.2-1-4-5.1-7.6-7-11.4-2.9-5.8-5.5-12.4-6.8-18.7-1.2 6.3-3.8 12.9-6.7 18.7-1.9 3.8-6.1 7.4-7.1 11.4 0.6-0.2 1.5 0 2.1-0.2 0 0.4 0.1 0.9 0.1 1.3 1.7 0.2 3.2-0.2 4.8-0.7-3.1 5.3-8.5 8.7-12.7 12.9 0.6 0 1.1 0.4 1.8 0.4 0 0.5 0.4 1 0.4 1.5 1.8-0.2 2.2 0.9 3.6 1.3 1.5 0.3 3-0.1 4.4-0.7-1.4 4.2-4.2 7.9-7.4 10.9-2.4 2.3-6.3 5.2-6.3 8.9 2.6 0.8 3.1 1.9 6.1 1.5 2-0.3 6.4 1 7.9-0.1 0.1 0.4 0.7 0.9 0.7 1.6 1.3 0.1 6.9-0.1 8.7-1.3 1.7 1.2 6.6 1.4 8 1.3 0-0.7 0.6-1.2 0.6-1.6 1.6 1.1 5.9-0.2 8 0.1 3 0.4 3.5-0.7 6.1-1.5 0-3.7-3.9-6.6-6.4-8.9z"/>
						<path id="&lt;Path&gt;" class="s8" d="m976.5 545.1c-2.6-2.4-4.8-5.3-5.9-8.7 1.2 0.5 2.3 0.8 3.5 0.5 1.2-0.2 1.5-1.1 2.9-1 0-0.4 0.3-0.8 0.3-1.2 0.5 0 1-0.3 1.5-0.3-3.4-3.3-7.7-6.1-10.2-10.3 1.3 0.3 2.5 0.7 3.9 0.5-0.1-0.3 0.1-0.7 0-1 0.5 0.2 1.2 0 1.7 0.1-0.8-3.1-4.1-6-5.7-9.1-2.3-4.6-4.4-9.9-5.4-14.9-1 5-3.1 10.3-5.4 14.9-1.5 3.1-4.8 6-5.6 9.1 0.4-0.1 1.2 0.1 1.7-0.1-0.1 0.3 0.1 0.7 0 1 1.4 0.2 2.6-0.2 3.9-0.5-2.5 4.2-6.8 7-10.2 10.3 0.5 0 0.9 0.3 1.5 0.3 0 0.4 0.3 0.8 0.3 1.2 1.4-0.1 1.7 0.8 2.9 1 1.2 0.3 2.3 0 3.5-0.5-1.2 3.4-3.4 6.3-5.9 8.7-2 1.8-5.1 4.2-5.1 7.1 2.1 0.6 2.5 1.6 4.9 1.3 1.6-0.3 5.1 0.8 6.3-0.1 0.1 0.3 0.5 0.7 0.5 1.2 1.1 0.1 5.6 0 7.1-1 1.3 1 5.2 1.1 6.3 1 0-0.5 0.5-0.9 0.5-1.2 1.3 0.9 4.8-0.2 6.4 0.1 2.4 0.3 2.8-0.7 4.9-1.3 0-2.9-3.1-5.3-5.1-7.1z"/>
						<path id="&lt;Path&gt;" class="s8" d="m1018.1 520.7c-2.6-2.4-4.8-5.3-6-8.7 1.2 0.5 2.4 0.8 3.6 0.6 1.1-0.3 1.5-1.2 2.9-1.1 0-0.4 0.3-0.8 0.3-1.2 0.5 0 1-0.3 1.4-0.3-3.4-3.3-7.6-6-10.1-10.3 1.3 0.4 2.4 0.7 3.8 0.5 0-0.3 0.1-0.7 0.1-1 0.5 0.2 1.2 0 1.7 0.2-0.9-3.2-4.2-6.1-5.7-9.2-2.3-4.6-4.4-9.8-5.4-14.9-1 5.1-3.1 10.3-5.4 14.9-1.5 3.1-4.8 6-5.6 9.2 0.4-0.2 1.2 0 1.6-0.2 0 0.3 0.1 0.7 0.1 1 1.4 0.2 2.6-0.1 3.9-0.5-2.6 4.3-6.8 7-10.2 10.3 0.5 0 0.9 0.3 1.4 0.3 0 0.4 0.3 0.8 0.3 1.2 1.4-0.1 1.8 0.8 2.9 1.1 1.2 0.2 2.4-0.1 3.6-0.6-1.2 3.4-3.4 6.3-6 8.7-1.9 1.8-5 4.2-5 7.1 2 0.7 2.4 1.6 4.8 1.3 1.7-0.3 5.2 0.8 6.4-0.1 0.1 0.3 0.5 0.7 0.5 1.2 1.1 0.1 5.6 0 7-0.9 1.4 0.9 5.3 1 6.4 0.9 0-0.5 0.5-0.9 0.5-1.2 1.2 0.9 4.7-0.2 6.4 0.1 2.4 0.3 2.8-0.6 4.9-1.3-0.1-2.9-3.2-5.3-5.1-7.1z"/>
						<path id="&lt;Path&gt;" class="s0" d="m1000.9 569.6c-2.5-2.4-4.8-5.3-5.9-8.7 1.2 0.5 2.3 0.8 3.5 0.6 1.2-0.3 1.5-1.2 2.9-1.1 0-0.4 0.3-0.8 0.3-1.2 0.6 0 1-0.3 1.5-0.3-3.4-3.3-7.7-6-10.2-10.3 1.3 0.4 2.5 0.7 3.9 0.5-0.1-0.3 0.1-0.7 0-1 0.5 0.2 1.2 0 1.7 0.2-0.8-3.2-4.1-6.1-5.6-9.2-2.4-4.6-4.4-9.8-5.4-14.9-1 5.1-3.1 10.3-5.4 14.9-1.6 3.1-4.9 6-5.7 9.2 0.5-0.2 1.2 0 1.7-0.2-0.1 0.3 0.1 0.7 0 1 1.4 0.2 2.6-0.1 3.9-0.5-2.5 4.3-6.8 7-10.2 10.3 0.5 0 1 0.3 1.5 0.3 0 0.4 0.3 0.8 0.3 1.2 1.4-0.1 1.7 0.8 2.9 1.1 1.2 0.2 2.3-0.1 3.5-0.6-1.1 3.4-3.3 6.3-5.9 8.7-2 1.8-5.1 4.2-5.1 7.1 2.1 0.7 2.5 1.6 4.9 1.3 1.6-0.3 5.1 0.8 6.4-0.1 0 0.3 0.5 0.7 0.5 1.3 1 0 5.5-0.1 7-1 1.3 0.9 5.3 1 6.4 1-0.1-0.6 0.4-1 0.5-1.3 1.2 0.9 4.7-0.2 6.3 0.1 2.4 0.3 2.8-0.6 4.9-1.3 0-2.9-3.1-5.3-5.1-7.1z"/>
						<path id="&lt;Path&gt;" class="s8" d="m1059.3 570.4c-3.4-3.2-6.4-7.1-7.9-11.5 1.6 0.7 3.1 1.1 4.7 0.7 1.5-0.3 2-1.5 3.8-1.3 0-0.6 0.4-1.1 0.4-1.7 0.7 0.1 1.3-0.3 1.9-0.4-4.5-4.3-10.1-7.9-13.4-13.6 1.7 0.5 3.3 1 5.1 0.8 0-0.5 0.1-1 0.1-1.4 0.6 0.2 1.6 0 2.2 0.2-1.1-4.2-5.5-8-7.5-12.1-3-6.1-5.8-13-7.1-19.7-1.3 6.7-4.1 13.6-7.1 19.7-2 4.1-6.4 7.9-7.5 12.1 0.6-0.2 1.6 0 2.2-0.2 0 0.4 0.1 0.9 0.1 1.4 1.8 0.2 3.4-0.3 5.1-0.8-3.3 5.7-8.9 9.3-13.4 13.6 0.6 0.1 1.2 0.5 1.9 0.4 0 0.6 0.4 1.1 0.4 1.7 1.8-0.2 2.3 1 3.8 1.3 1.6 0.4 3.1 0 4.7-0.7-1.5 4.4-4.5 8.3-7.9 11.5-2.6 2.4-6.6 5.5-6.7 9.4 2.8 0.8 3.3 2.1 6.5 1.6 2.1-0.3 6.8 1.1 8.4 0 0 0.3 0.7 0.9 0.7 1.6 1.4 0.1 7.3-0.1 9.2-1.3 1.8 1.2 7 1.4 8.4 1.3 0-0.7 0.7-1.3 0.7-1.6 1.6 1.1 6.2-0.3 8.4 0 3.2 0.5 3.7-0.8 6.5-1.6-0.1-3.9-4.2-7-6.7-9.4z"/>
						<path id="&lt;Path&gt;" class="s0" d="m794.5 584.6c-3.6-3.3-6.7-7.4-8.3-12.1 1.7 0.7 3.3 1.1 5 0.7 1.6-0.4 2.1-1.6 4-1.4 0.1-0.6 0.5-1.1 0.4-1.7 0.8 0 1.4-0.4 2.1-0.5-4.8-4.6-10.7-8.4-14.2-14.4 1.8 0.5 3.4 1 5.4 0.8-0.1-0.5 0.1-1 0-1.5 0.7 0.3 1.7 0.1 2.4 0.2-1.2-4.4-5.8-8.5-7.9-12.7-3.3-6.5-6.2-13.9-7.6-21-1.4 7.1-4.3 14.5-7.5 21-2.2 4.2-6.8 8.3-8 12.7 0.7-0.1 1.7 0.1 2.4-0.2-0.1 0.5 0.1 1 0.1 1.5 1.9 0.2 3.6-0.3 5.4-0.8-3.5 6-9.5 9.8-14.3 14.4 0.7 0.1 1.3 0.5 2.1 0.5 0 0.6 0.4 1.1 0.4 1.7 2-0.2 2.4 1 4.1 1.4 1.6 0.4 3.3 0 4.9-0.7-1.6 4.7-4.7 8.8-8.3 12.1-2.7 2.6-7.1 5.9-7.1 10 2.9 0.9 3.5 2.2 6.8 1.7 2.3-0.3 7.2 1.2 8.9 0 0.1 0.4 0.8 0.9 0.7 1.7 1.6 0.1 7.8-0.1 9.9-1.4 1.8 1.3 7.4 1.5 8.9 1.4 0-0.8 0.6-1.3 0.7-1.7 1.7 1.2 6.6-0.3 8.9 0 3.4 0.5 3.9-0.8 6.8-1.7 0-4.1-4.3-7.4-7.1-10z"/>
						<path id="&lt;Path&gt;" class="s0" d="m678.5 591c-2.7-2.6-5.1-5.7-6.3-9.2 1.2 0.5 2.5 0.8 3.7 0.5 1.3-0.3 1.6-1.2 3.1-1.1 0-0.4 0.4-0.8 0.3-1.3 0.6 0.1 1.1-0.3 1.6-0.3-3.6-3.5-8.2-6.4-10.8-10.9 1.4 0.3 2.6 0.7 4.1 0.5-0.1-0.3 0.1-0.7 0-1.1 0.5 0.2 1.3 0.1 1.8 0.2-0.8-3.4-4.4-6.5-6-9.7-2.4-4.9-4.7-10.5-5.7-15.9-1.1 5.4-3.3 11-5.8 15.9-1.6 3.2-5.1 6.3-6 9.7 0.5-0.1 1.3 0 1.8-0.2-0.1 0.4 0.1 0.8 0.1 1.1 1.4 0.2 2.7-0.2 4.1-0.5-2.7 4.5-7.2 7.4-10.9 10.9 0.5 0 1 0.4 1.6 0.3 0 0.5 0.3 0.9 0.3 1.3 1.5-0.1 1.9 0.8 3.1 1.1 1.3 0.3 2.5 0 3.8-0.5-1.3 3.5-3.6 6.6-6.4 9.2-2 2-5.3 4.5-5.4 7.6 2.3 0.7 2.7 1.7 5.2 1.3 1.8-0.3 5.5 0.9 6.8-0.1 0.1 0.4 0.6 0.8 0.5 1.4 1.2 0 6-0.1 7.5-1.1 1.4 1 5.6 1.1 6.8 1.1 0-0.6 0.5-1 0.5-1.4 1.3 1 5.1-0.2 6.8 0.1 2.5 0.4 3-0.6 5.2-1.3 0-3.1-3.3-5.6-5.4-7.6z"/>
						<path id="&lt;Path&gt;" class="s8" d="m873.3 578.6c-2.7-2.6-5.1-5.7-6.3-9.2 1.3 0.5 2.5 0.8 3.8 0.5 1.2-0.3 1.6-1.2 3.1-1.1 0-0.4 0.3-0.8 0.3-1.3 0.5 0.1 1-0.3 1.5-0.3-3.6-3.5-8.1-6.4-10.8-10.9 1.4 0.3 2.6 0.7 4.1 0.5 0-0.3 0.1-0.7 0.1-1.1 0.5 0.2 1.3 0.1 1.8 0.2-0.9-3.4-4.4-6.5-6.1-9.7-2.4-4.9-4.6-10.5-5.7-15.9-1.1 5.4-3.3 11-5.7 15.9-1.7 3.2-5.2 6.3-6.1 9.7 0.5-0.1 1.3 0 1.8-0.2 0 0.4 0.1 0.8 0.1 1.1 1.5 0.2 2.7-0.2 4.1-0.5-2.7 4.5-7.2 7.4-10.8 10.9 0.5 0 1 0.4 1.5 0.3 0 0.5 0.3 0.9 0.3 1.3 1.5-0.1 1.9 0.8 3.1 1.1 1.3 0.3 2.5 0 3.8-0.5-1.2 3.5-3.6 6.6-6.3 9.2-2.1 2-5.4 4.5-5.4 7.6 2.2 0.6 2.6 1.7 5.2 1.3 1.7-0.3 5.4 0.9 6.7-0.1 0.1 0.3 0.6 0.8 0.6 1.3 1.1 0.1 5.9 0 7.4-1 1.5 1 5.7 1.1 6.8 1 0-0.5 0.5-1 0.6-1.3 1.3 1 5-0.2 6.8 0.1 2.5 0.4 2.9-0.7 5.1-1.3 0-3.1-3.3-5.6-5.4-7.6z"/>
						<path id="&lt;Path&gt;" class="s0" d="m905 588.8c-3.6-3.4-6.7-7.5-8.4-12.2 1.7 0.7 3.3 1.1 5 0.7 1.6-0.3 2.1-1.6 4.1-1.4 0-0.6 0.4-1.1 0.4-1.7 0.7 0 1.4-0.4 2-0.4-4.7-4.7-10.7-8.5-14.2-14.5 1.8 0.6 3.4 1 5.4 0.8-0.1-0.4 0.1-1 0.1-1.4 0.6 0.2 1.7 0 2.3 0.2-1.1-4.5-5.8-8.5-7.9-12.8-3.2-6.5-6.1-13.8-7.6-20.9-1.4 7.1-4.3 14.4-7.5 20.9-2.1 4.3-6.8 8.3-7.9 12.8 0.6-0.2 1.7 0 2.3-0.2 0 0.4 0.2 1 0.1 1.4 1.9 0.2 3.6-0.2 5.4-0.8-3.5 6-9.5 9.8-14.2 14.5 0.6 0 1.3 0.4 2 0.4 0 0.6 0.4 1.1 0.4 1.7 2-0.2 2.5 1.1 4.1 1.4 1.7 0.4 3.3 0 5-0.7-1.7 4.7-4.8 8.8-8.4 12.2-2.7 2.5-7 5.8-7.1 9.9 2.9 0.9 3.5 2.2 6.8 1.8 2.4-0.4 7.2 1.1 9-0.1 0 0.4 0.7 1 0.7 1.7 1.5 0.1 7.7-0.1 9.8-1.4 1.9 1.3 7.4 1.5 8.9 1.4 0-0.7 0.7-1.3 0.7-1.7 1.7 1.2 6.6-0.3 9 0.1 3.3 0.4 3.8-0.9 6.8-1.8-0.1-4.1-4.4-7.4-7.1-9.9z"/>
						<path id="&lt;Path&gt;" class="s8" d="m967.6 594.9c-3.6-3.4-6.7-7.5-8.3-12.2 1.7 0.7 3.3 1.2 5 0.8 1.6-0.4 2-1.7 4-1.5 0-0.6 0.5-1.1 0.4-1.7 0.8 0 1.4-0.4 2.1-0.4-4.8-4.7-10.7-8.5-14.3-14.4 1.9 0.5 3.5 1 5.5 0.7-0.1-0.4 0.1-1 0-1.4 0.7 0.2 1.7 0 2.4 0.2-1.2-4.5-5.8-8.5-7.9-12.8-3.3-6.4-6.2-13.8-7.6-20.9-1.4 7.1-4.3 14.5-7.6 20.9-2.1 4.3-6.7 8.3-7.9 12.8 0.7-0.2 1.7 0 2.4-0.2-0.1 0.4 0.1 1 0.1 1.4 1.9 0.3 3.5-0.2 5.4-0.7-3.6 5.9-9.5 9.7-14.3 14.4 0.7 0 1.3 0.4 2.1 0.4 0 0.6 0.4 1.1 0.4 1.7 2-0.2 2.4 1.1 4 1.5 1.7 0.4 3.3-0.1 5-0.8-1.6 4.7-4.7 8.8-8.3 12.2-2.8 2.6-7.1 5.9-7.1 10 2.9 0.8 3.5 2.2 6.8 1.7 2.3-0.3 7.2 1.1 8.9-0.1 0.1 0.4 0.7 1 0.7 1.7 1.5 0.2 7.8-0.1 9.8-1.4 1.9 1.3 7.5 1.6 9 1.4 0-0.7 0.6-1.3 0.7-1.7 1.7 1.2 6.6-0.2 8.9 0.1 3.3 0.5 3.9-0.9 6.8-1.7 0-4.1-4.3-7.4-7.1-10z"/>
						<path id="&lt;Path&gt;" class="s0" d="m1031.6 588.9c-3.6-3.4-6.7-7.5-8.3-12.2 1.7 0.7 3.3 1.2 5 0.8 1.6-0.4 2-1.7 4-1.5 0-0.6 0.5-1.1 0.4-1.7 0.8 0 1.4-0.4 2.1-0.4-4.8-4.7-10.7-8.5-14.3-14.4 1.9 0.5 3.5 1 5.5 0.7-0.1-0.4 0.1-1 0-1.4 0.7 0.2 1.7 0 2.4 0.2-1.2-4.5-5.8-8.5-7.9-12.8-3.3-6.4-6.2-13.8-7.6-20.9-1.4 7.1-4.3 14.5-7.6 20.9-2.1 4.3-6.7 8.3-7.9 12.8 0.7-0.2 1.7 0 2.4-0.2-0.1 0.4 0.1 1 0 1.4 2 0.3 3.6-0.2 5.5-0.7-3.6 5.9-9.5 9.7-14.3 14.4 0.7 0 1.3 0.4 2.1 0.4-0.1 0.6 0.4 1.1 0.4 1.7 2-0.2 2.4 1.1 4 1.5 1.7 0.4 3.3-0.1 5-0.8-1.6 4.7-4.7 8.8-8.3 12.2-2.8 2.6-7.1 5.9-7.1 10 2.9 0.8 3.5 2.2 6.8 1.7 2.3-0.3 7.2 1.1 8.9-0.1 0.1 0.4 0.7 1 0.7 1.7 1.5 0.2 7.8-0.1 9.8-1.4 1.9 1.3 7.5 1.6 9 1.4 0-0.7 0.6-1.3 0.7-1.7 1.7 1.2 6.6-0.2 8.9 0.1 3.3 0.5 3.9-0.9 6.8-1.7 0-4.1-4.3-7.4-7.1-10z"/>
						<path id="&lt;Path&gt;" class="s0" d="m1096.8 588.8c-3.6-3.4-6.7-7.5-8.4-12.2 1.7 0.7 3.3 1.1 5 0.7 1.6-0.3 2.1-1.6 4.1-1.4 0-0.6 0.4-1.1 0.4-1.7 0.7 0 1.4-0.4 2-0.4-4.7-4.7-10.7-8.5-14.2-14.5 1.8 0.6 3.4 1 5.4 0.8-0.1-0.4 0.1-1 0.1-1.4 0.6 0.2 1.7 0 2.3 0.2-1.1-4.5-5.8-8.5-7.9-12.8-3.2-6.5-6.2-13.8-7.6-20.9-1.4 7.1-4.3 14.4-7.5 20.9-2.1 4.3-6.8 8.3-7.9 12.8 0.6-0.2 1.7 0 2.3-0.2-0.1 0.4 0.1 1 0.1 1.4 1.9 0.2 3.6-0.2 5.4-0.8-3.5 6-9.5 9.8-14.2 14.5 0.6 0 1.3 0.4 2 0.4 0 0.6 0.4 1.1 0.4 1.7 2-0.2 2.4 1.1 4.1 1.4 1.7 0.4 3.3 0 4.9-0.7-1.6 4.7-4.7 8.8-8.3 12.2-2.7 2.5-7.1 5.8-7.1 9.9 2.9 0.9 3.5 2.2 6.8 1.8 2.3-0.4 7.2 1.1 9-0.1 0 0.4 0.7 1 0.7 1.7 1.5 0.1 7.7-0.1 9.8-1.4 1.9 1.3 7.4 1.5 8.9 1.4 0-0.7 0.7-1.3 0.7-1.7 1.7 1.2 6.6-0.3 9 0.1 3.3 0.4 3.8-0.9 6.8-1.8-0.1-4.1-4.4-7.4-7.1-9.9z"/>
						<path id="&lt;Path&gt;" class="s0" d="m852 588.8c-3.6-3.4-6.7-7.5-8.3-12.2 1.6 0.7 3.3 1.1 4.9 0.7 1.7-0.3 2.1-1.6 4.1-1.4 0-0.6 0.4-1.1 0.4-1.7 0.8 0 1.4-0.4 2.1-0.4-4.8-4.7-10.8-8.5-14.3-14.5 1.8 0.6 3.5 1 5.4 0.8 0-0.4 0.2-1 0.1-1.4 0.7 0.2 1.7 0 2.4 0.2-1.2-4.5-5.8-8.5-8-12.8-3.2-6.5-6.1-13.8-7.5-20.9-1.4 7.1-4.3 14.4-7.6 20.9-2.1 4.3-6.7 8.3-7.9 12.8 0.7-0.2 1.7 0 2.4-0.2-0.1 0.4 0.1 1 0 1.4 2 0.2 3.6-0.2 5.4-0.8-3.5 6-9.4 9.8-14.2 14.5 0.7 0 1.3 0.4 2.1 0.4-0.1 0.6 0.3 1.1 0.4 1.7 1.9-0.2 2.4 1.1 4 1.4 1.7 0.4 3.3 0 5-0.7-1.6 4.7-4.7 8.8-8.3 12.2-2.8 2.5-7.1 5.8-7.1 9.9 2.9 0.9 3.4 2.2 6.8 1.8 2.3-0.4 7.2 1.1 8.9-0.1 0.1 0.4 0.7 1 0.7 1.7 1.5 0.1 7.8-0.1 9.8-1.4 1.9 1.3 7.4 1.5 9 1.4-0.1-0.7 0.6-1.3 0.7-1.7 1.7 1.2 6.6-0.3 8.9 0.1 3.3 0.4 3.9-0.9 6.8-1.8 0-4.1-4.4-7.4-7.1-9.9z"/>
					</g>
				</g>
				<g id="&lt;Group&gt;">
					<g id="&lt;Group&gt;" style="opacity: .29">
						<path id="&lt;Path&gt;" class="s10" d="m1542.9 600.4h-898.3c13.7 4.3 28.7 5.1 45.6 6.8 30.2 2.9 67.2 6.7 95.8 11.8 15.4 2.7 26.1 5.7 44.1 6.5 17.9 0.9 34.7 0.4 51.5 0.3 34.4-0.3 56 7.5 89.2 8.3 28.8 0.7 52.5 4.8 79.9 7.7 25.3 2.8 52.8 2.7 77.3 5.6 22.1 2.7 39.3 6.6 62.8 8.3 18.7 1.3 39.9 3 57.5 5.5 20 2.9 38.4 8.1 60.3 9.4 9.2 0.6 18.3 0.5 27.5 0.6 9.4 0 18.8 0.3 28.1 1.6 54.6 7.7 115.2 21.1 175.6 20.7z"/>
						<path id="&lt;Path&gt;" class="s11" d="m1258.4 600.4c2 3 4.1 6.4-10.6 5.9 15.7 7.7 45 7.6 52.7 17.8 9.2 12.1 41.3 16 60 25.6-12.5 1.5-33-0.9-45.4-2.1-16-1.6-32.8-5.8-50.1-5.6 9.4 4.4 23.4 9.3 34.6 13.4 12 4.5 23.7 10.5 36.5 15.8 9.4 0 18.8 0.3 28.1 1.6 54.6 7.7 115.2 21.1 175.6 20.7l3.1-93.1z"/>
					</g>
					<g id="&lt;Group&gt;" style="opacity: .29">
						<path id="&lt;Path&gt;" class="s12" d="m715.1 604.5c-3.2 1-5.9 2.2-7.4 3.7 1.5-0.3 2.9-0.4 4.4-0.3 1.5 0.2 1.9 0.5 3.7 0.5 0 0.1 0.3 0.3 0.3 0.5 0.7 0 1.3 0.1 1.9 0.1-4.3 1.4-9.6 2.6-12.8 4.4 1.7-0.2 3.1-0.3 4.9-0.2-0.1 0.1 0.1 0.3 0 0.4 0.6-0.1 1.6 0 2.1-0.1-1 1.4-5.1 2.6-7 3.9-2.9 2-5.5 4.2-6.8 6.4-1.2-2.2-3.8-4.4-6.7-6.4-1.9-1.3-6.1-2.5-7.1-3.9 0.6 0.1 1.5 0 2.1 0.1 0-0.1 0.1-0.3 0.1-0.4 1.7-0.1 3.2 0 4.8 0.2-3.1-1.8-8.5-3-12.7-4.4 0.6 0 1.1-0.1 1.8-0.1 0-0.2 0.4-0.4 0.4-0.5 1.8 0 2.2-0.3 3.6-0.5 1.5-0.1 3 0 4.4 0.3-1.4-1.5-4.2-2.7-7.4-3.7-2.4-0.8-6.3-1.8-6.3-3.1 2.6-0.2 3.1-0.6 6-0.5 2.1 0.1 6.5-0.3 8 0 0.1-0.1 0.7-0.3 0.7-0.5 1.3 0 6.9 0 8.7 0.4 1.7-0.4 6.6-0.4 8-0.4 0 0.2 0.6 0.4 0.6 0.5 1.6-0.3 5.9 0.1 8 0 3-0.1 3.5 0.3 6.1 0.5 0 1.3-3.9 2.3-6.4 3.1z"/>
						<path id="&lt;Path&gt;" class="s12" d="m750.7 611.7c-2.5 0.8-4.6 1.7-5.7 2.8 1.1-0.1 2.3-0.2 3.4-0.1 1.1 0.1 1.4 0.3 2.8 0.3 0 0.1 0.3 0.3 0.3 0.4 0.5 0 0.9 0.1 1.4 0.1-3.3 1.1-7.4 2-9.8 3.4 1.2-0.1 2.4-0.3 3.7-0.2 0 0.1 0.1 0.2 0.1 0.3 0.4 0 1.1 0 1.6 0-0.8 1-4 2-5.5 3-2.2 1.5-4.2 3.2-5.2 4.9-0.9-1.7-3-3.4-5.2-4.9-1.4-1-4.6-2-5.4-3 0.4 0 1.1 0 1.6 0-0.1-0.1 0.1-0.2 0-0.3 1.4-0.1 2.5 0.1 3.8 0.2-2.5-1.4-6.6-2.3-9.9-3.4 0.5 0 0.9-0.1 1.5-0.1-0.1-0.1 0.2-0.3 0.2-0.4 1.4 0 1.7-0.2 2.8-0.3 1.2-0.1 2.3 0 3.5 0.1-1.2-1.1-3.3-2-5.8-2.8-1.9-0.6-4.8-1.4-4.9-2.4 2-0.2 2.4-0.5 4.7-0.4 1.6 0.1 5-0.2 6.2 0.1 0-0.1 0.5-0.3 0.5-0.4 1-0.1 5.3 0 6.7 0.3 1.3-0.3 5.1-0.4 6.2-0.3 0 0.1 0.4 0.3 0.5 0.4 1.2-0.3 4.5 0 6.1-0.1 2.3-0.1 2.7 0.2 4.7 0.4 0 1-3 1.8-4.9 2.4z"/>
						<path id="&lt;Path&gt;" class="s12" d="m780.7 614.7c-2.5 0.8-4.6 1.8-5.7 2.9 1.1-0.2 2.2-0.3 3.4-0.2 1.1 0.1 1.4 0.4 2.8 0.4 0 0.1 0.3 0.2 0.3 0.4 0.5 0 0.9 0.1 1.4 0.1-3.3 1.1-7.4 1.9-9.8 3.3 1.2-0.1 2.3-0.2 3.7-0.1 0 0.1 0.1 0.2 0 0.3 0.5-0.1 1.2 0 1.7 0-0.8 1-4 1.9-5.5 2.9-2.2 1.6-4.2 3.3-5.2 5-1-1.7-3-3.4-5.2-5-1.5-1-4.7-1.9-5.5-2.9 0.5 0 1.2-0.1 1.7 0-0.1-0.1 0.1-0.2 0-0.3 1.4-0.1 2.5 0 3.7 0.1-2.4-1.4-6.5-2.2-9.8-3.3 0.5 0 0.9-0.1 1.4-0.1 0-0.2 0.3-0.3 0.3-0.4 1.4 0 1.7-0.3 2.8-0.4 1.2-0.1 2.3 0 3.4 0.2-1.1-1.1-3.2-2.1-5.7-2.9-1.9-0.6-4.9-1.3-4.9-2.3 2-0.2 2.4-0.5 4.7-0.4 1.6 0.1 5-0.3 6.2 0 0-0.1 0.4-0.2 0.4-0.4 1.1 0 5.4 0 6.8 0.3 1.3-0.3 5.1-0.3 6.2-0.3 0 0.2 0.4 0.3 0.5 0.4 1.1-0.3 4.5 0.1 6.1 0 2.3-0.1 2.7 0.2 4.7 0.4 0 1-3 1.7-4.9 2.3z"/>
						<path id="&lt;Path&gt;" class="s12" d="m828.4 620.7c-2.5 0.8-4.6 1.8-5.7 2.9 1.1-0.2 2.2-0.3 3.4-0.2 1.1 0.1 1.4 0.4 2.8 0.3 0 0.2 0.3 0.3 0.3 0.4 0.5 0 0.9 0.1 1.4 0.1-3.3 1.1-7.4 2-9.8 3.4 1.2-0.1 2.3-0.2 3.7-0.2-0.1 0.1 0.1 0.3 0 0.4 0.5-0.1 1.2 0 1.7-0.1-0.8 1.1-4 2-5.5 3-2.2 1.5-4.2 3.3-5.2 4.9-1-1.6-3-3.4-5.2-4.9-1.5-1-4.7-1.9-5.5-3 0.5 0.1 1.2 0 1.7 0.1-0.1-0.1 0-0.3 0-0.4 1.3 0 2.5 0.1 3.7 0.2-2.4-1.4-6.5-2.3-9.8-3.4 0.5 0 0.9-0.1 1.4-0.1 0-0.1 0.3-0.2 0.3-0.4 1.4 0.1 1.7-0.2 2.8-0.3 1.2-0.1 2.3 0 3.4 0.2-1.1-1.1-3.2-2.1-5.7-2.9-1.9-0.6-4.9-1.4-4.9-2.3 2-0.2 2.4-0.5 4.7-0.4 1.6 0 5-0.3 6.1 0 0.1-0.1 0.5-0.2 0.5-0.4 1.1-0.1 5.4 0 6.8 0.3 1.3-0.3 5.1-0.4 6.2-0.3-0.1 0.2 0.4 0.3 0.4 0.4 1.2-0.3 4.6 0 6.2 0 2.3-0.1 2.7 0.2 4.7 0.4 0 0.9-3 1.7-4.9 2.3z"/>
						<path id="&lt;Path&gt;" class="s12" d="m864 620.7c-2.5 0.8-4.6 1.8-5.8 2.9 1.2-0.2 2.3-0.3 3.5-0.2 1.1 0.1 1.4 0.4 2.8 0.3 0 0.2 0.3 0.3 0.2 0.4 0.6 0 1 0.1 1.5 0.1-3.3 1.1-7.4 2-9.9 3.4 1.3-0.1 2.4-0.2 3.8-0.2-0.1 0.1 0.1 0.3 0 0.4 0.5-0.1 1.2 0 1.6-0.1-0.8 1.1-3.9 2-5.4 3-2.2 1.5-4.2 3.3-5.2 4.9-1-1.6-3-3.4-5.2-4.9-1.5-1-4.7-1.9-5.5-3 0.5 0.1 1.2 0 1.6 0.1 0-0.1 0.1-0.3 0.1-0.4 1.3 0 2.5 0.1 3.7 0.2-2.4-1.4-6.5-2.3-9.8-3.4 0.5 0 0.9-0.1 1.4-0.1 0-0.1 0.3-0.2 0.3-0.4 1.4 0.1 1.7-0.2 2.8-0.3 1.2-0.1 2.3 0 3.4 0.2-1.1-1.1-3.2-2.1-5.7-2.9-1.9-0.6-4.9-1.4-4.9-2.3 2-0.2 2.4-0.5 4.7-0.4 1.6 0 4.9-0.3 6.1 0 0.1-0.1 0.5-0.2 0.5-0.4 1.1-0.1 5.4 0 6.8 0.3 1.3-0.3 5.1-0.4 6.1-0.3 0 0.2 0.5 0.3 0.5 0.4 1.2-0.3 4.6 0 6.2 0 2.3-0.1 2.7 0.2 4.7 0.4 0 0.9-3 1.7-4.9 2.3z"/>
						<path id="&lt;Path&gt;" class="s12" d="m899.2 620.7c-2.5 0.8-4.7 1.8-5.8 2.9 1.2-0.2 2.3-0.3 3.4-0.2 1.2 0.1 1.5 0.4 2.8 0.3 0 0.2 0.3 0.3 0.3 0.4 0.5 0 1 0.1 1.4 0.1-3.3 1.1-7.4 2-9.8 3.4 1.3-0.1 2.4-0.2 3.7-0.2 0 0.1 0.1 0.3 0.1 0.4 0.5-0.1 1.2 0 1.6-0.1-0.8 1.1-4 2-5.4 3-2.3 1.5-4.3 3.3-5.2 4.9-1-1.6-3-3.4-5.2-4.9-1.5-1-4.7-1.9-5.5-3 0.4 0.1 1.2 0 1.6 0.1 0-0.1 0.1-0.3 0.1-0.4 1.3 0 2.4 0.1 3.7 0.2-2.4-1.4-6.5-2.3-9.8-3.4 0.4 0 0.9-0.1 1.4-0.1 0-0.1 0.3-0.2 0.3-0.4 1.3 0.1 1.6-0.2 2.8-0.3 1.1-0.1 2.2 0 3.4 0.2-1.1-1.1-3.3-2.1-5.7-2.9-1.9-0.6-4.9-1.4-4.9-2.3 2-0.2 2.4-0.5 4.7-0.4 1.6 0 4.9-0.3 6.1 0 0.1-0.1 0.5-0.2 0.5-0.4 1-0.1 5.4 0 6.8 0.3 1.3-0.3 5.1-0.4 6.1-0.3 0 0.2 0.5 0.3 0.5 0.4 1.2-0.3 4.6 0 6.2 0 2.2-0.1 2.6 0.2 4.6 0.4 0 0.9-3 1.7-4.8 2.3z"/>
						<path id="&lt;Path&gt;" class="s12" d="m919.7 628.7c-1.7 0.5-3.1 1.1-3.9 1.9 0.8-0.1 1.5-0.2 2.3-0.1 0.8 0 1 0.2 1.9 0.2 0 0.1 0.2 0.2 0.2 0.3 0.3-0.1 0.6 0 0.9 0-2.2 0.7-4.9 1.3-6.5 2.3 0.8-0.1 1.6-0.2 2.5-0.2-0.1 0.1 0 0.2 0 0.3 0.3-0.1 0.8 0 1.1-0.1-0.6 0.7-2.7 1.4-3.7 2-1.4 1-2.8 2.2-3.4 3.3-0.7-1.1-2-2.3-3.5-3.3-1-0.6-3.1-1.3-3.6-2 0.3 0.1 0.8 0 1.1 0.1-0.1-0.1 0-0.2 0-0.3 0.9 0 1.6 0.1 2.5 0.2-1.6-1-4.4-1.6-6.5-2.3 0.3 0 0.5-0.1 0.9 0 0-0.1 0.2-0.2 0.2-0.3 0.9 0 1.1-0.2 1.8-0.2 0.8-0.1 1.6 0 2.3 0.1-0.7-0.8-2.2-1.4-3.8-1.9-1.3-0.4-3.2-0.9-3.3-1.6 1.4-0.1 1.6-0.3 3.2-0.2 1 0 3.3-0.2 4.1 0 0-0.1 0.3-0.2 0.3-0.3 0.7 0 3.5 0 4.5 0.2 0.8-0.2 3.4-0.2 4.1-0.2 0 0.1 0.3 0.2 0.3 0.3 0.8-0.2 3 0 4.1 0 1.5-0.1 1.8 0.1 3.1 0.2 0 0.7-2 1.2-3.2 1.6z"/>
						<path id="&lt;Path&gt;" class="s12" d="m960.5 631.7c-1.6 0.5-3.1 1.2-3.8 1.9 0.7-0.1 1.5-0.2 2.3-0.1 0.7 0 0.9 0.2 1.8 0.2 0 0.1 0.2 0.2 0.2 0.3 0.4 0 0.6 0 0.9 0-2.1 0.8-4.9 1.4-6.5 2.3 0.9-0.1 1.6-0.2 2.5-0.1 0 0 0.1 0.1 0 0.2 0.3 0 0.8 0 1.1 0-0.5 0.7-2.6 1.3-3.6 2-1.5 1-2.8 2.1-3.5 3.2-0.6-1.1-2-2.2-3.4-3.2-1-0.7-3.1-1.3-3.7-2 0.3 0 0.8 0 1.1 0 0-0.1 0.1-0.2 0-0.2 0.9-0.1 1.7 0 2.5 0.1-1.6-0.9-4.3-1.5-6.5-2.3 0.3 0 0.6 0 0.9 0 0-0.1 0.2-0.2 0.2-0.3 0.9 0 1.1-0.2 1.9-0.2 0.8-0.1 1.5 0 2.3 0.1-0.8-0.7-2.2-1.4-3.9-1.9-1.2-0.4-3.2-0.9-3.2-1.6 1.3-0.1 1.6-0.3 3.1-0.2 1.1 0 3.3-0.2 4.1 0 0-0.1 0.3-0.2 0.3-0.3 0.7 0 3.6 0 4.5 0.2 0.9-0.2 3.4-0.2 4.1-0.2 0 0.1 0.3 0.2 0.3 0.3 0.8-0.2 3.1 0 4.1 0 1.6-0.1 1.8 0.1 3.2 0.2-0.1 0.7-2 1.2-3.3 1.6z"/>
						<path id="&lt;Path&gt;" class="s12" d="m1001.5 637.7c-1.7 0.5-3.1 1.2-3.9 1.9 0.8-0.1 1.6-0.2 2.3-0.1 0.8 0 1 0.2 1.9 0.2 0 0.1 0.2 0.2 0.2 0.3 0.3 0 0.6 0 0.9 0-2.2 0.8-4.9 1.4-6.5 2.3 0.8-0.1 1.6-0.2 2.5-0.1-0.1 0 0 0.1 0 0.2 0.3 0 0.8 0 1.1 0-0.6 0.7-2.7 1.3-3.7 2-1.4 1-2.8 2.1-3.4 3.2-0.7-1.1-2-2.2-3.5-3.2-1-0.7-3.1-1.3-3.6-2 0.3 0 0.8 0 1.1 0-0.1-0.1 0-0.2 0-0.2 0.9-0.1 1.7 0 2.5 0.1-1.6-0.9-4.4-1.5-6.5-2.3 0.3 0 0.6 0 0.9 0 0-0.1 0.2-0.2 0.2-0.3 0.9 0 1.1-0.2 1.8-0.2 0.8-0.1 1.6 0 2.3 0.1-0.7-0.7-2.1-1.4-3.8-1.9-1.2-0.4-3.2-0.9-3.2-1.6 1.3-0.1 1.5-0.3 3.1-0.2 1 0 3.3-0.2 4.1 0 0-0.1 0.3-0.2 0.3-0.3 0.7 0 3.6 0 4.5 0.2 0.8-0.2 3.4-0.2 4.1-0.2 0 0.1 0.3 0.2 0.3 0.3 0.8-0.2 3 0 4.1 0 1.5-0.1 1.8 0.1 3.1 0.2 0 0.7-2 1.2-3.2 1.6z"/>
						<path id="&lt;Path&gt;" class="s12" d="m1031.7 639.7c-1.6 0.5-3 1.1-3.8 1.8 0.8-0.1 1.5-0.1 2.3-0.1 0.7 0.1 1 0.3 1.9 0.3 0 0 0.2 0.1 0.1 0.2 0.4 0 0.7 0.1 1 0.1-2.2 0.7-4.9 1.3-6.5 2.2 0.8 0 1.5-0.1 2.4-0.1 0 0.1 0.1 0.2 0.1 0.2 0.3 0 0.8 0 1.1 0-0.6 0.7-2.7 1.3-3.7 2-1.5 1-2.8 2.2-3.4 3.3-0.7-1.1-2-2.3-3.5-3.3-1-0.7-3.1-1.3-3.6-2 0.3 0 0.7 0 1.1 0-0.1 0 0-0.1 0-0.2 0.9 0 1.6 0.1 2.5 0.1-1.6-0.9-4.4-1.5-6.6-2.2 0.3 0 0.6-0.1 1-0.1 0-0.1 0.2-0.2 0.2-0.2 0.9 0 1.1-0.2 1.8-0.3 0.8 0 1.5 0 2.3 0.1-0.7-0.7-2.2-1.3-3.8-1.8-1.3-0.4-3.3-1-3.3-1.6 1.4-0.1 1.6-0.3 3.1-0.3 1.1 0.1 3.4-0.2 4.1 0 0.1 0 0.4-0.1 0.4-0.2 0.7 0 3.5 0 4.5 0.2 0.8-0.2 3.4-0.2 4.1-0.2 0 0.1 0.3 0.2 0.3 0.2 0.8-0.2 3 0.1 4.1 0 1.5 0 1.8 0.2 3.1 0.3 0 0.6-2 1.2-3.3 1.6z"/>
						<path id="&lt;Path&gt;" class="s12" d="m1043.6 630.3c-1.7 0.5-3.1 1.2-3.8 1.9 0.7-0.1 1.5-0.2 2.2-0.1 0.8 0 1 0.2 1.9 0.2 0 0.1 0.2 0.2 0.2 0.3 0.3 0 0.6 0 0.9 0-2.2 0.8-4.9 1.4-6.5 2.3 0.8-0.1 1.6-0.2 2.5-0.1-0.1 0 0 0.1 0 0.2 0.3 0 0.8 0 1.1 0-0.5 0.7-2.7 1.3-3.6 1.9-1.5 1.1-2.9 2.2-3.5 3.3-0.7-1.1-2-2.2-3.5-3.3-0.9-0.6-3.1-1.2-3.6-1.9 0.3 0 0.8 0 1.1 0 0-0.1 0-0.2 0-0.2 0.9-0.1 1.7 0 2.5 0.1-1.6-0.9-4.3-1.5-6.5-2.3 0.3 0 0.6 0 0.9 0 0-0.1 0.2-0.2 0.2-0.3 0.9 0 1.1-0.2 1.9-0.2 0.7-0.1 1.5 0 2.2 0.1-0.7-0.7-2.1-1.4-3.8-1.9-1.2-0.4-3.2-0.9-3.2-1.6 1.3-0.1 1.6-0.3 3.1-0.2 1 0 3.3-0.2 4.1 0 0-0.1 0.3-0.2 0.3-0.3 0.7 0 3.6 0 4.5 0.2 0.9-0.2 3.4-0.2 4.1-0.2 0 0.1 0.3 0.2 0.3 0.3 0.8-0.2 3 0 4.1 0 1.5-0.1 1.8 0.1 3.1 0.2 0 0.7-2 1.2-3.2 1.6z"/>
						<path id="&lt;Path&gt;" class="s12" d="m989.6 626.9c-1.6 0.6-3 1.2-3.8 1.9 0.8-0.1 1.5-0.1 2.3-0.1 0.7 0.1 0.9 0.3 1.9 0.2 0 0.1 0.1 0.2 0.1 0.3 0.4 0 0.7 0.1 1 0.1-2.2 0.7-4.9 1.3-6.6 2.2 0.9-0.1 1.6-0.1 2.5-0.1 0 0.1 0.1 0.2 0.1 0.2 0.3 0 0.7 0 1 0-0.5 0.7-2.6 1.3-3.6 2-1.5 1-2.8 2.2-3.4 3.3-0.7-1.1-2-2.3-3.5-3.3-1-0.7-3.1-1.3-3.6-2 0.3 0 0.7 0 1 0 0 0 0.1-0.1 0.1-0.2 0.9 0 1.6 0 2.5 0.1-1.7-0.9-4.4-1.5-6.6-2.2 0.3 0 0.6-0.1 1-0.1 0-0.1 0.2-0.2 0.2-0.3 0.9 0.1 1.1-0.1 1.8-0.2 0.8 0 1.5 0 2.3 0.1-0.8-0.7-2.2-1.3-3.8-1.9-1.3-0.4-3.3-0.9-3.3-1.5 1.4-0.2 1.6-0.4 3.1-0.3 1.1 0.1 3.3-0.2 4.1 0 0.1 0 0.4-0.1 0.4-0.2 0.7-0.1 3.5 0 4.5 0.2 0.8-0.2 3.4-0.3 4.1-0.2-0.1 0.1 0.2 0.2 0.3 0.2 0.8-0.2 3 0.1 4.1 0 1.5-0.1 1.7 0.1 3.1 0.3 0 0.6-2 1.1-3.3 1.5z"/>
						<path id="&lt;Path&gt;" class="s12" d="m945.2 625.7c-1.6 0.6-3.1 1.2-3.8 1.9 0.8-0.1 1.5-0.1 2.3-0.1 0.7 0.1 0.9 0.3 1.8 0.2 0 0.1 0.2 0.2 0.2 0.3 0.4 0 0.7 0.1 1 0.1-2.2 0.7-5 1.3-6.6 2.2 0.9-0.1 1.6-0.1 2.5-0.1 0 0.1 0.1 0.2 0 0.2 0.4 0 0.8 0 1.1 0-0.5 0.7-2.6 1.3-3.6 2-1.5 1-2.8 2.2-3.5 3.3-0.6-1.1-1.9-2.3-3.4-3.3-1-0.7-3.1-1.3-3.7-2 0.3 0 0.8 0 1.1 0 0 0 0.1-0.1 0.1-0.2 0.8 0 1.6 0 2.4 0.1-1.6-0.9-4.3-1.5-6.5-2.2 0.3 0 0.6-0.1 1-0.1-0.1-0.1 0.1-0.2 0.1-0.3 0.9 0.1 1.1-0.1 1.9-0.2 0.8 0 1.5 0 2.3 0.1-0.8-0.7-2.2-1.3-3.8-1.9-1.3-0.4-3.3-0.9-3.3-1.5 1.3-0.1 1.6-0.4 3.1-0.3 1.1 0.1 3.3-0.2 4.1 0 0 0 0.3-0.1 0.3-0.2 0.7-0.1 3.6 0 4.5 0.2 0.9-0.2 3.4-0.3 4.1-0.2 0 0.1 0.3 0.2 0.4 0.2 0.7-0.2 3 0.1 4 0 1.6-0.1 1.8 0.2 3.2 0.3 0 0.6-2 1.1-3.3 1.5z"/>
						<path id="&lt;Path&gt;" class="s13" d="m743.7 603.1c-3.2 1-6 2.2-7.5 3.6 1.5-0.2 3-0.3 4.5-0.2 1.4 0.1 1.8 0.5 3.6 0.5 0 0.1 0.4 0.3 0.4 0.5 0.6 0 1.2 0.1 1.8 0.1-4.3 1.4-9.6 2.6-12.7 4.4 1.6-0.2 3.1-0.3 4.8-0.2 0 0.1 0.1 0.3 0.1 0.4 0.6-0.1 1.5 0 2.1-0.1-1.1 1.4-5.2 2.6-7.1 3.9-2.9 2-5.5 4.2-6.7 6.4-1.3-2.2-3.9-4.4-6.8-6.4-1.9-1.3-6-2.5-7.1-3.9 0.6 0.1 1.5 0 2.1 0.1 0-0.1 0.2-0.3 0.1-0.4 1.7-0.1 3.2 0 4.8 0.2-3.1-1.8-8.4-3-12.7-4.4 0.6 0 1.2-0.1 1.9-0.1-0.1-0.2 0.3-0.4 0.3-0.5 1.8 0 2.2-0.4 3.6-0.5 1.5-0.1 3 0 4.5 0.2-1.5-1.4-4.3-2.6-7.5-3.6-2.4-0.8-6.3-1.8-6.3-3.1 2.6-0.2 3.1-0.6 6.1-0.5 2.1 0.1 6.4-0.4 7.9 0 0.1-0.1 0.7-0.3 0.7-0.5 1.3 0 6.9 0 8.7 0.4 1.7-0.4 6.7-0.4 8-0.4 0 0.2 0.6 0.4 0.7 0.5 1.5-0.4 5.9 0.1 7.9 0 3-0.1 3.5 0.3 6.1 0.5 0 1.3-3.9 2.3-6.3 3.1z"/>
						<path id="&lt;Path&gt;" class="s14" d="m818.4 607.3c-3.2 1-6 2.2-7.5 3.7 1.5-0.2 3-0.4 4.5-0.3 1.4 0.2 1.8 0.5 3.6 0.5 0 0.2 0.4 0.3 0.4 0.5 0.6 0 1.2 0.1 1.8 0.1-4.3 1.4-9.6 2.6-12.7 4.4 1.6-0.1 3.1-0.3 4.8-0.2 0 0.1 0.1 0.3 0.1 0.4 0.6-0.1 1.5 0 2.1 0-1.1 1.3-5.2 2.5-7.1 3.8-2.9 2-5.5 4.2-6.7 6.4-1.3-2.2-3.9-4.4-6.8-6.4-1.9-1.3-6-2.5-7.1-3.8 0.6 0 1.5-0.1 2.1 0 0-0.1 0.2-0.3 0.1-0.4 1.7-0.1 3.2 0.1 4.8 0.2-3.1-1.8-8.4-3-12.7-4.4 0.6 0 1.2-0.1 1.9-0.1-0.1-0.2 0.3-0.3 0.3-0.5 1.8 0 2.2-0.3 3.6-0.5 1.5-0.1 3 0.1 4.5 0.3-1.5-1.5-4.3-2.7-7.5-3.7-2.4-0.8-6.3-1.8-6.3-3.1 2.6-0.2 3.1-0.6 6.1-0.5 2.1 0.1 6.4-0.3 7.9 0 0.1-0.1 0.7-0.3 0.7-0.5 1.3 0 6.9 0 8.7 0.4 1.7-0.4 6.7-0.4 8-0.4 0 0.2 0.6 0.4 0.7 0.5 1.5-0.3 5.9 0.1 7.9 0 3-0.1 3.5 0.3 6.1 0.5 0 1.3-3.9 2.3-6.3 3.1z"/>
						<path id="&lt;Path&gt;" class="s14" d="m933.7 605.9c-3.2 1-5.9 2.2-7.4 3.7 1.5-0.3 3-0.4 4.5-0.3 1.4 0.2 1.8 0.5 3.6 0.5 0 0.2 0.4 0.3 0.3 0.5 0.7 0 1.3 0.1 1.9 0.1-4.3 1.4-9.6 2.6-12.8 4.4 1.7-0.2 3.1-0.3 4.9-0.2-0.1 0.1 0.1 0.3 0.1 0.4 0.5-0.1 1.5 0 2.1-0.1-1.1 1.4-5.2 2.6-7.1 3.9-2.9 2-5.5 4.2-6.8 6.4-1.2-2.2-3.8-4.4-6.7-6.4-1.9-1.3-6-2.5-7.1-3.9 0.6 0.1 1.5 0 2.1 0.1 0-0.1 0.1-0.3 0.1-0.4 1.7-0.1 3.2 0 4.8 0.2-3.1-1.8-8.4-3-12.7-4.4 0.6 0 1.2-0.1 1.8-0.1 0-0.2 0.4-0.3 0.4-0.5 1.8 0 2.2-0.3 3.6-0.5 1.5-0.1 3 0 4.5 0.3-1.5-1.5-4.3-2.7-7.5-3.7-2.4-0.8-6.3-1.8-6.3-3.1 2.6-0.2 3.1-0.6 6.1-0.5 2 0.1 6.4-0.3 7.9 0 0.1-0.1 0.7-0.3 0.7-0.5 1.3 0 6.9 0 8.7 0.4 1.7-0.4 6.7-0.4 8-0.4 0 0.2 0.6 0.4 0.6 0.5 1.6-0.3 5.9 0.1 8 0 3-0.1 3.5 0.3 6.1 0.5 0 1.3-3.9 2.3-6.4 3.1z"/>
						<path id="&lt;Path&gt;" class="s14" d="m972.5 620.5c-2.5 0.8-4.8 1.8-5.9 2.9 1.2-0.1 2.3-0.2 3.5-0.1 1.2 0.1 1.5 0.4 2.9 0.3 0 0.2 0.3 0.3 0.3 0.4 0.6 0 1 0.1 1.5 0.1-3.4 1.2-7.7 2.1-10.2 3.5 1.3-0.1 2.5-0.2 3.9-0.1-0.1 0.1 0.1 0.2 0 0.3 0.5 0 1.2 0 1.7 0-0.8 1-4.1 2-5.7 3.1-2.3 1.5-4.3 3.3-5.4 5.1-1-1.8-3-3.6-5.4-5.1-1.5-1.1-4.8-2.1-5.6-3.1 0.5 0 1.2 0 1.7 0-0.1-0.1 0.1-0.2 0-0.3 1.4-0.1 2.6 0 3.9 0.1-2.5-1.4-6.8-2.3-10.2-3.5 0.5 0 0.9-0.1 1.5-0.1 0-0.1 0.3-0.2 0.3-0.4 1.4 0.1 1.7-0.2 2.9-0.3 1.2-0.1 2.3 0 3.5 0.1-1.1-1.1-3.4-2.1-5.9-2.9-2-0.6-5.1-1.4-5.1-2.4 2.1-0.2 2.5-0.6 4.9-0.5 1.6 0.1 5.1-0.2 6.3 0.1 0.1-0.1 0.6-0.3 0.5-0.5 1.1 0 5.6 0.1 7.1 0.4 1.3-0.3 5.3-0.4 6.3-0.4 0 0.2 0.5 0.4 0.6 0.5 1.2-0.3 4.7 0 6.3-0.1 2.4-0.1 2.8 0.3 4.9 0.5 0 1-3.1 1.8-5.1 2.4z"/>
						<path id="&lt;Path&gt;" class="s14" d="m1018.1 628.1c-2.6 0.8-4.8 1.8-6 3 1.2-0.2 2.4-0.3 3.6-0.2 1.2 0.1 1.5 0.4 2.9 0.3 0 0.2 0.3 0.3 0.3 0.4 0.5 0 1 0.1 1.4 0.2-3.4 1.1-7.6 2-10.1 3.5 1.3-0.2 2.4-0.3 3.8-0.2 0 0.1 0.1 0.2 0.1 0.3 0.5 0 1.2 0 1.7 0-0.9 1.1-4.2 2-5.7 3.1-2.3 1.5-4.4 3.3-5.4 5.1-1-1.8-3.1-3.6-5.4-5.1-1.5-1.1-4.8-2-5.6-3.1 0.4 0 1.2 0 1.6 0 0-0.1 0.1-0.2 0.1-0.3 1.4-0.1 2.6 0 3.9 0.2-2.6-1.5-6.8-2.4-10.2-3.5 0.5-0.1 0.9-0.2 1.5-0.2-0.1-0.1 0.2-0.2 0.2-0.4 1.5 0.1 1.8-0.2 2.9-0.3 1.2-0.1 2.4 0 3.6 0.2-1.2-1.2-3.4-2.2-6-3-1.9-0.6-5-1.4-5-2.4 2.1-0.2 2.5-0.6 4.8-0.4 1.7 0 5.2-0.3 6.4 0 0.1-0.1 0.5-0.3 0.5-0.4 1.1-0.1 5.6 0 7 0.3 1.4-0.3 5.3-0.4 6.4-0.3 0 0.1 0.5 0.3 0.5 0.4 1.2-0.3 4.7 0 6.4 0 2.4-0.2 2.8 0.2 4.9 0.4-0.1 1-3.2 1.8-5.1 2.4z"/>
						<path id="&lt;Path&gt;" class="s14" d="m1000.9 611.5c-2.5 0.8-4.7 1.8-5.9 2.9 1.2-0.2 2.3-0.3 3.5-0.2 1.2 0.1 1.5 0.4 2.9 0.4 0 0.1 0.3 0.3 0.3 0.4 0.6 0 1 0.1 1.5 0.1-3.4 1.1-7.7 2.1-10.2 3.5 1.3-0.1 2.5-0.2 3.9-0.2-0.1 0.1 0.1 0.3 0 0.4 0.5-0.1 1.3 0 1.7-0.1-0.8 1.1-4.1 2.1-5.6 3.1-2.3 1.6-4.4 3.4-5.4 5.1-1-1.7-3.1-3.5-5.4-5.1-1.6-1-4.9-2-5.7-3.1 0.5 0.1 1.2 0 1.7 0.1-0.1-0.1 0.1-0.3 0-0.4 1.4 0 2.6 0.1 3.9 0.2-2.5-1.4-6.8-2.4-10.2-3.5 0.5 0 1-0.1 1.5-0.1 0-0.1 0.3-0.3 0.3-0.4 1.4 0 1.7-0.3 2.9-0.4 1.2-0.1 2.4 0 3.5 0.2-1.1-1.1-3.3-2.1-5.9-2.9-2-0.7-5.1-1.5-5.1-2.5 2.1-0.2 2.5-0.5 4.9-0.4 1.6 0.1 5.1-0.3 6.4 0 0-0.1 0.5-0.2 0.5-0.4 1.1 0 5.5 0 7 0.4 1.3-0.4 5.3-0.4 6.4-0.4 0 0.2 0.4 0.3 0.5 0.4 1.2-0.3 4.7 0.1 6.4 0 2.3-0.1 2.7 0.2 4.8 0.4 0 1-3.1 1.8-5.1 2.5z"/>
						<path id="&lt;Path&gt;" class="s14" d="m1059.3 610.5c-3.4 1.1-6.3 2.4-7.9 3.9 1.6-0.2 3.1-0.3 4.7-0.2 1.5 0.1 2 0.5 3.8 0.4 0 0.2 0.4 0.4 0.4 0.6 0.7 0 1.3 0.1 2 0.1-4.5 1.5-10.2 2.8-13.5 4.7 1.7-0.2 3.3-0.4 5.1-0.3 0 0.2 0.2 0.3 0.1 0.5 0.6-0.1 1.6 0 2.2-0.1-1.1 1.4-5.5 2.8-7.5 4.1-3 2.1-5.8 4.5-7.1 6.7-1.3-2.2-4.1-4.6-7.1-6.7-2-1.3-6.4-2.7-7.5-4.1 0.6 0.1 1.6 0 2.2 0.1 0-0.2 0.2-0.3 0.1-0.5 1.8-0.1 3.4 0.1 5.1 0.3-3.3-1.9-8.9-3.2-13.4-4.7 0.6 0 1.2-0.1 1.9-0.1 0-0.2 0.4-0.4 0.4-0.6 1.9 0.1 2.3-0.3 3.8-0.4 1.6-0.1 3.1 0 4.7 0.2-1.5-1.5-4.5-2.8-7.9-3.9-2.5-0.8-6.6-1.9-6.7-3.2 2.8-0.3 3.3-0.7 6.5-0.5 2.2 0.1 6.8-0.4 8.4 0 0.1-0.1 0.7-0.3 0.7-0.6 1.4 0 7.3 0.1 9.2 0.5 1.8-0.4 7-0.5 8.5-0.5-0.1 0.3 0.6 0.5 0.6 0.6 1.6-0.4 6.3 0.1 8.4 0 3.2-0.2 3.7 0.2 6.5 0.5-0.1 1.3-4.1 2.4-6.7 3.2z"/>
						<path id="&lt;Path&gt;" class="s14" d="m1073.4 629.5c-2.5 0.8-4.8 1.8-5.9 3 1.2-0.2 2.3-0.3 3.5-0.2 1.2 0.1 1.5 0.4 2.9 0.3 0 0.2 0.3 0.3 0.3 0.5 0.6-0.1 1 0.1 1.5 0.1-3.4 1.1-7.7 2-10.2 3.5 1.3-0.2 2.5-0.3 3.9-0.2-0.1 0.1 0.1 0.2 0 0.3 0.5 0 1.2 0 1.7 0-0.8 1.1-4.1 2-5.6 3.1-2.4 1.6-4.4 3.4-5.4 5.1-1.1-1.7-3.1-3.5-5.4-5.1-1.6-1.1-4.9-2-5.7-3.1 0.5 0 1.2 0 1.7 0-0.1-0.1 0.1-0.2 0-0.3 1.4-0.1 2.6 0 3.9 0.2-2.5-1.5-6.8-2.4-10.2-3.5 0.5 0 0.9-0.2 1.5-0.1 0-0.2 0.3-0.3 0.3-0.5 1.4 0.1 1.7-0.2 2.9-0.3 1.2-0.1 2.3 0 3.5 0.2-1.1-1.2-3.4-2.2-5.9-3-2-0.6-5.1-1.4-5.1-2.4 2.1-0.2 2.5-0.5 4.9-0.4 1.6 0.1 5.1-0.3 6.3 0 0.1-0.1 0.6-0.2 0.6-0.4 1-0.1 5.5 0 7 0.3 1.3-0.3 5.3-0.4 6.4-0.3-0.1 0.2 0.4 0.3 0.5 0.4 1.2-0.3 4.7 0.1 6.3 0 2.4-0.1 2.8 0.2 4.9 0.4 0 1-3.1 1.8-5.1 2.4z"/>
						<path id="&lt;Path&gt;" class="s13" d="m794.6 606.4c-3.6 1.1-6.7 2.5-8.4 4.1 1.7-0.2 3.3-0.4 5-0.3 1.6 0.2 2.1 0.6 4.1 0.5 0 0.2 0.4 0.4 0.4 0.6 0.7 0 1.3 0.1 2 0.2-4.8 1.5-10.7 2.8-14.2 4.9 1.8-0.2 3.4-0.4 5.4-0.3-0.1 0.2 0.1 0.4 0.1 0.5 0.6-0.1 1.7 0 2.3-0.1-1.1 1.5-5.8 2.9-7.9 4.4-3.2 2.2-6.2 4.7-7.6 7.1-1.4-2.4-4.3-4.9-7.5-7.1-2.2-1.5-6.8-2.9-7.9-4.4 0.6 0.1 1.6 0 2.3 0.1-0.1-0.1 0.1-0.3 0.1-0.5 1.9-0.1 3.6 0.1 5.4 0.3-3.5-2.1-9.5-3.4-14.2-4.9 0.6-0.1 1.2-0.2 2-0.2 0-0.2 0.4-0.4 0.4-0.6 2 0.1 2.4-0.3 4.1-0.5 1.7-0.1 3.3 0.1 4.9 0.3-1.6-1.6-4.7-3-8.3-4.1-2.7-0.9-7.1-2-7.1-3.4 2.9-0.3 3.5-0.8 6.8-0.6 2.3 0.1 7.2-0.4 8.9 0 0.1-0.1 0.8-0.3 0.8-0.6 1.5 0 7.7 0 9.8 0.5 1.8-0.5 7.4-0.5 8.9-0.5 0 0.3 0.7 0.5 0.7 0.6 1.7-0.4 6.6 0.1 8.9 0 3.4-0.2 3.9 0.3 6.9 0.6-0.1 1.4-4.4 2.5-7.1 3.4z"/>
						<path id="&lt;Path&gt;" class="s13" d="m678.5 604.2c-2.7 0.9-5.1 1.9-6.3 3.1 1.2-0.2 2.5-0.3 3.8-0.2 1.2 0.1 1.5 0.5 3 0.4 0 0.2 0.4 0.3 0.3 0.5 0.6-0.1 1.1 0.1 1.6 0.1-3.6 1.2-8.1 2.2-10.8 3.7 1.4-0.1 2.6-0.3 4.1-0.2 0 0.1 0.1 0.3 0.1 0.4 0.5-0.1 1.2 0 1.7-0.1-0.8 1.2-4.4 2.2-6 3.3-2.4 1.7-4.6 3.6-5.7 5.4-1.1-1.8-3.3-3.7-5.8-5.4-1.6-1.1-5.1-2.1-6-3.3 0.5 0.1 1.3 0 1.8 0.1 0-0.1 0.1-0.3 0.1-0.4 1.4-0.1 2.7 0.1 4.1 0.2-2.7-1.5-7.2-2.5-10.8-3.7 0.5 0 0.9-0.2 1.5-0.1 0-0.2 0.3-0.3 0.3-0.5 1.5 0.1 1.9-0.3 3.1-0.4 1.3-0.1 2.5 0 3.8 0.2-1.3-1.2-3.6-2.2-6.3-3.1-2.1-0.7-5.4-1.5-5.4-2.6 2.2-0.2 2.6-0.6 5.1-0.4 1.8 0 5.5-0.3 6.8 0 0.1-0.1 0.6-0.3 0.6-0.5 1.1 0 5.9 0.1 7.4 0.4 1.4-0.3 5.7-0.4 6.8-0.4 0 0.2 0.5 0.4 0.5 0.5 1.3-0.3 5.1 0 6.8 0 2.6-0.2 3 0.2 5.2 0.4 0 1.1-3.3 1.9-5.4 2.6z"/>
						<path id="&lt;Path&gt;" class="s14" d="m873.3 608.4c-2.7 0.9-5.1 1.9-6.3 3.2 1.3-0.2 2.5-0.3 3.8-0.2 1.2 0.1 1.6 0.4 3.1 0.3 0 0.2 0.3 0.3 0.3 0.5 0.6 0 1 0.1 1.5 0.1-3.6 1.2-8.1 2.2-10.8 3.7 1.4-0.1 2.6-0.2 4.1-0.2 0 0.1 0.1 0.3 0.1 0.4 0.5-0.1 1.3 0 1.8-0.1-0.9 1.2-4.4 2.2-6 3.3-2.5 1.7-4.7 3.6-5.8 5.5-1.1-1.9-3.3-3.8-5.7-5.5-1.6-1.1-5.2-2.1-6.1-3.3 0.5 0.1 1.3 0 1.8 0.1 0-0.1 0.1-0.3 0.1-0.4 1.5 0 2.7 0.1 4.1 0.2-2.7-1.5-7.2-2.5-10.8-3.7 0.5 0 1-0.1 1.5-0.1 0-0.2 0.3-0.3 0.3-0.5 1.6 0.1 1.9-0.2 3.1-0.3 1.3-0.1 2.5 0 3.8 0.2-1.2-1.3-3.6-2.3-6.3-3.2-2.1-0.7-5.4-1.5-5.4-2.6 2.2-0.2 2.6-0.5 5.2-0.4 1.7 0.1 5.4-0.3 6.7 0 0.1-0.1 0.6-0.3 0.6-0.4 1.1-0.1 5.9 0 7.4 0.3 1.5-0.3 5.7-0.4 6.8-0.3 0 0.1 0.5 0.3 0.6 0.4 1.3-0.3 5 0.1 6.8 0 2.5-0.1 2.9 0.2 5.1 0.4 0 1.1-3.3 1.9-5.4 2.6z"/>
						<path id="&lt;Path&gt;" class="s13" d="m905 605c-3.6 1.1-6.7 2.5-8.4 4.1 1.7-0.3 3.3-0.4 5-0.3 1.7 0.2 2.1 0.6 4.1 0.5 0 0.2 0.4 0.4 0.4 0.6 0.7 0 1.4 0.1 2 0.2-4.7 1.5-10.7 2.8-14.2 4.9 1.8-0.2 3.5-0.4 5.4-0.3-0.1 0.2 0.1 0.3 0.1 0.5 0.6-0.1 1.7 0 2.3-0.1-1.1 1.5-5.8 2.9-7.9 4.4-3.2 2.2-6.1 4.7-7.5 7.1-1.5-2.4-4.4-4.9-7.6-7.1-2.1-1.5-6.8-2.9-7.9-4.4 0.6 0.1 1.7 0 2.3 0.1 0-0.2 0.2-0.3 0.1-0.5 2-0.1 3.6 0.1 5.4 0.3-3.5-2.1-9.5-3.4-14.2-4.9 0.6-0.1 1.3-0.2 2-0.2 0-0.2 0.4-0.4 0.4-0.6 2 0.1 2.5-0.3 4.1-0.5 1.7-0.1 3.3 0 5 0.3-1.7-1.6-4.8-3-8.4-4.1-2.7-0.9-7-2-7.1-3.4 3-0.3 3.5-0.8 6.8-0.6 2.4 0.1 7.3-0.4 9 0 0-0.1 0.7-0.3 0.7-0.6 1.5 0 7.8 0 9.8 0.5 1.9-0.5 7.4-0.5 8.9-0.5 0 0.3 0.7 0.5 0.7 0.6 1.8-0.4 6.6 0.1 9 0 3.3-0.2 3.9 0.3 6.8 0.6 0 1.4-4.4 2.5-7.1 3.4z"/>
						<path id="&lt;Path&gt;" class="s13" d="m967.6 603.6c-3.6 1.1-6.7 2.5-8.3 4.1 1.7-0.3 3.3-0.4 5-0.3 1.6 0.2 2.1 0.6 4 0.5 0 0.2 0.5 0.4 0.4 0.6 0.8 0 1.4 0.1 2.1 0.2-4.8 1.5-10.7 2.8-14.3 4.9 1.9-0.2 3.5-0.4 5.5-0.3-0.1 0.1 0.1 0.3 0 0.5 0.7-0.1 1.7 0 2.4-0.1-1.2 1.5-5.8 2.9-7.9 4.4-3.3 2.2-6.2 4.7-7.6 7.1-1.4-2.4-4.3-4.9-7.5-7.1-2.2-1.5-6.8-2.9-8-4.4 0.7 0.1 1.7 0 2.4 0.1-0.1-0.2 0.1-0.4 0.1-0.5 1.9-0.1 3.6 0.1 5.4 0.3-3.5-2.1-9.5-3.4-14.3-4.9 0.7-0.1 1.3-0.2 2.1-0.2 0-0.2 0.4-0.4 0.4-0.6 2 0.1 2.4-0.3 4-0.5 1.7-0.1 3.4 0 5 0.3-1.6-1.6-4.7-3-8.3-4.1-2.8-0.9-7.1-2.1-7.1-3.4 2.9-0.3 3.5-0.8 6.8-0.6 2.3 0.1 7.2-0.4 8.9 0 0.1-0.1 0.7-0.3 0.7-0.6 1.6 0 7.8 0 9.9 0.5 1.8-0.5 7.4-0.5 8.9-0.5 0 0.3 0.6 0.5 0.7 0.6 1.7-0.4 6.6 0.1 8.9 0 3.4-0.2 3.9 0.3 6.8 0.6 0 1.3-4.3 2.5-7.1 3.4z"/>
						<path id="&lt;Path&gt;" class="s13" d="m1033.6 603.6c-3.6 1.1-6.7 2.5-8.3 4.1 1.7-0.3 3.3-0.4 5-0.3 1.6 0.2 2.1 0.6 4 0.5 0 0.2 0.5 0.4 0.4 0.6 0.8 0 1.4 0.1 2.1 0.2-4.8 1.5-10.7 2.8-14.3 4.9 1.9-0.2 3.5-0.4 5.5-0.3-0.1 0.1 0.1 0.3 0 0.5 0.7-0.1 1.7 0 2.4-0.1-1.2 1.5-5.8 2.9-7.9 4.4-3.3 2.2-6.2 4.7-7.6 7.1-1.4-2.4-4.3-4.9-7.5-7.1-2.2-1.5-6.8-2.9-8-4.4 0.7 0.1 1.7 0 2.4 0.1-0.1-0.2 0.1-0.4 0.1-0.5 1.9-0.1 3.5 0.1 5.4 0.3-3.5-2.1-9.5-3.4-14.3-4.9 0.7-0.1 1.3-0.2 2.1-0.2 0-0.2 0.4-0.4 0.4-0.6 2 0.1 2.4-0.3 4-0.5 1.7-0.1 3.3 0 5 0.3-1.6-1.6-4.7-3-8.3-4.1-2.8-0.9-7.1-2.1-7.1-3.4 2.9-0.3 3.5-0.8 6.8-0.6 2.3 0.1 7.2-0.4 8.9 0 0.1-0.1 0.7-0.3 0.7-0.6 1.5 0 7.8 0 9.8 0.5 1.9-0.5 7.5-0.5 9-0.5 0 0.3 0.6 0.5 0.7 0.6 1.7-0.4 6.6 0.1 8.9 0 3.3-0.2 3.9 0.3 6.8 0.6 0 1.3-4.3 2.5-7.1 3.4z"/>
						<path id="&lt;Path&gt;" class="s13" d="m1096.8 605c-3.6 1.1-6.7 2.5-8.4 4.1 1.7-0.3 3.3-0.4 5-0.3 1.6 0.2 2.1 0.6 4.1 0.5 0 0.2 0.4 0.4 0.4 0.6 0.7 0 1.4 0.1 2 0.2-4.7 1.5-10.7 2.8-14.2 4.9 1.8-0.2 3.4-0.4 5.4-0.3-0.1 0.2 0.1 0.3 0.1 0.5 0.6-0.1 1.7 0 2.3-0.1-1.1 1.5-5.8 2.9-7.9 4.4-3.2 2.2-6.1 4.7-7.6 7.1-1.4-2.4-4.3-4.9-7.5-7.1-2.1-1.5-6.8-2.9-7.9-4.4 0.6 0.1 1.7 0 2.3 0.1 0-0.2 0.2-0.3 0.1-0.5 1.9-0.1 3.6 0.1 5.4 0.3-3.5-2.1-9.5-3.4-14.2-4.9 0.6-0.1 1.3-0.2 2-0.2 0-0.2 0.4-0.4 0.4-0.6 2 0.1 2.5-0.3 4.1-0.5 1.7-0.1 3.3 0 5 0.3-1.7-1.6-4.8-3-8.4-4.1-2.7-0.9-7-2-7.1-3.4 2.9-0.3 3.5-0.8 6.8-0.6 2.4 0.1 7.2-0.4 9 0 0-0.1 0.7-0.3 0.7-0.6 1.5 0 7.8 0 9.8 0.5 1.9-0.5 7.4-0.5 8.9-0.5 0 0.3 0.7 0.5 0.7 0.6 1.7-0.4 6.6 0.1 9 0 3.3-0.2 3.9 0.3 6.8 0.6-0.1 1.4-4.4 2.5-7.1 3.4z"/>
						<path id="&lt;Path&gt;" class="s13" d="m852 605c-3.6 1.1-6.7 2.5-8.3 4.1 1.6-0.3 3.3-0.4 5-0.3 1.6 0.2 2 0.6 4 0.5 0 0.2 0.4 0.4 0.4 0.6 0.8 0 1.4 0.1 2.1 0.2-4.8 1.5-10.8 2.8-14.3 4.9 1.8-0.2 3.5-0.4 5.4-0.3 0 0.2 0.2 0.3 0.1 0.5 0.7-0.1 1.7 0 2.4-0.1-1.2 1.5-5.8 2.9-8 4.4-3.2 2.2-6.1 4.7-7.5 7.1-1.4-2.4-4.3-4.9-7.6-7.1-2.1-1.5-6.7-2.9-7.9-4.4 0.7 0.1 1.7 0 2.4 0.1-0.1-0.2 0.1-0.3 0-0.5 2-0.1 3.6 0.1 5.5 0.3-3.6-2.1-9.5-3.4-14.3-4.9 0.7-0.1 1.3-0.2 2.1-0.2-0.1-0.2 0.4-0.4 0.4-0.6 1.9 0.1 2.4-0.3 4-0.5 1.7-0.1 3.3 0 5 0.3-1.6-1.6-4.7-3-8.3-4.1-2.8-0.9-7.1-2-7.1-3.4 2.9-0.3 3.4-0.8 6.8-0.6 2.3 0.1 7.2-0.4 8.9 0 0.1-0.1 0.7-0.3 0.7-0.6 1.5 0 7.8 0 9.8 0.5 1.9-0.5 7.4-0.5 9-0.5 0 0.3 0.6 0.5 0.7 0.6 1.7-0.4 6.6 0.1 8.9 0 3.3-0.2 3.9 0.3 6.8 0.6 0 1.4-4.3 2.5-7.1 3.4z"/>
					</g>
				</g>
				<g id="&lt;Group&gt;">
					<g id="&lt;Group&gt;">
						<path id="&lt;Path&gt;" class="s9" d="m1212.5 796.7c-7.6 0.3-17.2 1.2-24.9 1.2h-157.4c6.6-13 23.5-21.1 37.2-30.5 5.2-3.6 10-7.3 13.5-11.6 8.7-10.7 7.6-17.5 23-20.6 3-0.6 5.8-0.8 8.5-0.8 5.7 0 10.9 1.4 16.8 4 9.8 4.3 17 10.5 25 17.5 8.4 7.4 17.9 12 27.2 18.2 11.3 7.6 19.2 16.6 31.1 22.6z"/>
						<path id="&lt;Path&gt;" class="s8" d="m1112.4 734.4c-7.8 11.4-13.7 27.8-17.6 35.9-6.1 12.7-18 13.8-26.2 23.9 0.2-8.5-1-17.8-1.2-26.8 5.2-3.6 10-7.3 13.5-11.6 8.7-10.7 7.6-17.5 23-20.6 3-0.6 5.8-0.8 8.5-0.8z"/>
					</g>
					<g id="&lt;Group&gt;" style="opacity: .22">
						<path id="&lt;Path&gt;" class="s15" d="m1212.5 798.3c-7.6-0.2-17.2-0.7-24.9-0.7h-157.4c6.6 8.3 23.5 13.5 37.2 19.5 5.2 2.3 10 4.7 13.5 7.5 8.7 6.9 7.6 11.2 23 13.1 3 0.4 5.8 0.6 8.5 0.6 5.7 0 10.9-0.9 16.8-2.6 9.8-2.8 17-6.7 25-11.2 8.4-4.8 17.9-7.7 27.2-11.7 11.3-4.8 19.2-10.6 31.1-14.5z"/>
						<path id="&lt;Path&gt;" class="s16" d="m1112.4 838.3c-7.8-7.3-13.7-17.8-17.6-23-6.1-8.2-18-8.9-26.2-15.3 0.2 5.4-1 11.4-1.2 17.1 5.2 2.3 10 4.7 13.5 7.5 8.7 6.9 7.6 11.2 23 13.1 3 0.4 5.8 0.6 8.5 0.6z"/>
					</g>
				</g>
				<g id="&lt;Group&gt;">
					<g id="&lt;Group&gt;" style="opacity: .68">
						<g id="&lt;Group&gt;">
							<path id="&lt;Path&gt;" class="s17" d="m142.1 761.8c47.4 0.1 95.1 1.7 142.5-0.5 1-0.1 1-1.5 0-1.5-47.4-2.2-95.1-0.6-142.5-0.5-1.6 0-1.6 2.5 0 2.5z"/>
						</g>
					</g>
					<g id="&lt;Group&gt;" style="opacity: .68">
						<g id="&lt;Group&gt;">
							<path id="&lt;Path&gt;" class="s17" d="m334.2 761.6c12.3 0.1 24.8 0.8 37.2-0.2 1.1-0.1 1.1-1.7 0-1.7-12.4-1-24.9-0.3-37.2-0.3-1.4 0.1-1.4 2.2 0 2.2z"/>
						</g>
					</g>
					<g id="&lt;Group&gt;" style="opacity: .68">
						<g id="&lt;Group&gt;">
							<path id="&lt;Path&gt;" class="s17" d="m318.7 796.3c31.5 1.2 63 1.2 94.5 1.3 31.4 0 63.1 0.9 94.5-0.6 1.3-0.1 1.3-2.1 0-2.1-31.4-1.5-63.1-0.7-94.5-0.6-31.5 0-63 0.1-94.5 1.2-0.5 0.1-0.5 0.8 0 0.8z"/>
						</g>
					</g>
					<g id="&lt;Group&gt;" style="opacity: .68">
						<g id="&lt;Group&gt;">
							<path id="&lt;Path&gt;" class="s17" d="m513.9 767.3c7.2 0 14.4-0.2 21.7-0.7 1.2-0.1 1.2-1.9 0-2-7.3-0.5-14.5-0.7-21.7-0.7-2.3-0.1-2.3 3.4 0 3.4z"/>
						</g>
					</g>
					<g id="&lt;Group&gt;" style="opacity: .68">
						<g id="&lt;Group&gt;">
							<path id="&lt;Path&gt;" class="s17" d="m680.4 764.3c28.4 0.2 56.9 1.3 85.3 0.4 2.1-0.1 2.1-3.1 0-3.2-28.4-0.9-56.9 0.1-85.3 0.4-1.6 0-1.6 2.4 0 2.4z"/>
						</g>
					</g>
					<g id="&lt;Group&gt;" style="opacity: .68">
						<g id="&lt;Group&gt;">
							<path id="&lt;Path&gt;" class="s17" d="m806.1 758.4c6.5 0.1 14.1 1.4 20.5 0.1 0.9-0.2 0.9-1.7 0-1.8-6.4-1.4-14-0.1-20.5 0.1-1 0-1 1.6 0 1.6z"/>
						</g>
					</g>
					<g id="&lt;Group&gt;" style="opacity: .68">
						<g id="&lt;Group&gt;">
							<path id="&lt;Path&gt;" class="s17" d="m1118.1 725.8c10.5 0.1 21 0.5 31.5 0 1.5-0.1 1.5-2.3 0-2.3-10.5-0.5-21-0.1-31.5 0-1.4 0-1.4 2.2 0 2.3z"/>
						</g>
					</g>
					<g id="&lt;Group&gt;" style="opacity: .68">
						<g id="&lt;Group&gt;">
							<path id="&lt;Path&gt;" class="s17" d="m1322.4 728.2c17.2 0 34.4 0.1 51.6-0.2 2 0 2.1-3.1 0-3.1-17.2-0.3-34.4-0.1-51.6-0.1-2.2 0-2.2 3.4 0 3.4z"/>
						</g>
					</g>
					<g id="&lt;Group&gt;" style="opacity: .68">
						<g id="&lt;Group&gt;">
							<path id="&lt;Path&gt;" class="s17" d="m1282 744c50.1 0.5 100.3 0.2 150.4-0.1 1.2 0 1.2-1.9 0-1.9-50.1-0.3-100.3-0.6-150.4-0.2-1.4 0.1-1.4 2.2 0 2.2z"/>
						</g>
					</g>
					<g id="&lt;Group&gt;" style="opacity: .68">
						<g id="&lt;Group&gt;">
							<path id="&lt;Path&gt;" class="s17" d="m1445.9 763.5c5.9 0.1 12 0.6 17.9 0.3 0.9-0.1 0.9-1.3 0-1.4-5.9-0.4-12 0.1-17.9 0.3-0.6 0-0.6 0.8 0 0.8z"/>
						</g>
					</g>
					<g id="&lt;Group&gt;" style="opacity: .68">
						<g id="&lt;Group&gt;">
							<path id="&lt;Path&gt;" class="s17" d="m1457.1 945c-93.4-3.1-187.2-1-280.6-0.1-1.5 0.1-1.5 2.4 0 2.4 93.4 0.9 187.2 3.1 280.6-0.1 1.4 0 1.4-2.1 0-2.2z"/>
						</g>
					</g>
					<g id="&lt;Group&gt;" style="opacity: .68">
						<g id="&lt;Group&gt;">
							<path id="&lt;Path&gt;" class="s17" d="m1136.1 944.9c-16.5-0.1-32.9 0.1-49.4 0.2-1.3 0-1.3 2.1 0 2.1 16.5 0 32.9 0.2 49.4 0.2 1.6 0 1.6-2.5 0-2.5z"/>
						</g>
					</g>
					<g id="&lt;Group&gt;" style="opacity: .68">
						<g id="&lt;Group&gt;">
							<path id="&lt;Path&gt;" class="s17" d="m1151.8 967q-12.3 0-24.7-0.1c-1.5 0-1.5 2.4 0 2.4q12.4-0.1 24.7-0.1c1.4 0 1.4-2.2 0-2.2z"/>
						</g>
					</g>
					<g id="&lt;Group&gt;" style="opacity: .68">
						<g id="&lt;Group&gt;">
							<path id="&lt;Path&gt;" class="s17" d="m1041.8 904.9c-80.7-0.5-161.7-2.7-242.4-0.6-2 0.1-2 3 0 3.1 80.7 2.1 161.7-0.1 242.4-0.6 1.2 0 1.2-1.9 0-1.9z"/>
						</g>
					</g>
					<g id="&lt;Group&gt;" style="opacity: .68">
						<g id="&lt;Group&gt;">
							<path id="&lt;Path&gt;" class="s17" d="m772.5 910.3c-7.5-0.3-15-0.5-22.5-0.3-1.7 0.1-1.7 2.6 0 2.7 7.5 0.2 15 0 22.5-0.3 1.3 0 1.3-2.1 0-2.1z"/>
						</g>
					</g>
					<g id="&lt;Group&gt;" style="opacity: .68">
						<g id="&lt;Group&gt;">
							<path id="&lt;Path&gt;" class="s17" d="m776.9 944.6c-87.4-0.8-175.1-1.5-262.6 0.2-1.8 0-1.8 2.7 0 2.7 87.5 1.7 175.2 1 262.6 0.2 2.1 0 2.1-3.1 0-3.1z"/>
						</g>
					</g>
					<g id="&lt;Group&gt;" style="opacity: .68">
						<g id="&lt;Group&gt;">
							<path id="&lt;Path&gt;" class="s17" d="m348.2 956.6c14.9 0.1 30 0.8 44.9 0 1.7-0.1 1.7-2.5 0-2.6-14.9-0.8-30-0.1-44.9 0-1.7 0-1.7 2.6 0 2.6z"/>
						</g>
					</g>
					<g id="&lt;Group&gt;" style="opacity: .68">
						<g id="&lt;Group&gt;">
							<path id="&lt;Path&gt;" class="s17" d="m440.2 931c27.7 0 55.5 1.1 83.1-0.2 1.4-0.1 1.4-2.2 0-2.3-27.6-1.3-55.4-0.2-83.1-0.2-1.7 0-1.7 2.7 0 2.7z"/>
						</g>
					</g>
					<g id="&lt;Group&gt;" style="opacity: .68">
						<g id="&lt;Group&gt;">
							<path id="&lt;Path&gt;" class="s17" d="m99 918.2c1.8 0 1.8-2.7 0-2.7-1.7 0-1.7 2.7 0 2.7z"/>
						</g>
					</g>
					<g id="&lt;Group&gt;" style="opacity: .68">
						<g id="&lt;Group&gt;">
							<path id="&lt;Path&gt;" class="s17" d="m117 916.9c34.3 1.5 68.9 2.5 103.3 0.9 1.2 0 1.2-1.9 0-1.9-34.4-1.6-69-0.6-103.3 0.9 0 0 0 0.1 0 0.1z"/>
						</g>
					</g>
					<g id="&lt;Group&gt;" style="opacity: .68">
						<g id="&lt;Group&gt;">
							<path id="&lt;Path&gt;" class="s17" d="m236 917.4q2.2 0 4.5 0c0.6 0 0.6-1.1 0-1.1q-2.3 0-4.5 0c-0.7 0-0.7 1.1 0 1.1z"/>
						</g>
					</g>
					<g id="&lt;Group&gt;" style="opacity: .68">
						<g id="&lt;Group&gt;">
							<path id="&lt;Path&gt;" class="s17" d="m287.6 912.4c8.2 0.1 16.4 0.3 24.7 0.2 1.6 0 1.7-2.5 0-2.5-8.3-0.1-16.5 0.1-24.7 0.2-1.3 0.1-1.3 2 0 2.1z"/>
						</g>
					</g>
					<g id="&lt;Group&gt;" style="opacity: .68">
						<g id="&lt;Group&gt;">
							<path id="&lt;Path&gt;" class="s17" d="m45.2 863.6c53.8 0.2 107.8 0.8 161.6-0.6 1.3 0 1.4-2.1 0-2.1-53.8-1.4-107.8-0.9-161.6-0.7-2.2 0-2.2 3.4 0 3.4z"/>
						</g>
					</g>
					<g id="&lt;Group&gt;" style="opacity: .68">
						<g id="&lt;Group&gt;">
							<path id="&lt;Path&gt;" class="s17" d="m276.4 868.2q2.2 0 4.5 0c0.9 0 0.9-1.5 0-1.5q-2.3-0.1-4.5-0.1c-1 0-1 1.6 0 1.6z"/>
						</g>
					</g>
					<g id="&lt;Group&gt;" style="opacity: .68">
						<g id="&lt;Group&gt;">
							<path id="&lt;Path&gt;" class="s17" d="m31.7 817.4c45.6 1.2 91.3 0.5 136.9-0.2 1.4 0 1.4-2.1 0-2.1-45.6-0.7-91.3-1.3-136.9-0.2-1.6 0-1.6 2.5 0 2.5z"/>
						</g>
					</g>
					<g id="&lt;Group&gt;" style="opacity: .68">
						<g id="&lt;Group&gt;">
							<path id="&lt;Path&gt;" class="s17" d="m256.2 826.1c9 0.1 17.9 0.3 26.9 0 1 0 1-1.5 0-1.6-9-0.2-17.9 0-26.9 0-1 0-1 1.6 0 1.6z"/>
						</g>
					</g>
					<g id="&lt;Group&gt;" style="opacity: .68">
						<g id="&lt;Group&gt;">
							<path id="&lt;Path&gt;" class="s17" d="m33.9 760.5c7.5 0.1 15 0.4 22.5 0.1 1.5-0.1 1.5-2.3 0-2.4-7.5-0.3-15 0-22.5 0.1-1.3 0.1-1.3 2.2 0 2.2z"/>
						</g>
					</g>
					<g id="&lt;Group&gt;" style="opacity: .68">
						<g id="&lt;Group&gt;">
							<path id="&lt;Path&gt;" class="s17" d="m161.9 794c9.7 0 19.5 0.3 29.2-0.4 1.5-0.1 1.5-2.3 0-2.4-9.7-0.7-19.5-0.4-29.2-0.5-2.2 0-2.2 3.4 0 3.3z"/>
						</g>
					</g>
					<g id="&lt;Group&gt;" style="opacity: .68">
						<g id="&lt;Group&gt;">
							<path id="&lt;Path&gt;" class="s17" d="m173.1 736.7q33.7 0.1 67.4-0.8c0.3 0 0.3-0.6 0-0.6q-33.7-0.8-67.4-0.7c-1.3 0-1.3 2.1 0 2.1z"/>
						</g>
					</g>
					<g id="&lt;Group&gt;" style="opacity: .68">
						<g id="&lt;Group&gt;">
							<path id="&lt;Path&gt;" class="s17" d="m258.4 737.9c19.5 0.2 38.9 1 58.4 0.5 1.1-0.1 1.1-1.8 0-1.9-19.5-0.5-38.9 0.3-58.4 0.5-0.6 0-0.6 0.9 0 0.9z"/>
						</g>
					</g>
					<g id="&lt;Group&gt;" style="opacity: .68">
						<g id="&lt;Group&gt;">
							<path id="&lt;Path&gt;" class="s17" d="m644.5 721.8c47.1 0.8 94.3 0.5 141.4 0.3 1.4 0 1.4-2.2 0-2.2-47.1-0.2-94.3-0.5-141.4 0.3-1 0-1 1.5 0 1.6z"/>
						</g>
					</g>
					<g id="&lt;Group&gt;" style="opacity: .68">
						<g id="&lt;Group&gt;">
							<path id="&lt;Path&gt;" class="s17" d="m848.8 718.7c6-0.1 11.9-0.1 17.9-0.3 1.4-0.1 1.4-2.1 0-2.1-6-0.3-11.9-0.3-17.9-0.4-1.8 0-1.8 2.8 0 2.8z"/>
						</g>
					</g>
					<g id="&lt;Group&gt;" style="opacity: .68">
						<g id="&lt;Group&gt;">
							<path id="&lt;Path&gt;" class="s17" d="m913.9 661.4c49.4 0.3 98.7 1.5 148.1-0.3 0.7 0 0.7-1.1 0-1.1-49.4-1.7-98.7-0.5-148.1-0.2-1 0-1 1.5 0 1.6z"/>
						</g>
					</g>
					<g id="&lt;Group&gt;" style="opacity: .68">
						<g id="&lt;Group&gt;">
							<path id="&lt;Path&gt;" class="s17" d="m1086.7 663.2c14.2-0.5 28.4 0.5 42.7 0 0.9-0.1 0.9-1.5 0-1.6-14.3-0.5-28.5 0.5-42.7 0-1 0-1 1.6 0 1.6z"/>
						</g>
					</g>
					<g id="&lt;Group&gt;" style="opacity: .68">
						<g id="&lt;Group&gt;">
							<path id="&lt;Path&gt;" class="s17" d="m1064.3 685.7c8.9 0.1 17.9 0.4 26.9 0.1 1.8-0.1 1.8-2.8 0-2.8-9-0.3-18 0-26.9 0-1.8 0-1.8 2.7 0 2.7z"/>
						</g>
					</g>
					<g id="&lt;Group&gt;" style="opacity: .68">
						<g id="&lt;Group&gt;">
							<path id="&lt;Path&gt;" class="s17" d="m1277.5 667.5c50.8 0.5 101.8 1.5 152.7 0.3 2.2-0.1 2.2-3.4 0-3.5-50.9-1.2-101.9-0.2-152.7 0.4-1.8 0-1.8 2.7 0 2.8z"/>
						</g>
					</g>
					<g id="&lt;Group&gt;" style="opacity: .68">
						<g id="&lt;Group&gt;">
							<path id="&lt;Path&gt;" class="s17" d="m1452.6 662.1q4.5 0 9 0c1.9-0.1 1.9-3 0-3q-4.5 0-9 0c-1.9 0-1.9 3 0 3z"/>
						</g>
					</g>
					<g id="&lt;Group&gt;" style="opacity: .68">
						<g id="&lt;Group&gt;">
							<path id="&lt;Path&gt;" class="s17" d="m1443.6 793.6c12 0.1 24 0.4 35.9 0.2 1.8-0.1 1.8-2.8 0-2.8-11.9-0.2-23.9 0.1-35.9 0.2-1.5 0-1.5 2.3 0 2.4z"/>
						</g>
					</g>
					<g id="&lt;Group&gt;" style="opacity: .68">
						<g id="&lt;Group&gt;">
							<path id="&lt;Path&gt;" class="s17" d="m1468.3 844.9c-58.3-2-116.7-2.3-175.1-0.5-1.4 0-1.4 2.1 0 2.2 58.4 1.7 116.8 1.4 175.1-0.6 0.7-0.1 0.7-1 0-1.1z"/>
						</g>
					</g>
					<g id="&lt;Group&gt;" style="opacity: .68">
						<g id="&lt;Group&gt;">
							<path id="&lt;Path&gt;" class="s17" d="m1261.8 847.8c-5.2-0.1-10.5-0.4-15.7 0-1.6 0.2-1.6 2.4 0 2.6 5.2 0.4 10.5 0.1 15.7 0 1.7 0 1.7-2.6 0-2.6z"/>
						</g>
					</g>
					<g id="&lt;Group&gt;" style="opacity: .68">
						<g id="&lt;Group&gt;">
							<path id="&lt;Path&gt;" class="s17" d="m1416.7 875.5c-8.2 0-16.5-0.3-24.7-0.2-1.6 0.1-1.6 2.5 0 2.5 8.2 0.1 16.5-0.1 24.7-0.1 1.4 0 1.4-2.2 0-2.2z"/>
						</g>
					</g>
				</g>
				<g id="&lt;Group&gt;">
					<path id="&lt;Path&gt;" class="s18" d="m819.5 666.1h-832.1l5.3-465v-2.6c26.8-2.5 49.7 2.4 76.7-1.4q0.2 0 0.3 0 6.5-0.9 12.3-0.9c15.7-0.2 28.2 4.1 40.6 10.4 9.6 4.8 19.1 10.9 29.9 17.2 42.1 24.8 109.3 18.5 144.2 61.3 29.5 36.2 56.4 73.3 90.1 106.2 21.2 20.7 36.8 44.3 57.8 65.6 11.4 11.6 18.6 14.7 31.9 22.2 19.9 11.2 21 14.2 33.3 32.4q0.3 0.4 0.6 0.8c22.5 33.4 61.2 44.7 95.1 61.5 28.8 14.3 63.3 17.9 95.1 20.9 35.9 3.5 79.7 42.3 109.7 64.8 3.2 2.4 6.3 4.7 9.2 6.6z"/>
					<g id="&lt;Group&gt;">
						<path id="&lt;Path&gt;" class="s9" d="m696.6 594.7c-31.8-3-66.3-6.6-95.1-20.9-33.9-16.8-72.6-28.1-95.1-61.5q-0.3-0.4-0.6-0.8c-12.3-18.2-13.4-21.2-33.3-32.4-13.3-7.5-20.5-10.6-31.9-22.2-21-21.3-36.6-44.9-57.8-65.6-33.7-32.9-60.6-70-90.1-106.2-3.4-4.2-7-7.8-10.9-11.1-1 13.2-0.6 28-2.1 38.6-1.5 11.5-3 25.9-1.1 37.5 2.3 13.3 11.6 24.1 12.9 37.3-18.2-19.7-32.5-47.6-46.3-70.7-6-10.2-33.7-48.7-52-76.4-16.2-4.1-31.7-8.8-44.7-16.5-10.8-6.3-20.3-12.4-29.9-17.2-12.4-6.3-24.9-10.6-40.6-10.4-1.7 32.4 23 65.4 39 89.7 19.2 29.3 43.9 44.1 74 65.6 66.6 47.4 94 143.4 175.6 165.5 26.3 7.1 50.5 27.5 77.3 32.1 12.7 2.2 25.4 0.2 38 2.9 21.8 4.7 33 17.9 51.8 29.3 55.2 33.3 121.3 25.5 178.9 49.4 26.1 10.8 39.4 24.4 69.3 26.3 8 0.5 16.2 1.4 24.4 2.5-30-22.5-73.8-61.3-109.7-64.8z"/>
					</g>
				</g>
				<g id="&lt;Group&gt;" style="opacity: .25">
					<path id="&lt;Path&gt;" class="s19" d="m815.5 666.1h-832.1l5.3 210.6v1.2c26.8 1.1 49.7-1.1 76.7 0.6q0.2 0 0.3 0 6.5 0.4 12.3 0.4c15.7 0.1 28.2-1.8 40.6-4.7 9.6-2.2 19.1-4.9 29.9-7.8 42.1-11.2 109.3-8.4 144.2-27.7 29.5-16.4 56.4-33.2 90.1-48.1 21.2-9.4 36.8-20.1 57.8-29.7 11.4-5.3 18.6-6.7 31.9-10 19.9-5.1 21-6.5 33.3-14.7q0.3-0.2 0.6-0.4c22.5-15.1 61.2-20.2 95.1-27.9 28.8-6.4 63.3-8.1 95.1-9.4 35.9-1.6 79.7-19.2 109.7-29.3q4.8-1.7 9.2-3.1z"/>
					<g id="&lt;Group&gt;">
						<path id="&lt;Path&gt;" class="s16" d="m696.6 698.5c-31.8 1.3-66.3 3-95.1 9.4-33.9 7.7-72.6 12.8-95.1 27.9q-0.3 0.2-0.6 0.4c-12.3 8.2-13.4 9.6-33.3 14.7-13.3 3.3-20.5 4.7-31.9 10-21 9.6-36.6 20.3-57.8 29.7-33.7 14.9-60.6 31.7-90.1 48.1-3.4 1.9-7 3.5-10.9 5-1-6-0.6-12.7-2.1-17.5-1.5-5.2-3-11.7-1.1-17 2.3-6 11.6-10.9 12.9-16.9-18.2 9-32.5 21.6-46.3 32.1-6 4.6-33.7 22-52 34.6-16.2 1.8-31.7 3.9-44.7 7.4-10.8 2.9-20.3 5.6-29.9 7.8-12.4 2.9-24.9 4.8-40.6 4.7-1.7-14.6 23-29.6 39-40.6 19.2-13.2 43.9-20 74-29.7 66.6-21.4 94-64.9 175.6-74.9 26.3-3.2 50.5-12.5 77.3-14.6 12.7-1 25.4-0.1 38-1.3 21.8-2.1 33-8.1 51.8-13.2 55.2-15.1 121.3-11.6 178.9-22.4 26.1-4.9 39.4-11.1 69.3-11.9 8-0.2 16.2-0.7 24.4-1.1-30 10.1-73.8 27.7-109.7 29.3z"/>
					</g>
				</g>
				<g id="&lt;Group&gt;">
					<path id="&lt;Path&gt;" class="s8" d="m-254.2 896.7l365.5-95h63.3l249.8-101.6 31.7 35v56.6c0 0 101.6 26.7 111.6 30 9.9 3.3 83.2-10 83.2-10l16.7 30 111.6 64.9 63.2 23.4 144.9 61.6 15 43.3h-1256.5z"/>
					<path id="&lt;Path&gt;" class="s9" d="m424.4 696.1l-7 68 38.7-33z"/>
					<path id="&lt;Path&gt;" class="s9" d="m567.7 819.7l8.1 91h22.9l-21.9 97.7 90.8-168.7-16.7-30z"/>
					<path id="&lt;Path&gt;" class="s9" d="m117.5 803.8l-49.9 65.8h21.4l-67 85.6 158.7-151.4z"/>
				</g>
				<g id="&lt;Group&gt;">
					<path id="&lt;Path&gt;" class="s20" d="m247.8 715.8l4.5 31.9h21.8l4.3-34.2z"/>
					<path id="&lt;Path&gt;" class="s20" d="m396 637.4l-2.2 45 24.7 1.9 12.5-44.2z"/>
					<path id="&lt;Path&gt;" class="s21" d="m317.9 160.5c2 0.3 3.6 1.7 5.1 3 2.6 2.4 4.7 4.5 5.4 8.1 0.8 4.1 0 10-1.9 13.8-2.8 0.2-4.7-2.7-6.1-4.7-2.1-2.8-3.2-6.2-4-9.7-0.4-1.9-1.5-4.3-1.3-6.3"/>
					<path id="&lt;Path&gt;" class="s4" d="m299.9 150.4c-7.2-0.9-11.2-10.4-18.1-12.3-8.5-2.3-22 11.5-27.3 16.4-7.2 6.8-19.9 17.6-19 29.1 0.6 7.3 6.7 16.9 11.4 22.1"/>
					<path id="&lt;Path&gt;" class="s22" d="m324.4 186.7c1.1-7.2 2.9-23.6-7.2-25.7-7.5 1.2-11.7 8.7-14.2 15.3-6.5 16.5-8 37 7.1 49.5l11.8-4c1.9-4.8 2.2-7.1 1-15.6 2.4 0.6 3.3-0.7 4.5-2.1-3.4-4.6-3.8-12-3-17.4z"/>
					<path id="&lt;Path&gt;" class="s0" d="m318.4 463.3c0 0-1.3 11.3-4.5 35.5-1.5 10.7-4 25-6.8 38.7-3.6 17.3-7.7 33.8-10.7 41.4-5.3 13.6-2.2 27.2-7.5 63.5-5.3 36.2-7.5 77-7.5 77h-38.4c-2.8-18.8-2.4-98.2-0.2-114.8 2.3-16.6 6.1-34 4.6-63.4-1.5-29.5-9.1-73.4-9.1-73.4l27.2-1.5z"/>
					<path id="&lt;Path&gt;" class="s23" d="m247.8 745.1c0 0-1.5 19.3 3.4 26l2.1 6.4c0 0 31.5-7.9 37.3-11.9 5.9-4 16.3-6.7 19-7.6 2.8-1 15.3-2.2 15.6-5.9 0.3-3.6 0-3.9-4.9-7-4.9-3-21.7-5.8-23.5-7-1.9-1.2-10.4-4.6-13.2-4.6-2.7 0-6.4 0.9-6.7 2.1-0.3 1.3-3.7 4-3.7 4z"/>
					<path id="&lt;Path&gt;" class="s24" d="m394.2 673.6c0 0-7.8 1.8-8.8 2.7-0.9 0.9-2.7 10.7-2.7 15.9 0 5.2-2.8 13.8-1.5 15.9l-0.4 5.4c0 0 24.9 3.2 31.6 2.9 6.7-0.3 27.5 6.1 36.3 5.5 8.9-0.6 17.9-6.4 20.2-6.8 2.2-0.3 2.8-7.9 1.9-9.7-1-1.9-1.6-4.3-10.4-7.8-8.9-3.6-18.1-7.8-23-11.5-4.9-3.7-10.3-8-11.4-8.6-1.1-0.6-2.4-4.3-4.8-2.8-2.4 1.6-5.5 7.7-5.5 7.7 0 0-20.5 1.8-21.1-2.7-0.2-1.9-0.4-6.1-0.4-6.1z"/>
					<path id="&lt;Path&gt;" class="s25" d="m321.9 166.5c2.5-5.9 9.7-18.2 4.7-24.7-7.9-10.6-27.6 6.6-33.7 11.6-16.7 13.6-32.7 28.7-46 45.7-3.9 4.9-16.5 21.6-10.9 28.6 3.2 3.8 10 2 13.3-0.4"/>
					<path id="&lt;Path&gt;" class="s26" d="m370.2 448.8c0.6 0.9 0.5 2.1 0.8 3 1.3 3.5 4.2 6.8 7 9.2 1.8 1.6 4.3 2.7 6.5 3.8 3 1.5 5.6 3.2 8.5 4.8 1.8 1 9.2 5.4 10.1 2.9 1.6-5.1-2.1-11.6-5-15.4-2.5-3.1-5.3-4.8-8.5-7.1-1.6-1.2-3.3-2.4-4.6-4-1-1.2-1.6-3.1-3-3.9-2.9 0.7-5.4 2.6-8.1 3.9-1.1 0.5-3.3 1.6-3.7 2.8z"/>
					<path id="&lt;Path&gt;" class="s27" d="m392.4 640.1l1.2-15.5 45.3 6.1-5.5 12.8z"/>
					<path id="&lt;Path&gt;" class="s28" d="m286.8 736.1c-1.8-1.4-3.1-3.4-4.1-5.4-0.8-1.5-2.6-6.2 0-7.1 3.2-1.2 4.3 9.8 4.3 12.1 0.2-1.9 0.8-4.2 1.6-5.9 1-2.3 4-6.9 7.4-6 3.4 0.9-2.4 7.4-3.6 8.6-0.8 0.7-4.3 4.7-5.6 3.7z"/>
					<path id="&lt;Path&gt;" class="s28" d="m431.3 684.1c-1-1.7-1.6-3.9-1.9-5.8-0.2-2.2-0.1-4.5 0.7-6.5 0.2-0.6 0.8-2.2 1.6-2.4 2.3-0.9 2 6 2 7-0.1 2.6-0.8 5-1.9 7.3 1-2.4 2.1-5 3.9-6.9 0.6-0.7 5.4-4.4 6.5-2.7 0.4 0.6-0.4 1.8-0.7 2.4-1.1 1.7-3 3.2-4.7 4.2-1.6 0.9-3.3 1.7-5 2.4-0.4 0.3-0.9 0.5-1.5 0.6"/>
					<path id="&lt;Path&gt;" class="s29" d="m318.4 463.3c0 0-1.3 11.3-4.5 35.5-1.5 10.7-4 25-6.8 38.7-2.9-2.3-5.8-4.7-8.3-7.3-7.7-7.7-12.8-17.5-18.1-26.9-5-9-7.4-18.8-11.5-28.2-1.2-2.6-2.2-6-3.7-8.8z"/>
					<path id="&lt;Path&gt;" class="s0" d="m278.4 465.6c0 0 20.4 33.2 55.1 48.3 34.8 15.1 84.6 34.8 84.6 34.8 0 0-22.6 49.1-24.1 70.2-1.6 21.2-1.6 21.2-1.6 21.2l41 3.4c0 0 37.6-85 35.4-106.9-2.3-21.9-111.9-96-111.9-96z"/>
					<path id="&lt;Path&gt;" class="s4" d="m377.8 445.7c-9.9 3.6-9.9 3.6-9.9 3.6l-2.8 10c0 0-38 17.2-84.1 20.8-29.6 2.3-47.3 1.7-56.2 0.9-4.9-0.4-7.1-0.9-7.1-0.9 0 0-4.6-97-6.4-120.9-1.8-23.9-5.4-81.8 3.6-92.6 9.1-10.9 27.5-18.1 27.5-18.1l-0.3-11.7c0 0 3.4-0.9 8.1-2.2 9.2-2.5 23.6-6 29-6 31.3 0 27 12.8 27 12.8 0 0 13.7-1.1 26.4 13.4 12.6 14.5 49.7 174.6 49.7 174.6 0 0 5.5 12.7-4.5 16.3z"/>
					<path id="&lt;Path&gt;" class="s30" d="m261.5 208.2c-6.2 5.5-12.7 11.8-16.5 19.2-2.1 4.2-4.1 8.8-6.7 12.7-3 4.5-7.4 6.4-12.1 8.7-3.9 1.9-8.3 3.2-11 6.8-2.8 3.8-2.3 8.6-3.8 12.9-1.4 4.1-4.2 8.1-7.9 10.5-4.4 2.9-14.2 4.9-17.2-0.8"/>
					<path id="&lt;Path&gt;" class="s30" d="m325.5 170.9c4 5.1-8.5 18.7-11.3 23.2-5 7.9-3.7 14.6 4.6 19 9.9 5.2 17.1 11.4 16.5 23.3-0.7 13.1-15.9 23.2-27.1 26"/>
					<path id="&lt;Path&gt;" class="s29" d="m367.9 449.3l-45.4-136.9 14.4 95.1 12.8 3-15.6 59.7 31-10.9z"/>
					<path id="&lt;Path&gt;" class="s29" d="m280.2 267c-13.8 7.1-25.4 32.2-31.6 45.2-12 24.9-13.7 56.4-18.6 83.4-3.6 20.2-3.7 39.9-5.3 60.2-0.6 7.3 0 16.3 0.1 25.2-4.9-0.4-7.1-0.9-7.1-0.9 0 0-4.6-97-6.4-120.9-1.8-23.9-5.4-81.8 3.6-92.6 9.1-10.9 27.5-18.1 27.5-18.1l-0.3-11.7c0 0 3.4-0.9 8.1-2.2z"/>
					<path id="&lt;Path&gt;" class="s31" d="m258.8 217.2c-4.6 6-9.1 12.7-12.1 19.5-1.4 3.1-2.5 6.8-4.4 9.5-5.1 7.5-14.8 10-19.4 18.3-6 11.1-0.5 33.1-19.5 32.7 8.3 4.5 16.5 7 26.1 3.8 3.6-1.2 3.3-2.4 5.3-5.1 1.6-2.1 4.2-2.9 5.7-4.9-0.6 3.7-2.7 6.8-2.3 10.7 10.4 4.5 28.4 6.7 39.3 2.8-0.3-4 0.5-9.2 3-12.4-1.7 2.8-1.1 8.4 0.1 11.6 5.2 3.4 11.3-1.9 16.3-3.5 2.2-3.6 1.7-8 2.7-12 1-3.9 2.8-7.4 5.4-10.4 5.8-7 15.2-8.4 22-14.1 7.4-6.2 11.4-18.1 9.7-27.5-1.4-8.3-8.4-13.1-15-17.4-4.9-3.1-12.8-8.1-10.4-15.1 1.8-5.1 13.5-12.3 16.3-17.3 4.5-8.3-0.6-22.5-11.6-26.1-3.2-1.1-7.4 2.4-10.4 3.8-6 2.8-11.6 6.1-16.7 10.4-7.5 6.4-14.6 14.1-19.9 22.5-4 6.2-6.4 15.1-10.2 20.2z"/>
				</g>
				<g id="&lt;Group&gt;">
					<path id="&lt;Path&gt;" class="s32" d="m1194.6 1048.5c3.2-19.5 2.3-96.8 6.3-116.6 5.2-25.5 14.4-52.1 27.5-74.8 4.9 7 8.1 16.2 13.3 22.7 1.2-15.7-9.4-25.6-2.9-40.2 22.9-51 54.2-105.7 91.4-147.3 0.3 10.9 3.2 21.6 2.8 32.5 9.1-17 8.5-36 21.8-51.8 15.5-18.5 39.7-28.1 61-38.1 9.7-4.5 19.4-10.7 29.5-14-6.5 14.9 1.6 36.3 2.5 52 1.4 25.2 5.4 52.8-6.4 76-10.1 1.2-22.8 6.4-33 8.2-13.3 2.2-27.4-1-40.2 1.6 22 9.2 43.5 9.5 66.9 8.7-1.6 27.2-1.6 54.5-8 81.7-1.8 7.7-3.2 19.4-9.9 22.9-9.7 5-28.9-0.8-40.1-0.1 11.4 8.4 27.1 14.9 40.9 17.5-1.9 10-7.1 19.3-11.5 28.5-11.5 24.1-16.8 44.6-37.2 62.7-19.9 17.7-40.5 34.6-64.9 45.4-11.9 5.2-23.8 9.9-35.1 16.3-7.5 4.2-19.3 15-26.6 5"/>
					<g id="&lt;Group&gt;">
						<g id="&lt;Group&gt;">
							<path id="&lt;Path&gt;" class="s0" d="m1439 619.8c-48.5 36.6-83.5 86.3-112 139.6-14.9 27.9-28.6 56.5-41.7 85.2-14.4 31.4-28.2 63.2-37.9 96.4-5.2 18-9.3 36.2-11.8 54.8-2.4 17.8-3.7 35.8 3.8 52.5 1.8 4.1 7.4 1 6.7-2.8-5.9-32.9 2.8-68.1 12.3-99.6 9.5-31.5 22.2-61.8 35.9-91.7 24.3-53.3 48.8-107.3 81.7-155.9 18.5-27.4 40.4-53.8 65.4-75.5 1.6-1.4-0.6-4.3-2.4-3z"/>
						</g>
					</g>
					<g id="&lt;Group&gt;">
						<g id="&lt;Group&gt;">
							<path id="&lt;Path&gt;" class="s0" d="m1325.1 816.8c13.9-8.4 30.6-13.2 46.6-15.7 8.4-1.3 17.1-1.9 25.7-1.6 7.6 0.2 15.4 2 23 1.4 1.5-0.1 2.5-2.4 0.8-3.2-13.6-6.7-33.1-4.7-47.6-2.1-18.2 3.2-33.4 10.7-49.1 20.1-0.6 0.4 0 1.5 0.6 1.1z"/>
						</g>
					</g>
					<g id="&lt;Group&gt;">
						<g id="&lt;Group&gt;">
							<path id="&lt;Path&gt;" class="s0" d="m1288.5 881.3c14.3-13.2 30.5-22.1 49.1-27.9 17.8-5.5 34.8-5 53.2-5.4 1.7-0.1 2.1-2.7 0.4-3.1-36.3-8.5-77.8 11.1-103.7 35.4-0.7 0.6 0.3 1.6 1 1z"/>
						</g>
					</g>
					<g id="&lt;Group&gt;">
						<g id="&lt;Group&gt;">
							<path id="&lt;Path&gt;" class="s0" d="m1266.1 952.3c4.8-8.1 18.5-12.7 26.8-16.2 9.7-4.1 19.7-7.3 30-9.5 10.2-2.1 20.6-3.1 30.9-3.1 8.8-0.1 19 2.9 27.3 0.1 1.5-0.5 1.7-2.5 0.4-3.3-8.2-5.5-21.6-3.6-31-3.1-11.4 0.7-22.8 2.6-33.9 5.4-11 2.8-21.8 6.8-32 11.8-7.7 3.7-17.9 7.9-22.3 15.7-1.4 2.4 2.4 4.6 3.8 2.2z"/>
						</g>
					</g>
					<g id="&lt;Group&gt;">
						<g id="&lt;Group&gt;">
							<path id="&lt;Path&gt;" class="s0" d="m1279.6 852.1c4.6-17.5 0.1-39-11.2-53.3-0.9-1.1-2.7 0.1-2.3 1.4 5.2 18.1 17.5 31.2 12.3 51.5-0.2 0.8 1 1.2 1.2 0.4z"/>
						</g>
					</g>
					<g id="&lt;Group&gt;">
						<g id="&lt;Group&gt;">
							<path id="&lt;Path&gt;" class="s0" d="m1308 803.6c3.9-16 5.8-40-5-53.9-1-1.2-3.2-0.2-3.1 1.3 0.9 8.1 4.5 15.6 5.4 23.9 1 9.3 0.2 18.4-1.9 27.5-0.6 2.9 3.9 4.2 4.6 1.2z"/>
						</g>
					</g>
					<g id="&lt;Group&gt;">
						<g id="&lt;Group&gt;">
							<path id="&lt;Path&gt;" class="s0" d="m1360.5 732.3c9.9-4.8 20.2-8.8 30.8-11.8 9.7-2.6 19.8-3.2 29.4-6.1 1.7-0.5 1.2-2.8-0.4-2.9-20.6-1.9-44 8.1-62 17.1-2.5 1.2-0.3 5 2.2 3.7z"/>
						</g>
					</g>
					<g id="&lt;Group&gt;">
						<g id="&lt;Group&gt;">
							<path id="&lt;Path&gt;" class="s0" d="m1252.8 968.2c-1-19-6.3-37.7-18.4-52.7-1.5-1.8-4.3 0.5-3.2 2.5 8.6 16 15 31.9 16.3 50.2 0.2 3.4 5.5 3.4 5.3 0z"/>
						</g>
					</g>
				</g>
				<path id="&lt;Path&gt;" class="s0" d="m1417.4 1032.2c-1-3.8 0.9-7.4-0.1-11.3-2-8.2-12.5-15.6-16.9-22.8-12.3-20-23.2-52.5-18-76.4 10.3 16.8 20.8 31.4 26.6 50.8 2.1 7.2 3.6 14.2 5.3 21.5 0.7 3 1.6 12.9 3.1 13.8 6.2-12.1 6-25.7 0.3-37.6-9.3-19.6-22.2-38.4-27.2-59.7-3.9-16.5-3-33.2 0.1-49.6 5.7 10.3 14.3 18.7 19.7 29.6 7.9 16.2 12.2 33.2 13.5 51.2 0.8 11-2.2 25.4 1.1 36 3.7-8.5 7.4-15.1 9.5-24.3 3.3-14.2 2.1-26.2-0.7-40.5-3.4-18-13.4-35.2-9.8-53.9 2.6-13.4 8.7-25.8 11.1-39.3 1.5 17.7 8.7 35 11.5 52.6 2.2 13.4 4.3 28.2 2.7 41.8-1.6 13.9-8 26.6-11.3 40-0.8 0.7-0.2-0.3-0.5-0.7 14.3-30.5 46.9-54 76.4-68.8-1.3 11.1-12.2 28-19.3 36.8-9.6 12-21.6 23.5-34.6 31.9-7.2 4.6-16.7 7.2-22.5 13.7-2.6 2.9-5 10.4-6.2 11.4 7.9-13.4 29.9-18.9 43.2-24.3 17.7-7.1 35.4-12.5 54.2-15.2-7.3 2.6-13.6 13-19.3 18.3-9.8 9-24 18.5-36.6 22.8-9.1 3.1-18.8 5.4-28.1 8-3.8 1.1-10.2 1.7-13.7 3.9-8.9 5.5-8.2 30.6-9.8 40.8-0.9 0.3-2.1 0.2-3 0-0.1-0.6-0.5 0-0.7-0.5z"/>
				<path id="&lt;Path&gt;" class="s0" d="m1127.9 1059.4c-3.6-4.1-3.5-9.7-7.1-13.9-7.5-8.8-25.1-11.5-35-17.7-27.6-17.1-61.1-50.6-69.5-83.3 23.1 14.3 45.2 26 64.3 46.3 7.1 7.6 13.2 15.3 19.8 23.3 2.8 3.3 10 15 12.4 15.1 0.2-18.7-8.5-35.4-22.8-46.7-23.6-18.4-51.3-33.7-70.6-56.9-15-18-24.2-39.1-30.6-61.4 13.5 9.2 29.3 14.2 42.7 24.5 19.9 15.1 35.7 33.4 48.4 54.9 7.8 13 13 32.7 23.7 43.9-0.8-12.9-0.3-23.3-3.4-36-4.7-19.6-13.6-33.7-25.8-49.6-15.4-20.1-38.4-35.3-45.5-60.6-5.1-18.2-5.2-37.3-10.7-55.5 12.9 21 32.5 37.8 46.9 57.9 10.9 15.3 22.7 32.3 29.1 50.1 6.6 18.1 6.5 37.7 10.8 56.4-0.6 1.4-0.4-0.3-1-0.6-1.3-46.6 24.5-95.8 51.9-132.3 5.2 14.6 2.1 42.2-1.2 57.4-4.4 20.8-12.1 42.5-23 60.9-6.1 10.2-16.2 19.3-19.4 30.8-1.4 5.2 0.3 16-0.6 18 1.5-21.5 25.3-41.9 38.4-56.7 17.5-19.7 36-37.4 57.7-52.4-7.5 7.7-8.9 24.5-12.7 34.6-6.4 17.1-18.2 37.7-31.1 50.8-9.3 9.5-19.9 18.2-29.7 27.2-4.1 3.8-11.6 8.5-14.6 13.3-7.6 12.4 8.8 42.9 13.1 56.6-0.9 0.8-2.5 1.5-3.7 1.8-0.5-0.6-0.7 0.3-1.2-0.2z"/>
				<path id="&lt;Path&gt;" class="s0" d="m109.2 1016c-2.4-4-1.3-8.7-3.6-12.9-4.8-8.6-19.1-14-26.3-20.8-20.1-19.1-42.5-52.9-43.8-81.7 16.8 15.9 33.3 29.5 45.9 49.8 4.6 7.6 8.4 15.1 12.6 22.9 1.7 3.3 5.7 14.3 7.7 14.8 3.4-15.6-1-31.1-11.1-43-16.5-19.5-37.1-37.1-49.2-59.8-9.5-17.7-13.6-37-15.1-56.7 9.7 10.1 22.1 17 31.5 27.8 14.1 16.1 24.2 34.2 31.1 54.3 4.3 12.3 5.3 29.7 12.3 40.9 1.5-10.9 3.7-19.5 3.3-30.8-0.6-17.2-5.6-30.5-13-45.9-9.5-19.5-26.1-36.1-27.7-58.6-1.1-16.1 2.1-32.1 0.6-48.3 7.2 19.8 20.7 37.3 29.3 56.6 6.5 14.6 13.4 30.9 15.8 46.9 2.4 16.4-1.1 32.8-0.7 49.1-0.8 1.1-0.3-0.3-0.8-0.7 7-39.2 37.1-75.9 66.3-101.8 1.9 13.2-5.5 35.7-10.9 47.9-7.3 16.7-17.5 33.5-29.8 47-6.8 7.5-16.9 13.4-21.5 22.4-2.1 4.2-2.5 13.5-3.6 15 5-17.7 28.4-30.7 41.9-40.9 18.1-13.5 36.6-25 57.3-33.9-7.5 5.2-11.6 19-16.5 26.8-8.4 13.2-21.8 28.4-34.8 37.2-9.5 6.3-19.8 11.8-29.6 17.7-4.1 2.4-11.2 5-14.5 8.6-8.5 9 0 37.4 1.2 49.6-0.9 0.5-2.3 0.8-3.3 0.9-0.4-0.6-0.7 0.1-1-0.4z"/>
				<g id="&lt;Group&gt;" style="mix-blend-mode: overlay">
				</g>
			</g>
		</g>
	</g>
</svg>