<svg version="1.2" xmlns="http://www.w3.org/2000/svg" viewBox="0 0 1500 1000" width="1500" height="1000">
	<title>8062252</title>
	<defs>
		<linearGradient id="g1" x2="1" gradientUnits="userSpaceOnUse" gradientTransform="matrix(0,-384.046,259.672,0,-114.051,596.037)">
			<stop offset=".081" stop-color="#f1c7bc" stop-opacity="1"/>
			<stop offset="1" stop-color="#f1c7bc" stop-opacity="0"/>
		</linearGradient>
		<linearGradient id="g2" x2="1" gradientUnits="userSpaceOnUse" gradientTransform="matrix(0,-187.504,140.76,0,861.901,792.913)">
			<stop offset=".081" stop-color="#f1c7bc" stop-opacity="1"/>
			<stop offset="1" stop-color="#f1c7bc" stop-opacity="0"/>
		</linearGradient>
		<clipPath clipPathUnits="userSpaceOnUse" id="cp1">
			<path d="m1500 1000h-1500v-1000h1500z"/>
		</clipPath>
	</defs>
	<style>
		.s0 { fill: #ababd1 } 
		.s1 { mix-blend-mode: overlay;fill: #c9bbe6 } 
		.s2 { mix-blend-mode: overlay;fill: #a193bc } 
		.s3 { fill: #ffffff } 
		.s4 { fill: #f8c9c8 } 
		.s5 { fill: #ccc7df } 
		.s6 { fill: #e1d7e6 } 
		.s7 { fill: #e8e6f9 } 
		.s8 { fill: #4051a6 } 
		.s9 { fill: #9996bf } 
		.s10 { fill: #939fd5 } 
		.s11 { fill: #7281c4 } 
		.s12 { fill: url(#g1) } 
		.s13 { fill: #d27373 } 
		.s14 { fill: #f7a6a6 } 
		.s15 { mix-blend-mode: multiply;fill: #221f7f } 
		.s16 { mix-blend-mode: multiply;fill: #d27373 } 
		.s17 { fill: #fbe2c2 } 
		.s18 { fill: #080e3a } 
		.s19 { fill: #0e0624 } 
		.s20 { fill: #3b4696 } 
		.s21 { fill: #be9bbf } 
		.s22 { opacity: .93;fill: #f5c7c5 } 
		.s23 { mix-blend-mode: darken;fill: #e97777 } 
		.s24 { fill: #1c0608 } 
		.s25 { fill: url(#g2) } 
	</style>
	<g id="BACKGROUND">
		<path id="&lt;Path&gt;" class="s0" d="m1485-9v1000h-1500v-1000z"/>
	</g>
	<g id="OBJECTS">
		<g id="&lt;Group&gt;">
			<g id="&lt;Group&gt;">
				<path id="&lt;Path&gt;" class="s1" d="m649.7 413.5c-14-23.1-30-47.8-60-62.6-36-14.9-76-6.6-116-9.9-24-1.7-48-9.9-62-26.4-40-39.6-76-84.1-140-87.4-90.8-5.9-186.5-19.6-272.7 6.6v322.8h723.6c-3.7-2.6-7.3-5.1-10.9-7.8-42-34.7-38-90.7-62-135.3z"/>
				<path id="&lt;Path&gt;" class="s2" d="m1296.7 228c-58 20.9-78 70.8-120 104.5-22 19.3-62 11.3-92 22.6-48 16-80 51.4-98 88.4-16 37.2-31.3 76.3-52.4 112.1h217.1c35.5-9 71.5-16.4 109.3-20.5-37.8 4.1-73.8 11.5-109.3 20.5h348.6v-361.4c-69.9-1.2-138 10.4-203.3 33.8z"/>
			</g>
			<g id="&lt;Group&gt;">
				<g id="&lt;Group&gt;">
					<path id="&lt;Path&gt;" class="s3" d="m785.2 166.3c-0.6-0.4-1.2-0.7-1.9-0.7-0.7 0-1.5 0.4-1.9 0.9q-0.5 0.5-0.7 1.2-0.2 0.7 0 1.4 0.1 0.3 0.2 0.7 0.2 0.7 0.7 1.2 0.5 0.4 1.2 0.6c0.6 0.1 0.6 0 1.3-0.1q0.7-0.2 1.1-0.7 0.5-0.5 0.7-1.2 0-0.3 0.1-0.7c0.2-0.9-0.1-1.9-0.8-2.6z"/>
					<path id="&lt;Path&gt;" class="s3" d="m270.3 194.1c-6.2 0-6 9.7 0.2 9.7 6.3 0 6-9.7-0.2-9.7z"/>
					<path id="&lt;Path&gt; copy" class="s3" d="m355 112c-1.4 0-1.3 2.1 0 2.1 1.4 0 1.3-2.1 0-2.1z"/>
					<path id="&lt;Path&gt; copy 2" class="s3" d="m264.7 111.1c-2.2 0-2.1 3.5 0.1 3.5 2.2 0 2.1-3.5-0.1-3.5z"/>
					<path id="&lt;Path&gt; copy 3" class="s3" d="m305.3 147c-3.2 0-3 4.9 0.1 4.9 3.2 0 3-4.9-0.1-4.9z"/>
					<path id="&lt;Path&gt; copy 4" class="s3" d="m490 234c-2.7 0-2.6 4.2 0.1 4.2 2.6 0 2.5-4.2-0.1-4.2z"/>
					<path id="&lt;Path&gt;" class="s3" d="m708.9 254.1c-3.5 0-3.4 5.3 0.1 5.3 3.5 0 3.3-5.3-0.1-5.3z"/>
					<path id="&lt;Path&gt;" class="s3" d="m646.4 110.3q-0.2-0.2-0.4-0.3c-0.4-0.4-0.9-0.6-1.4-0.8q-0.5-0.1-1.1 0-0.4 0-0.7 0.2-0.4 0.2-0.7 0.5-0.3 0.2-0.5 0.5-0.3 0.3-0.4 0.7-0.2 0.5-0.2 1.1 0.1 0.4 0.1 0.8l0.3 0.7q0.3 0.3 0.5 0.6 0.4 0.2 0.7 0.5 0.3 0.1 0.7 0.2 0.6 0.2 1.1 0 0.4 0 0.8-0.2 0.5-0.2 0.9-0.7 0.2-0.1 0.4-0.3c0.4-0.4 0.7-1.2 0.7-1.7-0.1-0.7-0.3-1.3-0.8-1.8z"/>
					<path id="&lt;Path&gt;" class="s3" d="m891 291.7c-4 0-3.8 6.2 0.2 6.2 4 0 3.8-6.2-0.2-6.2z"/>
					<path id="&lt;Path&gt;" class="s3" d="m1047.1 142.7q-0.4-0.3-0.9-0.6-0.9-0.5-2-0.5-0.8 0-1.5 0.4-0.8 0.3-1.3 0.9-0.6 0.6-0.8 1.4-0.4 0.7-0.3 1.5c0.1 1 0.5 2.1 1.3 2.8q0.4 0.3 0.9 0.6 0.9 0.5 2 0.5 0.8 0 1.5-0.4 0.8-0.2 1.3-0.9 0.6-0.6 0.8-1.3 0.3-0.7 0.3-1.5c-0.1-1.1-0.5-2.2-1.3-2.9z"/>
					<path id="&lt;Path&gt;" class="s4" d="m1192.6 261.8c-1.9 0-1.8 3 0.1 3 2 0 1.9-3-0.1-3z"/>
					<path id="&lt;Path&gt;" class="s3" d="m1089.6 234.3c-2.6 0-2.5 4 0.1 4 2.6 0 2.5-4-0.1-4z"/>
					<path id="&lt;Path&gt;" class="s3" d="m990.1 274.4c-2.8 0-2.7 4.4 0.1 4.4 2.8 0 2.7-4.4-0.1-4.4z"/>
					<path id="&lt;Path&gt;" class="s4" d="m1161.9 144.7c-2.7 0-2.6 4.1 0.1 4.1 2.6 0 2.5-4.1-0.1-4.1z"/>
					<path id="&lt;Path&gt;" class="s4" d="m1062.5 63.8c0-0.7-0.3-1.4-0.8-1.8-0.5-0.4-1.2-0.7-1.8-0.7-0.7 0.1-1.3 0.3-1.8 0.8-0.4 0.5-0.7 1.2-0.7 1.8q0.1 0.3 0.1 0.7 0.1 0.3 0.3 0.6 0.1 0.1 0.1 0.3 0.1 0.2 0.2 0.5 0.3 0.4 0.6 0.6c0.4 0.3 0.9 0.5 1.3 0.4 1 0 1.9-0.7 2.1-1.7q0 0 0-0.1c0.3-0.4 0.4-1 0.4-1.4z"/>
					<path id="&lt;Path&gt;" class="s3" d="m335.1 258.1q-0.3-0.9-1-1.6c-0.7-0.6-1.6-1-2.5-1q-0.8 0-1.4 0.4-0.7 0.2-1.2 0.8c-0.8 0.9-1.2 2.3-0.8 3.5q0.1 0.2 0.1 0.4 0.1 0.2 0.1 0.3 0.2 0.4 0.4 0.8 0.3 0.4 0.6 0.7 0.5 0.5 1.1 0.7 0.6 0.3 1.2 0.2 1.4-0.1 2.4-1 0.2-0.2 0.3-0.4 0.4-0.6 0.5-1.2 0.1-0.1 0.1-0.2 0.1-0.3 0.2-0.5 0.2-0.9-0.1-1.9z"/>
					<path id="&lt;Path&gt;" class="s3" d="m406.9 143c-3.5 0-3.3 5.3 0.1 5.3 3.5 0 3.3-5.3-0.1-5.3z"/>
					<path id="&lt;Path&gt;" class="s3" d="m479.1 274.1c-6 0-5.7 9.4 0.3 9.4 6 0 5.8-9.4-0.3-9.4z"/>
					<path id="&lt;Path&gt;" class="s3" d="m563.3 339c-3.8 0-3.6 5.9 0.2 5.9 3.8 0 3.6-5.9-0.2-5.9z"/>
					<path id="&lt;Path&gt;" class="s3" d="m843.1 391.8c-2.6 0-2.5 4.1 0.2 4.1 2.6 0 2.5-4.1-0.2-4.1z"/>
					<path id="&lt;Path&gt;" class="s4" d="m1027.1 404.5c-3.2 0-3.1 5.1 0.2 5.1 3.2 0 3.1-5.1-0.2-5.1z"/>
					<path id="&lt;Path&gt;" class="s3" d="m897.7 120q-0.1-0.7-0.4-1.2-0.3-0.4-0.7-0.8-0.1-0.1-0.2-0.3-0.3-0.2-0.6-0.4-0.5-0.3-1.1-0.3-0.3-0.1-0.7 0-0.4 0-0.7 0.2-0.4 0.1-0.6 0.4-0.4 0.3-0.6 0.6-0.4 0.3-0.6 0.8-0.2 0.4-0.3 0.8-0.2 0.6 0 1.2 0 0.7 0.4 1.3 0.3 0.3 0.6 0.7 0.4 0.4 1.1 0.6 0.6 0.3 1.2 0.2l0.9-0.1q0.6-0.2 1.1-0.6 0.6-0.4 0.9-1 0.1-0.4 0.3-0.8 0.1-0.7 0-1.3z"/>
					<path id="&lt;Path&gt;" class="s3" d="m713.2 103.3c-3.2 0-3.1 4.9 0.1 4.9 3.2 0 3.1-4.9-0.1-4.9z"/>
					<path id="&lt;Path&gt;" class="s3" d="m585.9 160.9c-4.1 0-4 6.4 0.2 6.4 4.1 0 3.9-6.4-0.2-6.4z"/>
					<path id="&lt;Path&gt;" class="s3" d="m711.3 384.1c-0.1-0.5-0.3-1-0.7-1.4-0.4-0.3-0.9-0.5-1.4-0.6q-0.3 0-0.6 0-0.4 0.1-0.6 0.2c-0.5 0.2-1 0.6-1.2 1.1-0.2 0.3-0.3 0.8-0.3 1.2q0 0.5 0.2 0.9 0.2 0.5 0.6 0.8 0.3 0.2 0.6 0.5c0.2 0.2 0.5 0.3 0.9 0.3 0.3 0.1 0.7 0 1-0.2l0.4-0.3q0.3-0.2 0.5-0.4 0.4-0.4 0.5-0.8 0.2-0.6 0.1-1.3z"/>
				</g>
				<g id="&lt;Group&gt;">
					<g id="&lt;Group&gt;">
						<path id="&lt;Path&gt;" class="s5" d="m824.7 620.1c-46-10-88-22-136-34-18-4-34-8-50-18 50 2 98 14 148 14-62-34-130-56-194-92-36-20-72-36-110-56-80-38-166-58-254-70-15.5-2.4-31.2-4.1-46.8-5-61.2 14.1-121.6 34.4-181.9 54.1v307.9h1500v-91.7c-40.5-4.5-81.1-9.6-121.6-14.8-185.1 22.8-363 41.1-553.7 5.5z"/>
						<path id="&lt;Path&gt;" class="s6" d="m770.7 502.1c24 14 46 28 68 44-110-18-204-74-308-110 26-10 54 8 82 6-68-24-132-52-198-80-23.3-9.2-47-16.6-71-21.7-54.7-1.3-108.5 6.3-161.8 18.7 15.6 0.9 31.3 2.6 46.8 5 88 12 174 32 254 70 38 20 74 36 110 56 64 36 132 58 194 92-50 0-98-12-148-14 16 10 32 14 50 18 48 12 90 24 136 34 190.7 35.6 368.6 17.3 553.7-5.5q-10.1-1.3-20.2-2.6-7.7 0-15.5 0.1c-196 2-392-30-572-110z"/>
						<path id="&lt;Path&gt;" class="s7" d="m572.7 414.1c-48-16-88-50-136-62-31.3-7.3-62.3-10.9-93-11.7 24 5.1 47.7 12.5 71 21.7 66 28 130 56 198 80-28 2-56-16-82-6 104 36 198 92 308 110-22-16-44-30-68-44 180 80 376 112 572 110q7.8-0.1 15.5-0.1c-56.5-7.3-113-14.5-169.5-19.9-216-20-410-108-616-178z"/>
						<path id="&lt;Path&gt;" class="s5" d="m1178.1 404.1c16.9-3.1 33.8 13.4 50.6 10-72 12-136 54-194 94 18-18 34-38 54-54-55.3 15.6-104.7 49.1-148.1 87.7 80.7 23.8 162.7 42.4 248.1 50.3 103.8 9.9 207.5 26 311.3 37.3v-188.3c-33.7-15.7-68.9-28.4-103.3-39-68.8-22.9-150.4-25.7-218.6 2z"/>
						<path id="&lt;Path&gt;" class="s8" d="m1178.1 404.1c-3.1 0.6-6.2 1.8-9.4 4q4.7-2.1 9.4-4z"/>
						<path id="&lt;Path&gt;" class="s6" d="m1224.3 344.1c-78.8 24.9-153.1 64.5-225.6 112-18 14-36 28-60 30 16-8 28-24 44-32-48.7 24.4-100.5 38.2-152.7 51.9 36.7 12.7 73.5 24.8 110.6 35.8 43.4-38.6 92.8-72.1 148.1-87.7-20 16-36 36-54 54 58-40 122-82 194-94-16.8 3.4-33.7-13.1-50.6-10q-4.7 1.9-9.4 4c3.2-2.2 6.3-3.4 9.4-4 68.2-27.7 149.8-24.9 218.6-2 34.4 10.6 69.6 23.3 103.3 39v-65.5c-92.7-16.1-184.6-35.4-275.7-31.5z"/>
						<path id="&lt;Path&gt;" class="s7" d="m938.7 486.1c24-2 42-16 60-30 72.5-47.5 146.8-87.1 225.6-112-43.3 1.8-86.6 8.9-129.6 24-30 10-58 28-86 44-63.3 35.6-127.5 63.4-192.5 89.1q6.9 2.4 13.8 4.8c52.2-13.7 104-27.5 152.7-51.9-16 8-28 24-44 32z"/>
					</g>
					<g id="&lt;Group&gt;">
						<g id="&lt;Group&gt;">
							<g id="&lt;Group&gt;">
								<path id="&lt;Path&gt;" class="s4" d="m620.6 531.3c6.3 22.5 10.4 46.9 16.6 69.5-1.8-2.2-5.7-4.5-7.4-8.6 3.9 15.6 7.2 31.5 10.4 47.5l6.2 0.4-27.5-176.8c1.7 26.1 3.6 52.2 8.9 78.6-1.7-4.2-5.5-6.5-7.2-10.6z"/>
								<path id="&lt;Path&gt;" class="s9" d="m562.6 633.5l77.6 6.2c-3.2-16-6.5-31.9-10.4-47.5 1.7 4.1 5.6 6.4 7.4 8.6-6.2-22.6-10.3-47-16.6-69.5 1.7 4.1 5.5 6.4 7.2 10.6-5.3-26.4-7.2-52.5-8.9-78.6l-0.4-2.9z"/>
							</g>
							<path id="&lt;Path&gt;" class="s4" d="m619.5 559.2c0.1 4 1.4 9.2 2.4 13.2 1.2 4.3 4.6 13 6.6 17 1-6.1-6.2-26.1-9-30.2z"/>
							<path id="&lt;Path&gt;" class="s4" d="m616.3 497.1c-0.5 4 0.1 9.3 0.5 13.4 0.5 4.4 2.7 13.5 4.1 17.8 1.9-5.9-2.4-26.8-4.6-31.2z"/>
							<path id="&lt;Path&gt;" class="s4" d="m622.4 590c0.2 6.2 2.2 14.2 3.8 20.3 1.8 6.8 7.1 20.2 10.2 26.5 1.6-9.5-9.6-40.6-14-46.8z"/>
							<path id="&lt;Path&gt;" class="s4" d="m616.9 584.3c0.2 6.2 2.2 14.2 3.8 20.3 1.7 6.8 7 20.2 10.2 26.5 1.6-9.5-9.6-40.6-14-46.8z"/>
						</g>
						<g id="&lt;Group&gt;">
							<g id="&lt;Group&gt;">
								<path id="&lt;Path&gt;" class="s4" d="m201.9 446.1c6.2 22.6 10.3 47 16.5 69.6-1.8-2.2-5.6-4.5-7.3-8.7 3.9 15.7 7.2 31.6 10.4 47.5l6.1 0.5-27.4-176.9c1.7 26.1 3.6 52.2 8.9 78.6-1.7-4.1-5.5-6.4-7.2-10.6z"/>
								<path id="&lt;Path&gt;" class="s9" d="m143.8 548.3l77.7 6.2c-3.2-15.9-6.5-31.8-10.4-47.5 1.7 4.2 5.5 6.5 7.3 8.7-6.2-22.6-10.3-47-16.5-69.6 1.7 4.2 5.5 6.5 7.2 10.6-5.3-26.4-7.2-52.5-8.9-78.6l-0.5-2.9z"/>
							</g>
							<path id="&lt;Path&gt;" class="s4" d="m200.8 474.1c0.1 4 1.4 9.2 2.4 13.1 1.1 4.4 4.5 13.1 6.6 17.1 1-6.1-6.2-26.2-9-30.2z"/>
							<path id="&lt;Path&gt;" class="s4" d="m197.5 412c-0.4 3.9 0.1 9.2 0.6 13.3 0.5 4.5 2.6 13.5 4.1 17.8 1.9-5.9-2.4-26.7-4.7-31.1z"/>
							<path id="&lt;Path&gt;" class="s4" d="m203.7 504.8c0.2 6.2 2.2 14.2 3.8 20.4 1.7 6.8 7 20.2 10.2 26.4 1.6-9.4-9.6-40.5-14-46.8z"/>
							<path id="&lt;Path&gt;" class="s4" d="m198.1 499.1c0.3 6.2 2.2 14.2 3.8 20.4 1.8 6.8 7.1 20.2 10.2 26.4 1.6-9.4-9.5-40.5-14-46.8z"/>
						</g>
						<g id="&lt;Group&gt;">
							<g id="&lt;Group&gt;">
								<path id="&lt;Path&gt;" class="s4" d="m242.6 464.7c6.2 22.6 10.3 47 16.5 69.6-1.8-2.2-5.6-4.5-7.3-8.6 3.9 15.6 7.2 31.5 10.3 47.4l6.2 0.5-27.4-176.8c1.6 26.1 3.5 52.2 8.9 78.5-1.7-4.1-5.5-6.4-7.2-10.6z"/>
								<path id="&lt;Path&gt;" class="s9" d="m184.5 567l77.6 6.1c-3.1-15.9-6.4-31.8-10.3-47.4 1.7 4.1 5.5 6.4 7.3 8.6-6.2-22.6-10.3-47-16.5-69.6 1.7 4.2 5.5 6.5 7.2 10.6-5.4-26.3-7.3-52.4-8.9-78.5l-0.5-2.9z"/>
							</g>
							<path id="&lt;Path&gt;" class="s4" d="m241.4 492.7c0.2 4 1.4 9.2 2.5 13.1 1.1 4.4 4.5 13.1 6.5 17.1 1.1-6.1-6.1-26.1-9-30.2z"/>
							<path id="&lt;Path&gt;" class="s4" d="m238.2 430.6c-0.4 4 0.1 9.3 0.6 13.3 0.5 4.5 2.6 13.6 4.1 17.8 1.8-5.9-2.4-26.7-4.7-31.1z"/>
							<path id="&lt;Path&gt;" class="s4" d="m244.4 523.4c0.2 6.2 2.1 14.3 3.7 20.4 1.8 6.8 7.1 20.2 10.2 26.5 1.6-9.5-9.5-40.6-13.9-46.9z"/>
							<path id="&lt;Path&gt;" class="s4" d="m238.8 517.7c0.2 6.2 2.2 14.3 3.8 20.4 1.8 6.8 7.1 20.2 10.2 26.5 1.6-9.5-9.6-40.6-14-46.9z"/>
						</g>
						<g id="&lt;Group&gt;">
							<g id="&lt;Group&gt;">
								<path id="&lt;Path&gt;" class="s4" d="m283.7 478c6.2 22.6 10.3 47 16.5 69.6-1.8-2.2-5.6-4.5-7.3-8.7 3.9 15.7 7.2 31.6 10.3 47.5l6.2 0.5-27.4-176.8c1.6 26 3.5 52.1 8.9 78.5-1.7-4.1-5.5-6.4-7.2-10.6z"/>
								<path id="&lt;Path&gt;" class="s9" d="m225.6 580.2l77.6 6.2c-3.1-15.9-6.4-31.8-10.3-47.5 1.7 4.2 5.5 6.5 7.3 8.7-6.2-22.6-10.3-47-16.5-69.6 1.7 4.2 5.5 6.5 7.2 10.6-5.4-26.4-7.3-52.5-8.9-78.5l-0.5-3z"/>
							</g>
							<path id="&lt;Path&gt;" class="s4" d="m282.5 506c0.2 4 1.4 9.2 2.5 13.1 1.1 4.4 4.5 13.1 6.6 17.1 1-6.1-6.2-26.1-9.1-30.2z"/>
							<path id="&lt;Path&gt;" class="s4" d="m279.3 443.9c-0.4 3.9 0.1 9.2 0.6 13.3 0.5 4.5 2.6 13.5 4.1 17.8 1.8-5.9-2.4-26.7-4.7-31.1z"/>
							<path id="&lt;Path&gt;" class="s4" d="m285.5 536.7c0.2 6.2 2.1 14.2 3.7 20.4 1.8 6.8 7.1 20.2 10.3 26.4 1.5-9.4-9.6-40.5-14-46.8z"/>
							<path id="&lt;Path&gt;" class="s4" d="m279.9 531c0.2 6.2 2.2 14.2 3.8 20.4 1.8 6.8 7.1 20.2 10.2 26.4 1.6-9.4-9.5-40.5-14-46.8z"/>
						</g>
						<g id="&lt;Group&gt;">
							<g id="&lt;Group&gt;">
								<path id="&lt;Path&gt;" class="s4" d="m342.2 488.1c6.2 22.5 10.3 46.9 16.5 69.5-1.8-2.2-5.7-4.5-7.3-8.6 3.8 15.6 7.2 31.5 10.3 47.4l6.2 0.5-27.4-176.8c1.6 26.1 3.5 52.2 8.8 78.6-1.6-4.2-5.5-6.5-7.1-10.6z"/>
								<path id="&lt;Path&gt;" class="s9" d="m284.1 590.3l77.6 6.1c-3.1-15.9-6.5-31.8-10.3-47.4 1.6 4.1 5.5 6.4 7.3 8.6-6.2-22.6-10.3-47-16.5-69.5 1.6 4.1 5.5 6.4 7.1 10.6-5.3-26.4-7.2-52.5-8.8-78.6l-0.5-2.9z"/>
							</g>
							<path id="&lt;Path&gt;" class="s4" d="m341 516c0.1 4 1.4 9.2 2.5 13.2 1.1 4.3 4.5 13 6.5 17 1.1-6.1-6.1-26.1-9-30.2z"/>
							<path id="&lt;Path&gt;" class="s4" d="m337.8 453.9c-0.4 4 0.1 9.3 0.5 13.3 0.6 4.5 2.7 13.6 4.1 17.9 1.9-5.9-2.4-26.8-4.6-31.2z"/>
							<path id="&lt;Path&gt;" class="s4" d="m343.9 546.7c0.3 6.3 2.2 14.3 3.8 20.4 1.8 6.8 7.1 20.2 10.2 26.5 1.6-9.5-9.5-40.6-14-46.9z"/>
							<path id="&lt;Path&gt;" class="s4" d="m338.4 541c0.2 6.3 2.2 14.3 3.8 20.4 1.8 6.8 7 20.2 10.2 26.5 1.6-9.5-9.6-40.6-14-46.9z"/>
						</g>
						<g id="&lt;Group&gt;">
							<g id="&lt;Group&gt;">
								<path id="&lt;Path&gt;" class="s4" d="m406.1 504.6c6.2 22.6 10.3 47 16.6 69.5-1.9-2.1-5.7-4.4-7.4-8.6 3.9 15.7 7.2 31.5 10.4 47.5l6.1 0.5-27.4-176.9c1.7 26.1 3.6 52.2 8.9 78.6-1.7-4.1-5.5-6.5-7.2-10.6z"/>
								<path id="&lt;Path&gt;" class="s9" d="m348 606.8l77.7 6.2c-3.2-16-6.5-31.8-10.4-47.5 1.7 4.2 5.5 6.5 7.4 8.6-6.3-22.5-10.4-46.9-16.6-69.5 1.7 4.1 5.5 6.5 7.2 10.6-5.3-26.4-7.2-52.5-8.9-78.6l-0.4-2.9z"/>
							</g>
							<path id="&lt;Path&gt;" class="s4" d="m405 532.6c0.1 4 1.4 9.1 2.4 13.1 1.1 4.4 4.5 13 6.6 17.1 1-6.1-6.2-26.2-9-30.2z"/>
							<path id="&lt;Path&gt;" class="s4" d="m401.7 470.4c-0.4 4 0.1 9.3 0.6 13.4 0.5 4.5 2.7 13.5 4.1 17.8 1.9-5.9-2.4-26.7-4.7-31.2z"/>
							<path id="&lt;Path&gt;" class="s4" d="m407.9 563.3c0.2 6.2 2.2 14.2 3.8 20.4 1.7 6.7 7 20.2 10.2 26.4 1.6-9.5-9.6-40.5-14-46.8z"/>
							<path id="&lt;Path&gt;" class="s4" d="m402.4 557.6c0.2 6.2 2.1 14.2 3.7 20.4 1.8 6.7 7.1 20.2 10.2 26.4 1.6-9.5-9.5-40.5-13.9-46.8z"/>
						</g>
						<g id="&lt;Group&gt;">
							<g id="&lt;Group&gt;">
								<path id="&lt;Path&gt;" class="s4" d="m479.5 514.6c6.2 22.5 10.3 46.9 16.5 69.5-1.8-2.2-5.7-4.5-7.3-8.6 3.8 15.6 7.2 31.5 10.3 47.5l6.2 0.4-27.4-176.8c1.6 26.1 3.5 52.2 8.8 78.6-1.6-4.2-5.5-6.5-7.1-10.6z"/>
								<path id="&lt;Path&gt;" class="s9" d="m421.4 616.8l77.6 6.2c-3.1-16-6.5-31.9-10.3-47.5 1.6 4.1 5.5 6.4 7.3 8.6-6.2-22.6-10.3-47-16.5-69.5 1.6 4.1 5.5 6.4 7.1 10.6-5.3-26.4-7.2-52.5-8.8-78.6l-0.5-2.9z"/>
							</g>
							<path id="&lt;Path&gt;" class="s4" d="m478.3 542.5c0.1 4 1.4 9.2 2.5 13.2 1.1 4.3 4.5 13 6.5 17 1.1-6.1-6.1-26.1-9-30.2z"/>
							<path id="&lt;Path&gt;" class="s4" d="m475.1 480.4c-0.5 4 0.1 9.3 0.5 13.4 0.6 4.4 2.7 13.5 4.1 17.8 1.9-5.9-2.4-26.8-4.6-31.2z"/>
							<path id="&lt;Path&gt;" class="s4" d="m481.2 573.3c0.2 6.2 2.2 14.2 3.8 20.3 1.8 6.8 7.1 20.2 10.2 26.5 1.6-9.5-9.5-40.5-14-46.8z"/>
							<path id="&lt;Path&gt;" class="s4" d="m475.7 567.6c0.2 6.2 2.2 14.2 3.8 20.3 1.8 6.8 7 20.2 10.2 26.5 1.6-9.5-9.6-40.6-14-46.8z"/>
						</g>
						<g id="&lt;Group&gt;">
							<g id="&lt;Group&gt;">
								<path id="&lt;Path&gt;" class="s4" d="m552.8 525.1c6.2 22.6 10.3 47 16.5 69.6-1.8-2.2-5.7-4.5-7.3-8.6 3.8 15.6 7.2 31.5 10.3 47.4l6.2 0.5-27.4-176.8c1.6 26.1 3.5 52.2 8.8 78.5-1.6-4.1-5.5-6.4-7.1-10.6z"/>
								<path id="&lt;Path&gt;" class="s9" d="m494.7 627.4l77.6 6.1c-3.2-15.9-6.5-31.8-10.3-47.4 1.6 4.1 5.5 6.4 7.3 8.6-6.2-22.6-10.3-47-16.5-69.6 1.6 4.2 5.5 6.5 7.1 10.6-5.3-26.3-7.2-52.4-8.8-78.5l-0.5-2.9z"/>
							</g>
							<path id="&lt;Path&gt;" class="s4" d="m551.6 553.1c0.1 4 1.4 9.2 2.4 13.2 1.2 4.3 4.6 13 6.6 17 1.1-6.1-6.1-26.1-9-30.2z"/>
							<path id="&lt;Path&gt;" class="s4" d="m548.4 491c-0.5 4 0.1 9.3 0.5 13.3 0.6 4.5 2.7 13.6 4.1 17.8 1.9-5.8-2.4-26.7-4.6-31.1z"/>
							<path id="&lt;Path&gt;" class="s4" d="m554.5 583.8c0.2 6.2 2.2 14.3 3.8 20.4 1.8 6.8 7.1 20.2 10.2 26.5 1.6-9.5-9.5-40.6-14-46.9z"/>
							<path id="&lt;Path&gt;" class="s4" d="m549 578.1c0.2 6.2 2.2 14.3 3.8 20.4 1.8 6.8 7 20.2 10.2 26.5 1.6-9.5-9.6-40.6-14-46.9z"/>
						</g>
						<g id="&lt;Group&gt;">
							<g id="&lt;Group&gt;">
								<path id="&lt;Path&gt;" class="s4" d="m511.4 542.3c6.3 22.6 10.4 47 16.6 69.6-1.9-2.2-5.7-4.5-7.4-8.6 3.9 15.6 7.2 31.5 10.4 47.4l6.2 0.5-27.5-176.8c1.7 26.1 3.6 52.2 8.9 78.5-1.7-4.1-5.5-6.4-7.2-10.6z"/>
								<path id="&lt;Path&gt;" class="s9" d="m453.4 644.6l77.6 6.1c-3.2-15.9-6.5-31.8-10.4-47.4 1.7 4.1 5.5 6.4 7.4 8.6-6.2-22.6-10.3-47-16.6-69.6 1.7 4.2 5.5 6.5 7.2 10.6-5.3-26.3-7.2-52.4-8.9-78.5l-0.4-2.9z"/>
							</g>
							<path id="&lt;Path&gt;" class="s4" d="m510.3 570.3c0.1 4 1.4 9.2 2.4 13.1 1.2 4.4 4.6 13.1 6.6 17.1 1-6.1-6.2-26.1-9-30.2z"/>
							<path id="&lt;Path&gt;" class="s4" d="m507.1 508.2c-0.5 4 0.1 9.3 0.5 13.3 0.5 4.5 2.7 13.6 4.1 17.8 1.9-5.9-2.4-26.7-4.6-31.1z"/>
							<path id="&lt;Path&gt;" class="s4" d="m513.2 601c0.2 6.2 2.2 14.3 3.8 20.4 1.8 6.8 7.1 20.2 10.2 26.5 1.6-9.5-9.6-40.6-14-46.9z"/>
							<path id="&lt;Path&gt;" class="s4" d="m507.7 595.3c0.2 6.2 2.2 14.3 3.8 20.4 1.7 6.8 7 20.2 10.2 26.5 1.6-9.5-9.6-40.6-14-46.9z"/>
						</g>
						<g id="&lt;Group&gt;">
							<g id="&lt;Group&gt;">
								<path id="&lt;Path&gt;" class="s4" d="m575.8 561.7c6.3 22.6 10.4 47 16.6 69.5-1.8-2.1-5.7-4.4-7.3-8.6 3.8 15.7 7.1 31.6 10.3 47.5l6.2 0.5-27.5-176.9c1.7 26.1 3.6 52.2 8.9 78.6-1.6-4.1-5.5-6.4-7.2-10.6z"/>
								<path id="&lt;Path&gt;" class="s9" d="m517.8 663.9l77.6 6.2c-3.2-15.9-6.5-31.8-10.3-47.5 1.6 4.2 5.5 6.5 7.3 8.6-6.2-22.5-10.3-46.9-16.6-69.5 1.7 4.2 5.6 6.5 7.2 10.6-5.3-26.4-7.2-52.5-8.9-78.6l-0.4-2.9z"/>
							</g>
							<path id="&lt;Path&gt;" class="s4" d="m574.7 589.7c0.1 4 1.4 9.2 2.4 13.1 1.2 4.4 4.6 13 6.6 17.1 1-6.1-6.2-26.2-9-30.2z"/>
							<path id="&lt;Path&gt;" class="s4" d="m571.5 527.6c-0.5 3.9 0.1 9.2 0.5 13.3 0.5 4.5 2.7 13.5 4.1 17.8 1.9-5.9-2.4-26.7-4.6-31.1z"/>
							<path id="&lt;Path&gt;" class="s4" d="m577.6 620.4c0.2 6.2 2.2 14.2 3.8 20.4 1.8 6.7 7.1 20.2 10.2 26.4 1.6-9.4-9.6-40.5-14-46.8z"/>
							<path id="&lt;Path&gt;" class="s4" d="m572.1 614.7c0.2 6.2 2.2 14.2 3.8 20.4 1.7 6.7 7 20.2 10.2 26.4 1.6-9.4-9.6-40.5-14-46.8z"/>
						</g>
						<g id="&lt;Group&gt;">
							<g id="&lt;Group&gt;">
								<path id="&lt;Path&gt;" class="s4" d="m444.1 557.7c6.2 22.6 10.3 47 16.5 69.6-1.8-2.2-5.7-4.5-7.3-8.7 3.8 15.7 7.1 31.6 10.3 47.5l6.2 0.5-27.5-176.8c1.7 26 3.6 52.2 8.9 78.5-1.6-4.1-5.5-6.4-7.1-10.6z"/>
								<path id="&lt;Path&gt;" class="s9" d="m386 659.9l77.6 6.2c-3.2-15.9-6.5-31.8-10.3-47.5 1.6 4.2 5.5 6.5 7.3 8.7-6.2-22.6-10.3-47-16.5-69.6 1.6 4.2 5.5 6.5 7.1 10.6-5.3-26.3-7.2-52.5-8.9-78.5l-0.4-3z"/>
							</g>
							<path id="&lt;Path&gt;" class="s4" d="m442.9 585.7c0.1 4 1.4 9.2 2.4 13.1 1.2 4.4 4.6 13.1 6.6 17.1 1-6.1-6.1-26.1-9-30.2z"/>
							<path id="&lt;Path&gt;" class="s4" d="m439.7 523.6c-0.5 4 0.1 9.3 0.5 13.3 0.5 4.5 2.7 13.6 4.1 17.8 1.9-5.9-2.4-26.7-4.6-31.1z"/>
							<path id="&lt;Path&gt;" class="s4" d="m445.8 616.4c0.2 6.2 2.2 14.2 3.8 20.4 1.8 6.8 7.1 20.2 10.2 26.4 1.6-9.4-9.5-40.5-14-46.8z"/>
							<path id="&lt;Path&gt;" class="s4" d="m440.3 610.7c0.2 6.2 2.2 14.2 3.8 20.4 1.7 6.8 7 20.2 10.2 26.4 1.6-9.4-9.6-40.5-14-46.8z"/>
						</g>
						<g id="&lt;Group&gt;">
							<g id="&lt;Group&gt;">
								<path id="&lt;Path&gt;" class="s4" d="m194.7 537.3c6.2 22.5 10.3 46.9 16.5 69.5-1.8-2.1-5.7-4.5-7.3-8.6 3.8 15.6 7.1 31.5 10.3 47.5l6.2 0.4-27.4-176.8c1.6 26.1 3.5 52.2 8.8 78.6-1.6-4.2-5.5-6.5-7.1-10.6z"/>
								<path id="&lt;Path&gt;" class="s9" d="m136.6 639.5l77.6 6.2c-3.2-16-6.5-31.9-10.3-47.5 1.6 4.1 5.5 6.5 7.3 8.6-6.2-22.6-10.3-47-16.5-69.5 1.6 4.1 5.5 6.4 7.1 10.6-5.3-26.4-7.2-52.5-8.8-78.6l-0.5-2.9z"/>
							</g>
							<path id="&lt;Path&gt;" class="s4" d="m193.5 565.3c0.1 4 1.4 9.1 2.4 13.1 1.2 4.3 4.6 13 6.6 17 1-6.1-6.1-26.1-9-30.1z"/>
							<path id="&lt;Path&gt;" class="s4" d="m190.3 503.1c-0.5 4 0.1 9.3 0.5 13.4 0.6 4.4 2.7 13.5 4.1 17.8 1.9-5.9-2.4-26.8-4.6-31.2z"/>
							<path id="&lt;Path&gt;" class="s4" d="m196.4 596c0.2 6.2 2.2 14.2 3.8 20.3 1.8 6.8 7.1 20.2 10.2 26.5 1.6-9.5-9.5-40.5-14-46.8z"/>
							<path id="&lt;Path&gt;" class="s4" d="m190.9 590.3c0.2 6.2 2.2 14.2 3.8 20.3 1.8 6.8 7 20.2 10.2 26.5 1.6-9.5-9.6-40.5-14-46.8z"/>
						</g>
						<g id="&lt;Group&gt;">
							<g id="&lt;Group&gt;">
								<path id="&lt;Path&gt;" class="s4" d="m315 536.8c6.2 22.6 10.3 47 16.5 69.6-1.8-2.2-5.6-4.5-7.3-8.7 3.8 15.7 7.2 31.6 10.3 47.5l6.2 0.5-27.4-176.8c1.6 26 3.5 52.2 8.9 78.5-1.7-4.1-5.5-6.4-7.2-10.6z"/>
								<path id="&lt;Path&gt;" class="s9" d="m256.9 639l77.6 6.2c-3.1-15.9-6.5-31.8-10.3-47.5 1.7 4.2 5.5 6.5 7.3 8.7-6.2-22.6-10.3-47-16.5-69.6 1.7 4.2 5.5 6.5 7.2 10.6-5.4-26.3-7.3-52.5-8.9-78.5l-0.5-3z"/>
							</g>
							<path id="&lt;Path&gt;" class="s4" d="m313.8 564.8c0.2 4 1.4 9.2 2.5 13.1 1.1 4.4 4.5 13.1 6.5 17.1 1.1-6.1-6.1-26.1-9-30.2z"/>
							<path id="&lt;Path&gt;" class="s4" d="m310.6 502.7c-0.4 4 0.1 9.2 0.6 13.3 0.5 4.5 2.6 13.6 4.1 17.8 1.8-5.9-2.5-26.7-4.7-31.1z"/>
							<path id="&lt;Path&gt;" class="s4" d="m316.8 595.5c0.2 6.2 2.1 14.2 3.7 20.4 1.8 6.8 7.1 20.2 10.2 26.4 1.6-9.4-9.5-40.5-13.9-46.8z"/>
							<path id="&lt;Path&gt;" class="s4" d="m311.2 589.8c0.2 6.2 2.2 14.2 3.8 20.4 1.8 6.8 7.1 20.2 10.2 26.4 1.6-9.4-9.6-40.5-14-46.8z"/>
						</g>
						<g id="&lt;Group&gt;">
							<g id="&lt;Group&gt;">
								<path id="&lt;Path&gt;" class="s4" d="m244.1 549.8c6.2 22.6 10.3 47 16.5 69.5-1.8-2.1-5.7-4.4-7.3-8.6 3.8 15.7 7.2 31.6 10.3 47.5l6.2 0.5-27.4-176.9c1.6 26.1 3.5 52.2 8.8 78.6-1.6-4.1-5.5-6.4-7.1-10.6z"/>
								<path id="&lt;Path&gt;" class="s9" d="m186 652l77.6 6.2c-3.1-15.9-6.5-31.8-10.3-47.5 1.6 4.2 5.5 6.5 7.3 8.6-6.2-22.5-10.3-46.9-16.5-69.5 1.6 4.2 5.5 6.5 7.1 10.6-5.3-26.4-7.2-52.5-8.8-78.6l-0.5-2.9z"/>
							</g>
							<path id="&lt;Path&gt;" class="s4" d="m242.9 577.8c0.1 4 1.4 9.2 2.5 13.1 1.1 4.4 4.5 13 6.5 17.1 1.1-6.1-6.1-26.2-9-30.2z"/>
							<path id="&lt;Path&gt;" class="s4" d="m239.7 515.7c-0.4 3.9 0.1 9.2 0.5 13.3 0.6 4.5 2.7 13.5 4.1 17.8 1.9-5.9-2.4-26.7-4.6-31.1z"/>
							<path id="&lt;Path&gt;" class="s4" d="m245.8 608.5c0.3 6.2 2.2 14.2 3.8 20.4 1.8 6.7 7.1 20.2 10.2 26.4 1.6-9.4-9.5-40.5-14-46.8z"/>
							<path id="&lt;Path&gt;" class="s4" d="m240.3 602.8c0.2 6.2 2.2 14.2 3.8 20.4 1.8 6.7 7 20.2 10.2 26.4 1.6-9.4-9.6-40.5-14-46.8z"/>
						</g>
						<g id="&lt;Group&gt;">
							<g id="&lt;Group&gt;">
								<path id="&lt;Path&gt;" class="s4" d="m367.9 566.4c6.3 22.6 10.3 47 16.6 69.5-1.9-2.1-5.7-4.4-7.4-8.6 3.9 15.7 7.2 31.6 10.4 47.5l6.1 0.5-27.4-176.9c1.7 26.1 3.6 52.2 8.9 78.6-1.7-4.1-5.5-6.4-7.2-10.6z"/>
								<path id="&lt;Path&gt;" class="s9" d="m309.8 668.6l77.7 6.2c-3.2-15.9-6.5-31.8-10.4-47.5 1.7 4.2 5.5 6.5 7.4 8.6-6.3-22.5-10.3-46.9-16.6-69.5 1.7 4.2 5.5 6.5 7.2 10.6-5.3-26.4-7.2-52.5-8.9-78.6l-0.4-2.9z"/>
							</g>
							<path id="&lt;Path&gt;" class="s4" d="m366.8 594.4c0.1 4 1.4 9.2 2.4 13.1 1.1 4.4 4.6 13 6.6 17.1 1-6.1-6.2-26.2-9-30.2z"/>
							<path id="&lt;Path&gt;" class="s4" d="m363.5 532.3c-0.4 3.9 0.1 9.2 0.6 13.3 0.5 4.5 2.7 13.5 4.1 17.8 1.9-5.9-2.4-26.7-4.7-31.1z"/>
							<path id="&lt;Path&gt;" class="s4" d="m369.7 625.1c0.2 6.2 2.2 14.2 3.8 20.4 1.7 6.7 7 20.2 10.2 26.4 1.6-9.4-9.6-40.5-14-46.8z"/>
							<path id="&lt;Path&gt;" class="s4" d="m364.2 619.4c0.2 6.2 2.1 14.2 3.7 20.4 1.8 6.7 7.1 20.2 10.3 26.4 1.5-9.4-9.6-40.5-14-46.8z"/>
						</g>
					</g>
					<g id="&lt;Group&gt;">
						<g id="&lt;Group&gt;">
							<g id="&lt;Group&gt;">
								<path id="&lt;Path&gt;" class="s4" d="m951.6 569.4c-6.7 22.4-11.3 46.7-18 69.2 1.9-2.1 5.8-4.4 7.6-8.5-4.2 15.6-7.9 31.4-11.4 47.3l-6.1 0.3 31-176.2c-2.2 26-4.6 52.1-10.5 78.3 1.8-4.1 5.7-6.3 7.4-10.4z"/>
								<path id="&lt;Path&gt;" class="s9" d="m1007.6 672.8l-77.8 4.6c3.5-15.9 7.2-31.7 11.4-47.3-1.8 4.1-5.7 6.4-7.6 8.5 6.7-22.5 11.3-46.8 18-69.2-1.7 4.1-5.6 6.3-7.4 10.4 5.9-26.2 8.3-52.3 10.5-78.3l0.5-2.9z"/>
							</g>
							<path id="&lt;Path&gt;" class="s4" d="m952.2 597.4c-0.2 4-1.6 9.1-2.7 13.1-1.2 4.3-4.8 12.9-6.9 16.9-0.9-6.1 6.7-26 9.6-30z"/>
							<path id="&lt;Path&gt;" class="s4" d="m956.7 535.3c0.4 4-0.3 9.3-0.8 13.4-0.6 4.4-3 13.4-4.5 17.7-1.8-5.9 3-26.7 5.3-31.1z"/>
							<path id="&lt;Path&gt;" class="s4" d="m948.6 628c-0.3 6.2-2.4 14.2-4.2 20.3-1.9 6.8-7.4 20.1-10.7 26.3-1.4-9.5 10.4-40.4 14.9-46.6z"/>
							<path id="&lt;Path&gt;" class="s4" d="m954.3 622.5c-0.4 6.2-2.5 14.1-4.2 20.2-1.9 6.8-7.5 20.1-10.8 26.3-1.4-9.5 10.4-40.4 15-46.5z"/>
						</g>
						<g id="&lt;Group&gt;">
							<g id="&lt;Group&gt;">
								<path id="&lt;Path&gt;" class="s4" d="m1372 492.9c-6.7 22.5-11.2 46.8-17.9 69.2 1.8-2.1 5.7-4.3 7.5-8.4-4.2 15.5-7.9 31.3-11.4 47.2l-6.1 0.4 31-176.3c-2.1 26.1-4.6 52.1-10.5 78.4 1.8-4.1 5.7-6.3 7.4-10.5z"/>
								<path id="&lt;Path&gt;" class="s9" d="m1428 596.3l-77.8 4.6c3.5-15.9 7.2-31.7 11.4-47.2-1.8 4.1-5.7 6.3-7.5 8.4 6.7-22.4 11.2-46.7 17.9-69.2-1.7 4.2-5.6 6.4-7.4 10.5 5.9-26.3 8.4-52.3 10.5-78.4l0.6-2.9z"/>
							</g>
							<path id="&lt;Path&gt;" class="s4" d="m1372.6 520.9c-0.2 4-1.6 9.2-2.7 13.1-1.2 4.3-4.8 12.9-6.9 16.9-0.9-6.1 6.7-26 9.6-30z"/>
							<path id="&lt;Path&gt;" class="s4" d="m1377.1 458.9c0.4 4-0.3 9.3-0.8 13.3-0.6 4.5-3 13.5-4.5 17.7-1.7-5.9 3-26.6 5.3-31z"/>
							<path id="&lt;Path&gt;" class="s4" d="m1369 551.6c-0.3 6.2-2.4 14.2-4.2 20.3-1.9 6.7-7.4 20-10.7 26.2-1.4-9.5 10.4-40.3 14.9-46.5z"/>
							<path id="&lt;Path&gt;" class="s4" d="m1374.7 546c-0.3 6.2-2.5 14.2-4.2 20.3-1.9 6.7-7.5 20-10.8 26.2-1.4-9.5 10.4-40.3 15-46.5z"/>
						</g>
						<g id="&lt;Group&gt;">
							<g id="&lt;Group&gt;">
								<path id="&lt;Path&gt;" class="s4" d="m1331 510.7c-6.7 22.4-11.3 46.8-18 69.2 1.9-2.1 5.8-4.4 7.5-8.5-4.2 15.6-7.8 31.4-11.3 47.3l-6.2 0.3 31.1-176.2c-2.2 26-4.7 52.1-10.5 78.4 1.7-4.1 5.6-6.4 7.4-10.5z"/>
								<path id="&lt;Path&gt;" class="s9" d="m1386.9 614.1l-77.7 4.6c3.5-15.9 7.1-31.7 11.3-47.3-1.7 4.1-5.6 6.4-7.5 8.5 6.7-22.4 11.3-46.8 18-69.2-1.8 4.1-5.7 6.4-7.4 10.5 5.8-26.3 8.3-52.4 10.5-78.4l0.5-2.9z"/>
							</g>
							<path id="&lt;Path&gt;" class="s4" d="m1331.6 538.7c-0.3 4-1.6 9.1-2.8 13.1-1.2 4.3-4.8 12.9-6.9 16.9-0.9-6.1 6.7-26 9.7-30z"/>
							<path id="&lt;Path&gt;" class="s4" d="m1336.1 476.7c0.3 4-0.3 9.2-0.9 13.3-0.6 4.5-2.9 13.5-4.4 17.7-1.8-5.9 2.9-26.7 5.3-31z"/>
							<path id="&lt;Path&gt;" class="s4" d="m1328 569.4c-0.3 6.2-2.5 14.1-4.2 20.2-1.9 6.8-7.5 20.1-10.8 26.3-1.4-9.5 10.4-40.3 15-46.5z"/>
							<path id="&lt;Path&gt;" class="s4" d="m1333.6 563.8c-0.3 6.2-2.4 14.2-4.2 20.3-1.9 6.7-7.4 20-10.7 26.2-1.4-9.5 10.4-40.3 14.9-46.5z"/>
						</g>
						<g id="&lt;Group&gt;">
							<g id="&lt;Group&gt;">
								<path id="&lt;Path&gt;" class="s4" d="m1289.6 523.1c-6.7 22.5-11.3 46.8-18 69.2 1.9-2.1 5.8-4.3 7.5-8.4-4.1 15.5-7.8 31.3-11.3 47.2l-6.2 0.4 31.1-176.3c-2.2 26.1-4.6 52.1-10.5 78.4 1.8-4.1 5.6-6.3 7.4-10.5z"/>
								<path id="&lt;Path&gt;" class="s9" d="m1345.6 626.5l-77.8 4.6c3.5-15.9 7.2-31.7 11.3-47.2-1.7 4.1-5.6 6.3-7.5 8.4 6.7-22.4 11.3-46.7 18-69.2-1.8 4.2-5.6 6.4-7.4 10.5 5.9-26.3 8.3-52.3 10.5-78.4l0.5-2.9z"/>
							</g>
							<path id="&lt;Path&gt;" class="s4" d="m1290.2 551.1c-0.2 4-1.6 9.2-2.7 13.1-1.3 4.3-4.8 12.9-7 16.9-0.9-6.1 6.8-26 9.7-30z"/>
							<path id="&lt;Path&gt;" class="s4" d="m1294.7 489.1c0.3 4-0.3 9.3-0.8 13.3-0.6 4.5-3 13.5-4.5 17.7-1.8-5.9 3-26.6 5.3-31z"/>
							<path id="&lt;Path&gt;" class="s4" d="m1286.6 581.8c-0.3 6.2-2.5 14.2-4.2 20.3-1.9 6.7-7.5 20-10.7 26.2-1.4-9.5 10.4-40.3 14.9-46.5z"/>
							<path id="&lt;Path&gt;" class="s4" d="m1292.3 576.2c-0.4 6.2-2.5 14.2-4.2 20.3-1.9 6.7-7.5 20-10.8 26.2-1.4-9.5 10.4-40.3 15-46.5z"/>
						</g>
						<g id="&lt;Group&gt;">
							<g id="&lt;Group&gt;">
								<path id="&lt;Path&gt;" class="s4" d="m1230.9 532c-6.7 22.4-11.2 46.7-17.9 69.1 1.8-2.1 5.7-4.3 7.5-8.4-4.2 15.5-7.9 31.3-11.4 47.2l-6.1 0.4 31-176.3c-2.1 26.1-4.6 52.1-10.5 78.4 1.8-4.1 5.7-6.3 7.4-10.4z"/>
								<path id="&lt;Path&gt;" class="s9" d="m1286.9 635.4l-77.8 4.5c3.5-15.9 7.2-31.7 11.4-47.2-1.8 4.1-5.7 6.3-7.5 8.4 6.7-22.4 11.2-46.7 17.9-69.1-1.7 4.1-5.6 6.3-7.4 10.4 5.9-26.3 8.4-52.3 10.5-78.4l0.6-2.9z"/>
							</g>
							<path id="&lt;Path&gt;" class="s4" d="m1231.5 560c-0.2 3.9-1.6 9.1-2.7 13-1.2 4.4-4.8 13-6.9 16.9-0.9-6.1 6.7-26 9.6-29.9z"/>
							<path id="&lt;Path&gt;" class="s4" d="m1236 497.9c0.4 4-0.3 9.3-0.8 13.3-0.6 4.5-3 13.5-4.5 17.8-1.7-6 3-26.7 5.3-31.1z"/>
							<path id="&lt;Path&gt;" class="s4" d="m1227.9 590.6c-0.3 6.2-2.4 14.2-4.2 20.3-1.9 6.7-7.4 20-10.7 26.2-1.4-9.5 10.4-40.3 14.9-46.5z"/>
							<path id="&lt;Path&gt;" class="s4" d="m1233.6 585c-0.3 6.2-2.5 14.2-4.2 20.3-1.9 6.7-7.5 20.1-10.8 26.2-1.4-9.5 10.4-40.3 15-46.5z"/>
						</g>
						<g id="&lt;Group&gt;">
							<g id="&lt;Group&gt;">
								<path id="&lt;Path&gt;" class="s4" d="m1166.7 547.2c-6.7 22.4-11.3 46.7-18 69.1 1.9-2.1 5.7-4.3 7.5-8.4-4.2 15.6-7.8 31.4-11.3 47.2l-6.2 0.4 31.1-176.2c-2.2 26-4.7 52.1-10.5 78.3 1.7-4.1 5.6-6.3 7.4-10.4z"/>
								<path id="&lt;Path&gt;" class="s9" d="m1222.6 650.6l-77.7 4.5c3.5-15.8 7.1-31.6 11.3-47.2-1.8 4.1-5.6 6.3-7.5 8.4 6.7-22.4 11.3-46.7 18-69.1-1.8 4.1-5.7 6.3-7.4 10.4 5.8-26.2 8.3-52.3 10.5-78.3l0.5-3z"/>
							</g>
							<path id="&lt;Path&gt;" class="s4" d="m1167.2 575.2c-0.2 4-1.6 9.1-2.7 13-1.2 4.4-4.8 13-6.9 17-0.9-6.2 6.7-26 9.6-30z"/>
							<path id="&lt;Path&gt;" class="s4" d="m1171.7 513.1c0.4 4-0.2 9.3-0.8 13.3-0.6 4.5-2.9 13.5-4.5 17.8-1.7-6 3-26.7 5.3-31.1z"/>
							<path id="&lt;Path&gt;" class="s4" d="m1163.7 605.8c-0.4 6.2-2.5 14.2-4.2 20.3-1.9 6.7-7.5 20.1-10.8 26.2-1.4-9.5 10.4-40.3 15-46.5z"/>
							<path id="&lt;Path&gt;" class="s4" d="m1169.3 600.2c-0.3 6.2-2.5 14.2-4.2 20.3-1.9 6.8-7.5 20.1-10.7 26.3-1.4-9.5 10.4-40.4 14.9-46.6z"/>
						</g>
						<g id="&lt;Group&gt;">
							<g id="&lt;Group&gt;">
								<path id="&lt;Path&gt;" class="s4" d="m1093.1 555.6c-6.7 22.5-11.3 46.8-18 69.2 1.9-2.1 5.8-4.3 7.6-8.5-4.2 15.6-7.9 31.4-11.4 47.3l-6.1 0.3 31-176.2c-2.2 26.1-4.6 52.1-10.5 78.4 1.8-4.1 5.7-6.4 7.4-10.5z"/>
								<path id="&lt;Path&gt;" class="s9" d="m1149.1 659l-77.8 4.6c3.5-15.9 7.2-31.7 11.4-47.3-1.8 4.2-5.7 6.4-7.6 8.5 6.7-22.4 11.3-46.7 18-69.2-1.7 4.1-5.6 6.4-7.4 10.5 5.9-26.3 8.3-52.3 10.5-78.4l0.5-2.9z"/>
							</g>
							<path id="&lt;Path&gt;" class="s4" d="m1093.7 583.6c-0.2 4-1.6 9.2-2.7 13.1-1.2 4.3-4.8 12.9-6.9 16.9-0.9-6.1 6.7-26 9.6-30z"/>
							<path id="&lt;Path&gt;" class="s4" d="m1098.2 521.6c0.4 4-0.3 9.2-0.8 13.3-0.6 4.5-3 13.5-4.5 17.7-1.8-5.9 3-26.7 5.3-31z"/>
							<path id="&lt;Path&gt;" class="s4" d="m1090.1 614.3c-0.3 6.2-2.4 14.1-4.2 20.3-1.9 6.7-7.4 20-10.7 26.2-1.4-9.5 10.4-40.3 14.9-46.5z"/>
							<path id="&lt;Path&gt;" class="s4" d="m1095.8 608.7c-0.4 6.2-2.5 14.2-4.2 20.3-1.9 6.7-7.5 20-10.8 26.2-1.4-9.5 10.4-40.3 15-46.5z"/>
						</g>
						<g id="&lt;Group&gt;">
							<g id="&lt;Group&gt;">
								<path id="&lt;Path&gt;" class="s4" d="m1019.6 564.7c-6.7 22.4-11.3 46.7-18 69.2 1.9-2.2 5.8-4.4 7.6-8.5-4.2 15.6-7.9 31.4-11.4 47.2l-6.1 0.4 31-176.2c-2.2 26-4.6 52.1-10.5 78.3 1.8-4.1 5.7-6.3 7.4-10.4z"/>
								<path id="&lt;Path&gt;" class="s9" d="m1075.6 668.1l-77.8 4.5c3.5-15.8 7.2-31.6 11.4-47.2-1.8 4.1-5.7 6.3-7.6 8.5 6.7-22.5 11.3-46.8 18-69.2-1.7 4.1-5.6 6.3-7.4 10.4 5.9-26.2 8.3-52.3 10.5-78.3l0.5-2.9z"/>
							</g>
							<path id="&lt;Path&gt;" class="s4" d="m1020.2 592.7c-0.2 4-1.6 9.1-2.7 13.1-1.3 4.3-4.8 12.9-7 16.9-0.8-6.2 6.8-26 9.7-30z"/>
							<path id="&lt;Path&gt;" class="s4" d="m1024.7 530.6c0.4 4-0.3 9.3-0.8 13.4-0.6 4.4-3 13.4-4.5 17.7-1.8-6 3-26.7 5.3-31.1z"/>
							<path id="&lt;Path&gt;" class="s4" d="m1016.6 623.3c-0.3 6.2-2.5 14.2-4.2 20.3-1.9 6.7-7.4 20.1-10.7 26.3-1.4-9.5 10.4-40.4 14.9-46.6z"/>
							<path id="&lt;Path&gt;" class="s4" d="m1022.3 617.7c-0.4 6.2-2.5 14.2-4.2 20.3-1.9 6.8-7.5 20.1-10.8 26.3-1.4-9.5 10.4-40.4 15-46.6z"/>
						</g>
						<g id="&lt;Group&gt;">
							<g id="&lt;Group&gt;">
								<path id="&lt;Path&gt;" class="s4" d="m1060.6 582.7c-6.7 22.5-11.3 46.8-18 69.2 1.9-2.1 5.8-4.3 7.5-8.4-4.2 15.5-7.8 31.3-11.3 47.2l-6.2 0.4 31.1-176.3c-2.2 26.1-4.7 52.1-10.5 78.4 1.7-4.1 5.6-6.4 7.4-10.5z"/>
								<path id="&lt;Path&gt;" class="s9" d="m1116.5 686.1l-77.7 4.6c3.5-15.9 7.1-31.7 11.3-47.2-1.7 4.1-5.6 6.3-7.5 8.4 6.7-22.4 11.3-46.7 18-69.2-1.8 4.1-5.7 6.4-7.4 10.5 5.8-26.3 8.3-52.3 10.5-78.4l0.5-2.9z"/>
							</g>
							<path id="&lt;Path&gt;" class="s4" d="m1061.1 610.7c-0.2 4-1.5 9.2-2.7 13.1-1.2 4.3-4.8 12.9-6.9 16.9-0.9-6.1 6.7-26 9.6-30z"/>
							<path id="&lt;Path&gt;" class="s4" d="m1065.7 548.7c0.3 4-0.3 9.2-0.9 13.3-0.6 4.5-2.9 13.5-4.4 17.7-1.8-5.9 2.9-26.7 5.3-31z"/>
							<path id="&lt;Path&gt;" class="s4" d="m1057.6 641.4c-0.4 6.2-2.5 14.2-4.2 20.3-1.9 6.7-7.5 20-10.8 26.2-1.4-9.5 10.4-40.3 15-46.5z"/>
							<path id="&lt;Path&gt;" class="s4" d="m1063.2 635.8c-0.3 6.2-2.4 14.2-4.2 20.3-1.9 6.7-7.4 20-10.7 26.2-1.4-9.5 10.4-40.3 14.9-46.5z"/>
						</g>
						<g id="&lt;Group&gt;">
							<g id="&lt;Group&gt;">
								<path id="&lt;Path&gt;" class="s4" d="m995.8 600.8c-6.7 22.4-11.3 46.7-18 69.1 1.9-2.1 5.8-4.3 7.5-8.4-4.2 15.5-7.8 31.3-11.3 47.2l-6.2 0.4 31.1-176.3c-2.2 26.1-4.7 52.1-10.5 78.4 1.7-4.1 5.6-6.3 7.4-10.4z"/>
								<path id="&lt;Path&gt;" class="s9" d="m1051.7 704.2l-77.7 4.5c3.5-15.9 7.1-31.7 11.3-47.2-1.7 4.1-5.6 6.3-7.5 8.4 6.7-22.4 11.3-46.7 18-69.1-1.8 4.1-5.7 6.3-7.4 10.4 5.8-26.3 8.3-52.3 10.5-78.4l0.5-2.9z"/>
							</g>
							<path id="&lt;Path&gt;" class="s4" d="m996.4 628.8c-0.3 3.9-1.6 9.1-2.8 13-1.2 4.4-4.8 13-6.9 16.9-0.9-6.1 6.7-26 9.7-29.9z"/>
							<path id="&lt;Path&gt;" class="s4" d="m1000.9 566.7c0.3 4-0.3 9.3-0.9 13.3-0.6 4.5-2.9 13.5-4.4 17.8-1.8-6 2.9-26.7 5.3-31.1z"/>
							<path id="&lt;Path&gt;" class="s4" d="m992.8 659.4c-0.3 6.2-2.5 14.2-4.2 20.3-1.9 6.7-7.5 20-10.8 26.2-1.4-9.5 10.4-40.3 15-46.5z"/>
							<path id="&lt;Path&gt;" class="s4" d="m998.4 653.8c-0.3 6.2-2.4 14.2-4.2 20.3-1.9 6.7-7.4 20.1-10.7 26.2-1.4-9.5 10.4-40.3 14.9-46.5z"/>
						</g>
						<g id="&lt;Group&gt;">
							<g id="&lt;Group&gt;">
								<path id="&lt;Path&gt;" class="s4" d="m1127.6 599.5c-6.7 22.4-11.3 46.7-18 69.2 1.9-2.1 5.8-4.4 7.6-8.5-4.2 15.6-7.9 31.4-11.4 47.3l-6.1 0.3 31-176.2c-2.2 26-4.6 52.1-10.5 78.4 1.8-4.2 5.7-6.4 7.4-10.5z"/>
								<path id="&lt;Path&gt;" class="s9" d="m1183.6 702.9l-77.8 4.6c3.5-15.9 7.2-31.7 11.4-47.3-1.8 4.1-5.7 6.4-7.6 8.5 6.7-22.5 11.3-46.8 18-69.2-1.7 4.1-5.6 6.3-7.4 10.5 5.9-26.3 8.3-52.4 10.5-78.4l0.6-2.9z"/>
							</g>
							<path id="&lt;Path&gt;" class="s4" d="m1128.2 627.5c-0.2 4-1.6 9.1-2.7 13.1-1.2 4.3-4.8 12.9-6.9 16.9-0.9-6.1 6.7-26 9.6-30z"/>
							<path id="&lt;Path&gt;" class="s4" d="m1132.7 565.5c0.4 3.9-0.3 9.2-0.8 13.3-0.6 4.5-3 13.5-4.5 17.7-1.7-5.9 3-26.7 5.3-31z"/>
							<path id="&lt;Path&gt;" class="s4" d="m1124.6 658.2c-0.3 6.2-2.4 14.1-4.2 20.2-1.9 6.8-7.4 20.1-10.7 26.3-1.4-9.5 10.4-40.4 14.9-46.5z"/>
							<path id="&lt;Path&gt;" class="s4" d="m1130.3 652.6c-0.3 6.2-2.5 14.1-4.2 20.3-1.9 6.7-7.5 20-10.8 26.2-1.4-9.5 10.4-40.3 15-46.5z"/>
						</g>
						<g id="&lt;Group&gt;">
							<g id="&lt;Group&gt;">
								<path id="&lt;Path&gt;" class="s4" d="m1377.4 584.2c-6.7 22.5-11.3 46.8-18 69.2 1.9-2.1 5.8-4.3 7.5-8.5-4.2 15.6-7.8 31.4-11.3 47.3l-6.2 0.3 31.1-176.2c-2.2 26-4.6 52.1-10.5 78.4 1.8-4.1 5.6-6.4 7.4-10.5z"/>
								<path id="&lt;Path&gt;" class="s9" d="m1433.3 687.6l-77.7 4.6c3.5-15.9 7.1-31.7 11.3-47.3-1.7 4.2-5.6 6.4-7.5 8.5 6.7-22.4 11.3-46.7 18-69.2-1.8 4.1-5.6 6.4-7.4 10.5 5.9-26.3 8.3-52.4 10.5-78.4l0.5-2.9z"/>
							</g>
							<path id="&lt;Path&gt;" class="s4" d="m1378 612.2c-0.3 4-1.6 9.2-2.7 13.1-1.3 4.3-4.9 12.9-7 16.9-0.9-6.1 6.7-26 9.7-30z"/>
							<path id="&lt;Path&gt;" class="s4" d="m1382.5 550.2c0.3 4-0.3 9.2-0.9 13.3-0.6 4.5-2.9 13.5-4.4 17.7-1.8-5.9 2.9-26.7 5.3-31z"/>
							<path id="&lt;Path&gt;" class="s4" d="m1374.4 642.9c-0.3 6.2-2.5 14.1-4.2 20.3-1.9 6.7-7.5 20-10.8 26.2-1.3-9.5 10.4-40.3 15-46.5z"/>
							<path id="&lt;Path&gt;" class="s4" d="m1380.1 637.3c-0.4 6.2-2.5 14.2-4.3 20.3-1.9 6.7-7.4 20-10.7 26.2-1.4-9.5 10.4-40.3 15-46.5z"/>
						</g>
						<g id="&lt;Group&gt;">
							<g id="&lt;Group&gt;">
								<path id="&lt;Path&gt;" class="s4" d="m1257.1 581.3c-6.7 22.4-11.3 46.7-18 69.2 1.9-2.2 5.8-4.4 7.5-8.5-4.1 15.6-7.8 31.4-11.3 47.2l-6.2 0.4 31.1-176.2c-2.2 26-4.6 52.1-10.5 78.3 1.8-4.1 5.6-6.3 7.4-10.4z"/>
								<path id="&lt;Path&gt;" class="s9" d="m1313.1 684.7l-77.8 4.5c3.5-15.8 7.2-31.6 11.3-47.2-1.7 4.1-5.6 6.3-7.5 8.5 6.7-22.5 11.3-46.8 18-69.2-1.8 4.1-5.6 6.3-7.4 10.4 5.9-26.2 8.3-52.3 10.5-78.3l0.5-2.9z"/>
							</g>
							<path id="&lt;Path&gt;" class="s4" d="m1257.7 609.3c-0.2 4-1.6 9.1-2.7 13.1-1.3 4.3-4.8 12.9-7 16.9-0.9-6.2 6.7-26 9.7-30z"/>
							<path id="&lt;Path&gt;" class="s4" d="m1262.2 547.2c0.3 4-0.3 9.3-0.8 13.4-0.6 4.4-3 13.4-4.5 17.7-1.8-6 3-26.7 5.3-31.1z"/>
							<path id="&lt;Path&gt;" class="s4" d="m1254.1 639.9c-0.3 6.2-2.5 14.2-4.2 20.3-1.9 6.7-7.5 20.1-10.7 26.3-1.4-9.5 10.4-40.4 14.9-46.6z"/>
							<path id="&lt;Path&gt;" class="s4" d="m1259.8 634.3c-0.4 6.2-2.5 14.2-4.2 20.3-1.9 6.8-7.5 20.1-10.8 26.3-1.4-9.5 10.4-40.4 15-46.6z"/>
						</g>
						<g id="&lt;Group&gt;">
							<g id="&lt;Group&gt;">
								<path id="&lt;Path&gt;" class="s4" d="m1327.7 595.7c-6.7 22.5-11.2 46.8-17.9 69.2 1.8-2.1 5.7-4.3 7.5-8.5-4.2 15.6-7.9 31.4-11.4 47.3l-6.1 0.3 31-176.2c-2.1 26.1-4.6 52.1-10.5 78.4 1.8-4.1 5.7-6.4 7.4-10.5z"/>
								<path id="&lt;Path&gt;" class="s9" d="m1383.7 699.1l-77.8 4.6c3.5-15.9 7.2-31.7 11.4-47.3-1.8 4.2-5.7 6.4-7.5 8.5 6.7-22.4 11.2-46.7 17.9-69.2-1.7 4.1-5.6 6.4-7.4 10.5 5.9-26.3 8.4-52.3 10.5-78.4l0.6-2.9z"/>
							</g>
							<path id="&lt;Path&gt;" class="s4" d="m1328.3 623.7c-0.2 4-1.6 9.2-2.7 13.1-1.2 4.3-4.8 12.9-6.9 16.9-0.9-6.1 6.7-26 9.6-30z"/>
							<path id="&lt;Path&gt;" class="s4" d="m1332.8 561.7c0.4 4-0.3 9.2-0.8 13.3-0.6 4.5-3 13.5-4.5 17.7-1.7-5.9 3-26.7 5.3-31z"/>
							<path id="&lt;Path&gt;" class="s4" d="m1324.7 654.4c-0.3 6.2-2.4 14.2-4.2 20.3-1.9 6.7-7.4 20-10.7 26.2-1.4-9.5 10.4-40.3 14.9-46.5z"/>
							<path id="&lt;Path&gt;" class="s4" d="m1330.4 648.8c-0.3 6.2-2.5 14.2-4.2 20.3-1.9 6.7-7.5 20-10.8 26.2-1.4-9.5 10.4-40.3 15-46.5z"/>
						</g>
						<g id="&lt;Group&gt;">
							<g id="&lt;Group&gt;">
								<path id="&lt;Path&gt;" class="s4" d="m1203.6 609.8c-6.7 22.4-11.3 46.7-18 69.1 1.9-2.1 5.7-4.3 7.5-8.4-4.2 15.6-7.8 31.4-11.3 47.2l-6.2 0.4 31.1-176.3c-2.2 26.1-4.7 52.2-10.5 78.4 1.7-4.1 5.6-6.3 7.4-10.4z"/>
								<path id="&lt;Path&gt;" class="s9" d="m1259.5 713.2l-77.7 4.5c3.5-15.8 7.1-31.6 11.3-47.2-1.8 4.1-5.6 6.3-7.5 8.4 6.7-22.4 11.3-46.7 18-69.1-1.8 4.1-5.7 6.3-7.4 10.4 5.8-26.2 8.3-52.3 10.5-78.4l0.5-2.9z"/>
							</g>
							<path id="&lt;Path&gt;" class="s4" d="m1204.1 637.8c-0.2 4-1.6 9.1-2.7 13-1.2 4.4-4.8 13-6.9 16.9-0.9-6.1 6.7-25.9 9.6-29.9z"/>
							<path id="&lt;Path&gt;" class="s4" d="m1208.7 575.7c0.3 4-0.3 9.3-0.9 13.3-0.6 4.5-2.9 13.5-4.5 17.8-1.7-6 3-26.7 5.4-31.1z"/>
							<path id="&lt;Path&gt;" class="s4" d="m1200.6 668.4c-0.4 6.2-2.5 14.2-4.2 20.3-1.9 6.7-7.5 20.1-10.8 26.2-1.4-9.5 10.4-40.3 15-46.5z"/>
							<path id="&lt;Path&gt;" class="s4" d="m1206.2 662.8c-0.3 6.2-2.5 14.2-4.2 20.3-1.9 6.7-7.4 20.1-10.7 26.2-1.4-9.4 10.4-40.3 14.9-46.5z"/>
						</g>
					</g>
					<g id="&lt;Group&gt;">
						<path id="&lt;Path&gt;" class="s10" d="m633.5 739.3v61.8h866.5v-259.2c-94.5 20.1-174.1 40.2-245.7 54.5q-10.5 2-20.8 3.9-2.5 0.5-5.1 1-1.2 0.2-2.3 0.4-11.2 2.1-22.2 4.2-3.7 0.7-7.3 1.4-5 1-9.9 1.9-4.1 0.8-8.1 1.5c-179.4 34.2-308.4 60.1-402.8 83.9-53.4 13.5-95.7 26.3-129.8 39.7q-6.5 2.5-12.5 5z"/>
						<path id="&lt;Path&gt;" class="s4" d="m828 705c22.1-3.5 45.8-8.3 71.6-9.4-6.5 3-12.7 8-20 10-13.2 3.9-25 5.6-36.1 10.9-47.5 23.6-92 35.4-129.7 28 4.6-7.9 14.7-11.5 22.7-14.9-26.6 3.7-50.2 10.5-71.9 13.3-4.7 0-9.8-5.1-14.4-7q-2.2-0.9-4.4-1.7c98-38.7 266.4-73 587.8-133.9-142.9 43.7-251.9 59.9-336.1 80.4-25.4 6.5-51.1 10.1-69.5 24.3z"/>
						<path id="&lt;Path&gt;" class="s11" d="m1016.4 758.6c105.2-43.5 262.1-70.8 483.6-101.3v143.8h-788.8c23.9-8.4 50.9-16.7 82.9-23.9 58.5-13.5 131.8-30.3 222.3-18.6z"/>
						<path id="&lt;Path&gt;" class="s4" d="m1042.1 677.4c11.1-3.5 21.9-8.6 33.7-12.3 36.3-11.2 78.3-7.4 122.2-18.5-77.2 25.8-138.9 40-198.6 45.9 10.5-5.1 30.4-11.3 42.7-15.1z"/>
						<path id="&lt;Path&gt;" class="s4" d="m648.8 765.5c6.1-6.9 14.5-9.8 23.1-11 8.9-1.3 18.4-1.1 28-3.1-16.8 9.3-29.8 13.4-45.9 14-1.2 0-4.6 1.6-5.2 0.1z"/>
					</g>
					<g id="&lt;Group&gt;">
						<path id="&lt;Path&gt;" class="s10" d="m1517 860.5v111.9h-1500v-469.3c163.6 36.5 301.4 72.9 425.4 98.7q18.1 3.6 35.9 7.1 4.4 0.9 8.9 1.7 2 0.4 4 0.8 19.4 3.9 38.4 7.6 6.3 1.3 12.6 2.6 8.6 1.7 17.2 3.4 7 1.4 14 2.8c310.5 61.9 533.8 108.7 697.3 151.9 92.4 24.3 165.6 47.6 224.7 71.7q11.2 4.5 21.6 9.1z"/>
						<path id="&lt;Path&gt;" class="s4" d="m1163.3 790.4c-38.2-6.4-79.2-15-123.9-17 11.2 5.5 21.9 14.4 34.6 18.2 22.8 6.9 43.2 10 62.4 19.6 82.3 42.7 159.3 64 224.6 50.7-8.1-14.4-25.5-20.9-39.3-27 46 6.7 86.9 19 124.4 24.2 8.1-0.1 16.9-9.4 25-12.7q3.8-1.8 7.6-3.1c-169.6-70.1-461.2-132.3-1017.5-242.4 247.3 79.2 436 108.5 581.8 145.5 44 11.8 88.4 18.2 120.3 44z"/>
						<path id="&lt;Path&gt;" class="s11" d="m837.1 887.4c-182.1-78.6-453.7-128.1-837.1-183.3v260.3h1365.5c-41.5-15.2-88.1-30.3-143.6-43.3-101.1-24.4-228.2-54.8-384.8-33.7z"/>
						<path id="&lt;Path&gt;" class="s4" d="m792.7 740.3c-19.2-6.2-38-15.5-58.4-22.1-62.9-20.2-135.4-13.4-211.6-33.5 133.7 46.7 240.5 72.4 343.8 83.1-18.1-9.3-52.6-20.6-73.8-27.5z"/>
						<path id="&lt;Path&gt;" class="s4" d="m1473.5 899.9c-10.5-12.6-25-17.7-39.9-19.9-15.5-2.3-31.9-1.9-48.5-5.6 29 16.8 51.5 24.2 79.5 25.3 2 0.1 7.9 2.9 8.9 0.2z"/>
					</g>
				</g>
				<g id="&lt;Group&gt;">
					<path id="&lt;Path&gt;" class="s12" d="m305.2 503.3c3.4-8.3 8.5-16.7 6.6-25.4-3.3-15.8-25.4-19-34.4-32.3-12-17.5 3.9-40.8 2.4-62-1.8-25.7-28.3-41.8-52.6-50.4-33.2-11.7-68.5-17.8-100-33.4-31.6-15.5-60.2-43.8-62.8-78.9-2.8-38.1 25.2-71.7 56-94.1 31.2-22.7 67.8-39.1 106.2-41.9 38.4-2.8 78.7 9.1 106.1 36.2 27.4 27.1 39.8 70 26.5 106.1-6.5 17.6-18.3 32.7-26.7 49.4-8.5 16.7-13.3 37.1-5.2 53.9 8 16.5 27.9 30.1 23.3 47.9-4.4 17.1-30.3 24.8-29.2 42.5 0.8 13.6 17.5 20.9 21.5 33.9 3.9 12.2-4.6 24.6-12 35.1-7.4 10.6-14.3 24.6-7.6 35.6 2.1 3.6-14 4.3-17.1 1.5-6.2-5.5-3.7-17.3-1-23.7z"/>
					<g id="&lt;Group&gt;">
						<g id="&lt;Group&gt;">
							<path id="&lt;Path&gt;" class="s13" d="m137.7 590.1v112.1h242v-112.1z"/>
							<path id="&lt;Path&gt;" class="s14" d="m508.9 598.1l-51.7-98.4-77.5 98.4h-3v112.1h132.2z"/>
							<path id="&lt;Path&gt;" class="s9" d="m463.2 491.7h-263.7l-71.2 98.4h257.8z"/>
						</g>
						<g id="&lt;Group&gt;">
							<path id="&lt;Path&gt;" class="s15" d="m230.4 650.1h-36.6v-36.7h36.6z"/>
							<path id="&lt;Path&gt;" class="s9" d="m230.4 650.1h-30v-30.1h30z"/>
						</g>
						<g id="&lt;Group&gt;">
							<path id="&lt;Path&gt;" class="s16" d="m321 650.1h-36.7v-36.7h36.7z"/>
							<path id="&lt;Path&gt;" class="s9" d="m321 650.1h-30.1v-30.1h30.1z"/>
						</g>
						<path id="&lt;Path&gt;" class="s16" d="m476.4 702.2h-45.9v-101h45.9z"/>
						<path id="&lt;Path&gt;" class="s17" d="m466.7 702.2h-36.2v-94.1h36.2z"/>
						<path id="&lt;Path&gt;" class="s16" d="m421.9 667.2h-25.4v-56h25.4z"/>
						<path id="&lt;Path&gt;" class="s17" d="m414.5 667.2h-20v-50.7h20z"/>
						<path id="&lt;Path&gt;" class="s16" d="m511.2 667.2h-25.5v-56h25.5z"/>
						<path id="&lt;Path&gt;" class="s17" d="m503.8 667.2h-20.1v-50.7h20.1z"/>
						<g id="&lt;Group&gt;">
							<path id="&lt;Path&gt;" class="s13" d="m286.4 478.9v82.8h44.5v-82.8z"/>
							<path id="&lt;Path&gt;" class="s14" d="m330.9 478.9v82.8l24.7-37.7v-45.1z"/>
							<path id="&lt;Path&gt;" class="s9" d="m333.5 467.9h-56.3v12.2h56.3z"/>
							<path id="&lt;Path&gt;" class="s17" d="m364.8 467.9h-31.3v12.2h31.3z"/>
						</g>
					</g>
					<path id="&lt;Path&gt;" class="s17" d="m463.2 491.7h9.5l52.5 98.4h-10.3z"/>
					<path id="&lt;Path&gt;" class="s13" d="m515.6 590.1h-10.3l-50-88.3 7.8-9.9z"/>
				</g>
				<g id="&lt;Group&gt;">
					<g id="&lt;Group&gt;">
						<path id="&lt;Path&gt;" class="s9" d="m1021.6 809.8c-2.2 10.8-3.6 21.8-4.1 32.9 8.9 2.5 17.6 5.6 26 9.1 0.9-9.3 2.9-18.6 5.7-27.6-9-5.2-18.2-9.9-27.6-14.4z"/>
						<path id="&lt;Path&gt;" class="s9" d="m1103.6 694.1c-17.2 8.6-31.7 20.3-43.7 34.2 10.4 10.5 20.9 20.8 30.8 31.8 6.6-5.8 13.9-10.9 21.7-15.3 4.2-2.4 8.5-4.5 12.8-6.6-6.5-15-13.7-29.8-21.6-44.1z"/>
						<path id="&lt;Path&gt;" class="s9" d="m1160.5 677.5c-9.6 1.5-19.1 3.5-28.5 6q-6.1 1.5-11.8 3.6c7.9 14.3 15 29.1 21.5 44.2 9.3-3.5 18.8-6.1 28.4-8-3.5-15.2-6.8-30.4-9.6-45.8z"/>
						<path id="&lt;Path&gt;" class="s9" d="m1208.5 716.1c0.3-13.4 0.7-27.1 2.6-40.6-10.9-0.8-21.9-0.8-33 0.1 2.8 15.2 6.1 30.3 9.7 45.4q10.3-0.9 20.6-0.3 0.1-2.3 0.1-4.6z"/>
						<path id="&lt;Path&gt;" class="s9" d="m1291.8 701.8q-11.7-7.7-24.5-13.1-5.2 22-9.1 44.3c6.7 3.2 13.2 7.1 19.3 11.5 4.1-14.4 8.9-28.6 14.3-42.7z"/>
						<path id="&lt;Path&gt;" class="s9" d="m1345.3 762.5c-3.7-7-7.8-13.8-12.4-20.3-7.8-11.4-16.6-21.1-26.3-29.3q-8.2 21.8-14.2 44c10.8 10.7 19.6 23.5 24.9 37.9 8.7-11.4 18.1-22.1 28-32.3z"/>
						<path id="&lt;Path&gt;" class="s9" d="m1347.4 831.8c5.8-3.4 11.8-6.5 17.8-9.5-2.3-14.5-6.3-28.8-11.9-42.6-8.9 9.6-17.4 19.6-25.1 30.3q-2.3 3.2-4.8 6.5c2.1 9 3.7 18.2 4.7 27.5 6.5-4.5 13-8.6 19.3-12.2z"/>
						<path id="&lt;Path&gt;" class="s9" d="m1359.5 845.5c-9.8 5.5-20.3 12.1-30.2 19.7-0.1 12.1-1.4 24.2-4.4 35.5h36.9c4.9-19.3 6.7-39.4 5.5-59.4q-4 2-7.8 4.2z"/>
						<path id="&lt;Path&gt;" class="s9" d="m1250.3 682.6c-7-2-14.1-3.7-21.4-4.9-2 14.3-2.3 29-2.6 43.4q0 0.8 0 1.7 7.5 1.4 14.9 3.6 4-22 9.1-43.8z"/>
						<path id="&lt;Path&gt;" class="s9" d="m1076.7 771.2c-8.9-9.8-18.3-19.1-27.7-28.5-10.1 15-17.7 31.7-23 49.4 10 4.8 20 9.8 29.6 15.2 5.7-12.5 13.2-24.2 22.3-34.6q-0.6-0.7-1.2-1.5z"/>
						<path id="&lt;Path&gt;" class="s9" d="m1017.3 861.4c0.4 13.3 2 26.5 4.7 39.3h25.6c-2.7-9.7-4.2-19.5-4.6-29.4-8.3-3.8-16.8-7.2-25.7-9.9z"/>
						<path id="&lt;Path&gt;" class="s4" d="m1005 858c0.7 14.8 3.1 29.1 7 42.7h10c-2.7-12.8-4.3-26-4.7-39.3q-6-1.9-12.3-3.4z"/>
						<path id="&lt;Path&gt;" class="s4" d="m1010.3 804.5c-2.8 11.3-4.6 23.1-5.2 35.2q6.3 1.3 12.4 3c0.5-11.1 1.9-22.1 4.1-32.9q-5.6-2.7-11.3-5.3z"/>
						<path id="&lt;Path&gt;" class="s4" d="m1042.9 736.7c-11.5 15.2-20.9 32.2-27.4 50.5q5.3 2.5 10.5 4.9c5.3-17.7 12.9-34.4 23-49.4q-3-3-6.1-6z"/>
						<path id="&lt;Path&gt;" class="s4" d="m1099.7 687.3c-16.8 9.5-32.1 21.5-45.2 35.6q2.7 2.7 5.4 5.4c12-13.9 26.5-25.6 43.7-34.2q-1.9-3.4-3.9-6.8z"/>
						<path id="&lt;Path&gt;" class="s4" d="m1212.9 664.7q-10.8-1.3-22-1.3-7.4 0-14.7 0.6 0.9 5.8 1.9 11.6c11.1-0.9 22.1-0.9 33-0.1q0.7-5.4 1.8-10.8z"/>
						<path id="&lt;Path&gt;" class="s4" d="m1252.5 673.9q-10.7-3.8-21.9-6.2-1 5-1.7 10c7.3 1.2 14.4 2.9 21.4 4.9q1.1-4.4 2.2-8.7z"/>
						<path id="&lt;Path&gt;" class="s4" d="m1332.9 742.2c4.6 6.5 8.7 13.3 12.4 20.3q3.2-3.3 6.5-6.5c-11.2-19.1-25.6-36.1-42.6-50.1q-1.3 3.5-2.6 7c9.7 8.2 18.5 17.9 26.3 29.3z"/>
						<path id="&lt;Path&gt;" class="s4" d="m1374.3 818.2c-2.7-16-7.5-31.4-14-45.7q-3.5 3.6-7 7.2c5.6 13.8 9.6 28.1 11.9 42.6q4.5-2.1 9.1-4.1z"/>
						<path id="&lt;Path&gt;" class="s4" d="m1367.3 841.3c1.2 20-0.6 40.1-5.5 59.4h8c4.7-16.3 7.2-33.5 7.2-51.2q0-6.4-0.5-12.7-4.6 2.1-9.2 4.5z"/>
						<path id="&lt;Path&gt;" class="s4" d="m1294.5 695c-8-5.4-16.5-10.2-25.3-14.3q-1 4-1.9 8 12.8 5.4 24.5 13.1 1.3-3.4 2.7-6.8z"/>
						<path id="&lt;Path&gt;" class="s4" d="m1158.6 666.2c-14.9 2.6-29.3 7-42.8 13q2.2 3.9 4.4 7.9 5.7-2.1 11.8-3.6c9.4-2.5 18.9-4.5 28.5-6q-1-5.6-1.9-11.3z"/>
						<path id="&lt;Path&gt;" class="s18" d="m1043 871.3c0.4 9.9 1.9 19.7 4.6 29.4h43.3c-15.1-11.4-30.9-21.5-47.9-29.4z"/>
						<path id="&lt;Path&gt;" class="s18" d="m1144.6 882.9c-9.7-19.1-19.6-38.2-30-56.9-10.5-19.1-22.2-37-36.7-53.3-9.1 10.4-16.6 22.1-22.3 34.6 15.1 8.6 29.6 18.4 42.5 30.2 20.4 18.8 36.8 41 53.3 63.2h1.1c-2.4-6-4.9-12-7.9-17.8z"/>
						<path id="&lt;Path&gt;" class="s18" d="m1169.1 866.5c-5.9-22.6-13-44.9-20.5-66.9-7-20.7-14.6-41.3-23.4-61.4-4.3 2.1-8.6 4.2-12.8 6.6-7.8 4.4-15.1 9.5-21.7 15.3q0.5 0.5 1 1.1c14.3 16.1 26 33.7 36.6 52.5 11.1 19.7 21.5 40 31.8 60.1 4.4 8.7 7.8 17.9 11.5 26.9h4.7c-2.1-11.5-4.3-22.9-7.2-34.2z"/>
						<path id="&lt;Path&gt;" class="s18" d="m1193 867.6c-3.1-24.7-3.6-49.7-7.8-74.3-4.1-23.6-9.7-46.7-15.1-70-9.6 1.9-19.1 4.5-28.4 8 8.6 19.7 16.2 39.9 23.1 60.3 7.7 22.4 15 45.2 21.1 68.2 3.5 13.5 6.1 27.2 8.5 40.9h4q-3.3-16.4-5.4-33.1z"/>
						<path id="&lt;Path&gt;" class="s18" d="m1206.9 794.2c0.3-24.5 1-49 1.5-73.5q-10.3-0.6-20.6 0.3c5.5 23.6 11.3 47.2 15.3 71.2 1.8 10.9 2.9 21.9 3.8 32.8q-0.2-15.4 0-30.8z"/>
						<path id="&lt;Path&gt;" class="s18" d="m1241.2 726.4q-7.4-2.2-14.9-3.6c-0.4 23.8-1.2 47.6-1.5 71.4-0.4 35.5 0.4 71.2 4.2 106.5h1.6c-3.6-58.2 0.3-116.9 10.6-174.3z"/>
						<path id="&lt;Path&gt;" class="s18" d="m1328.1 844c-1-9.3-2.6-18.5-4.7-27.5-16 22.1-34.1 47.2-42.6 73.9 11.6-18.3 29.3-33.9 47.3-46.4z"/>
						<path id="&lt;Path&gt;" class="s18" d="m1304.9 887.7c-3.4 4.2-6.6 8.5-9.5 13h29.5c3-11.3 4.3-23.4 4.4-35.5-8.9 6.7-17.3 14.3-24.4 22.5z"/>
						<path id="&lt;Path&gt;" class="s18" d="m1312.7 800.9q2.3-3.1 4.6-6.1c-5.3-14.4-14.1-27.2-24.9-37.9-9 33.3-14.5 67.3-17.3 101.6 10.7-20.6 24.9-40 37.6-57.6z"/>
						<path id="&lt;Path&gt;" class="s18" d="m1277.5 744.5c-6.1-4.4-12.6-8.3-19.3-11.5-9.7 55.3-13.4 111.8-9.9 167.7h6.7c1.3-53 8-105.4 22.5-156.2z"/>
						<path id="&lt;Path&gt;" class="s18" d="m1100 864.9c-6.8-6.4-13.7-12.6-20.6-18.8q-5-4.5-10.1-8.9c-6.5-4.7-13.2-9-20.1-13-2.8 9-4.8 18.3-5.7 27.6 27.8 11.9 52.7 29.3 76.1 48.9h9.7c-9.3-12.3-18.9-24.5-29.3-35.8z"/>
					</g>
					<g id="&lt;Group&gt;">
						<path id="&lt;Path&gt;" class="s9" d="m153.5 767.2c-2.2 10.8-3.5 21.9-4.1 33 9 2.4 17.6 5.5 26 9.1 1-9.4 2.9-18.6 5.7-27.6-9-5.2-18.2-10-27.6-14.5z"/>
						<path id="&lt;Path&gt;" class="s9" d="m235.5 651.6c-17.1 8.5-31.7 20.2-43.7 34.2 10.5 10.4 21 20.8 30.8 31.8 6.7-5.8 13.9-11 21.7-15.3 4.2-2.4 8.5-4.6 12.9-6.6-6.6-15.1-13.7-29.8-21.7-44.1z"/>
						<path id="&lt;Path&gt;" class="s9" d="m292.5 635c-9.6 1.4-19.2 3.4-28.6 5.9q-6.1 1.6-11.8 3.6c7.9 14.4 15 29.2 21.6 44.2 9.2-3.4 18.7-6.1 28.3-7.9-3.5-15.2-6.8-30.4-9.5-45.8z"/>
						<path id="&lt;Path&gt;" class="s9" d="m340.4 673.6c0.3-13.4 0.8-27.2 2.6-40.6-10.9-0.8-21.9-0.8-32.9 0 2.7 15.3 6.1 30.4 9.6 45.4q10.3-0.8 20.6-0.3 0.1-2.2 0.1-4.5z"/>
						<path id="&lt;Path&gt;" class="s9" d="m423.7 659.3q-11.7-7.7-24.5-13.1-5.1 22-9.1 44.3c6.7 3.2 13.2 7 19.4 11.5 4.1-14.4 8.8-28.6 14.2-42.7z"/>
						<path id="&lt;Path&gt;" class="s9" d="m477.2 720c-3.6-7-7.8-13.8-12.3-20.3-7.8-11.4-16.7-21.1-26.4-29.4q-8.2 21.8-14.2 44.1c10.9 10.7 19.7 23.5 24.9 37.9 8.7-11.4 18.1-22.1 28-32.3z"/>
						<path id="&lt;Path&gt;" class="s9" d="m479.3 789.2c5.8-3.4 11.8-6.5 17.8-9.4-2.3-14.5-6.2-28.8-11.8-42.6-9 9.6-17.5 19.6-25.2 30.2q-2.3 3.3-4.7 6.6c2 8.9 3.6 18.2 4.7 27.5 6.4-4.5 12.9-8.6 19.2-12.3z"/>
						<path id="&lt;Path&gt;" class="s9" d="m491.4 803c-9.7 5.5-20.2 12-30.2 19.6-0.1 12.2-1.4 24.2-4.4 35.6h37c4.9-19.3 6.7-39.4 5.4-59.4q-3.9 2-7.8 4.2z"/>
						<path id="&lt;Path&gt;" class="s9" d="m382.3 640.1c-7-2.1-14.2-3.7-21.5-4.9-2 14.3-2.3 28.9-2.5 43.3q-0.1 0.9-0.1 1.8 7.5 1.3 15 3.6 3.9-22.1 9.1-43.8z"/>
						<path id="&lt;Path&gt;" class="s9" d="m208.6 728.7c-8.9-9.8-18.3-19.1-27.7-28.5-10 15-17.7 31.7-22.9 49.4 10 4.8 19.9 9.7 29.5 15.2 5.7-12.6 13.2-24.3 22.4-34.6q-0.7-0.8-1.3-1.5z"/>
						<path id="&lt;Path&gt;" class="s9" d="m149.2 818.8c0.4 13.3 2 26.5 4.8 39.4h25.5c-2.7-9.7-4.2-19.6-4.6-29.4-8.3-3.9-16.8-7.2-25.7-10z"/>
						<path id="&lt;Path&gt;" class="s4" d="m137 815.5c0.6 14.7 3 29 6.9 42.7h10.1c-2.8-12.9-4.4-26.1-4.8-39.4q-6-1.8-12.2-3.3z"/>
						<path id="&lt;Path&gt;" class="s4" d="m142.3 761.9c-2.9 11.4-4.7 23.2-5.3 35.3q6.3 1.3 12.4 3c0.6-11.1 1.9-22.2 4.1-33q-5.6-2.7-11.2-5.3z"/>
						<path id="&lt;Path&gt;" class="s4" d="m174.9 694.2c-11.6 15.1-20.9 32.2-27.4 50.5q5.2 2.4 10.5 4.9c5.2-17.7 12.9-34.4 22.9-49.4q-3-3-6-6z"/>
						<path id="&lt;Path&gt;" class="s4" d="m231.7 644.7c-16.9 9.6-32.2 21.6-45.3 35.7q2.7 2.7 5.4 5.4c12-14 26.6-25.7 43.7-34.2q-1.9-3.5-3.8-6.9z"/>
						<path id="&lt;Path&gt;" class="s4" d="m344.9 622.2q-10.9-1.3-22.1-1.3-7.4 0-14.6 0.6 0.8 5.8 1.9 11.5c11-0.8 22-0.8 32.9 0q0.8-5.5 1.9-10.8z"/>
						<path id="&lt;Path&gt;" class="s4" d="m384.4 631.3q-10.7-3.7-21.8-6.1-1.1 5-1.8 10c7.3 1.2 14.5 2.8 21.5 4.9q1-4.4 2.1-8.8z"/>
						<path id="&lt;Path&gt;" class="s4" d="m464.9 699.7c4.5 6.5 8.7 13.3 12.3 20.3q3.2-3.3 6.5-6.5c-11.1-19.1-25.5-36.1-42.5-50.1q-1.4 3.4-2.7 6.9c9.7 8.3 18.6 18 26.4 29.4z"/>
						<path id="&lt;Path&gt;" class="s4" d="m506.2 775.6c-2.7-16-7.4-31.3-14-45.6q-3.5 3.5-6.9 7.2c5.6 13.8 9.5 28.1 11.8 42.6q4.6-2.2 9.1-4.2z"/>
						<path id="&lt;Path&gt;" class="s4" d="m499.2 798.8c1.3 20-0.5 40.1-5.4 59.4h8c4.6-16.3 7.1-33.5 7.1-51.3q0-6.4-0.4-12.6-4.7 2.1-9.3 4.5z"/>
						<path id="&lt;Path&gt;" class="s4" d="m426.4 652.4c-8-5.3-16.4-10.1-25.2-14.2q-1 4-2 8 12.8 5.4 24.5 13.1 1.3-3.5 2.7-6.9z"/>
						<path id="&lt;Path&gt;" class="s4" d="m290.6 623.7c-15 2.6-29.4 7-42.9 13q2.2 3.9 4.4 7.8 5.7-2 11.8-3.6c9.4-2.5 19-4.5 28.6-5.9q-1.1-5.6-1.9-11.3z"/>
						<path id="&lt;Path&gt;" class="s18" d="m174.9 828.8c0.4 9.8 1.9 19.7 4.6 29.4h43.4c-15.1-11.4-31-21.5-48-29.4z"/>
						<path id="&lt;Path&gt;" class="s19" d="m278 839.2c-9.7-19.1-19.6-38.2-30-56.9-10.5-19.1-22.1-37-36.6-53.3-9.2 10.4-16.7 22.1-22.4 34.6 15.2 8.6 29.6 18.4 42.5 30.2 20.4 18.7 36.9 41 53.4 63.2h1c-2.4-6-4.9-12-7.9-17.8z"/>
						<path id="&lt;Path&gt;" class="s19" d="m301 823.9c-5.8-22.5-13-44.8-20.4-66.9-7-20.7-14.7-41.2-23.4-61.3-4.4 2-8.7 4.2-12.9 6.6-7.8 4.3-15 9.5-21.7 15.3q0.5 0.5 1 1.1c14.3 16.1 26.1 33.7 36.6 52.5 11.1 19.7 21.5 39.9 31.8 60.1 4.4 8.7 7.9 17.8 11.5 26.9h4.7c-2-11.5-4.3-23-7.2-34.3z"/>
						<path id="&lt;Path&gt;" class="s19" d="m324.9 825.1c-3.1-24.8-3.5-49.7-7.8-74.4-4.1-23.5-9.7-46.7-15.1-69.9-9.6 1.8-19.1 4.5-28.3 7.9 8.5 19.8 16.1 40 23 60.3 7.7 22.5 15 45.3 21.1 68.3 3.6 13.5 6.1 27.1 8.6 40.9h3.9q-3.3-16.4-5.4-33.1z"/>
						<path id="&lt;Path&gt;" class="s18" d="m338.8 751.7c0.3-24.5 1-49 1.5-73.6q-10.3-0.5-20.6 0.3c5.5 23.7 11.3 47.3 15.3 71.2 1.8 11 2.9 21.9 3.8 32.9q-0.1-15.4 0-30.8z"/>
						<path id="&lt;Path&gt;" class="s19" d="m373.2 683.9q-7.5-2.3-15-3.6c-0.4 23.8-1.2 47.6-1.5 71.4-0.3 35.5 0.4 71.2 4.2 106.5h1.6c-3.6-58.2 0.4-116.9 10.7-174.3z"/>
						<path id="&lt;Path&gt;" class="s18" d="m460.1 801.5c-1.1-9.3-2.7-18.6-4.7-27.5-16.1 22-34.1 47.2-42.7 73.9 11.7-18.3 29.3-33.9 47.4-46.4z"/>
						<path id="&lt;Path&gt;" class="s18" d="m436.8 845.2c-3.4 4.2-6.6 8.5-9.5 13h29.5c3-11.4 4.3-23.4 4.4-35.6-8.9 6.8-17.3 14.3-24.4 22.6z"/>
						<path id="&lt;Path&gt;" class="s19" d="m444.7 758.4q2.2-3.1 4.5-6.1c-5.2-14.4-14-27.2-24.9-37.9-9 33.3-14.4 67.2-17.3 101.6 10.8-20.7 24.9-40 37.7-57.6z"/>
						<path id="&lt;Path&gt;" class="s19" d="m409.5 702c-6.2-4.5-12.7-8.3-19.4-11.5-9.6 55.3-13.4 111.7-9.8 167.7h6.6c1.3-53 8-105.4 22.6-156.2z"/>
						<path id="&lt;Path&gt;" class="s18" d="m231.9 822.4c-6.7-6.4-13.6-12.7-20.6-18.9q-5-4.4-10.1-8.8c-6.4-4.7-13.2-9-20.1-13-2.8 9-4.7 18.2-5.7 27.6 27.8 11.9 52.7 29.3 76.2 48.9h9.6c-9.3-12.4-18.8-24.5-29.3-35.8z"/>
					</g>
					<g id="&lt;Group&gt;">
						<path id="&lt;Path&gt;" class="s9" d="m348.4 886.2c-2.2 10.8-3.6 21.9-4.2 33 9 2.4 17.7 5.5 26.1 9.1 0.9-9.4 2.8-18.7 5.6-27.6-8.9-5.2-18.2-10-27.5-14.5z"/>
						<path id="&lt;Path&gt;" class="s9" d="m430.4 770.5c-17.2 8.6-31.8 20.3-43.7 34.3 10.4 10.4 20.9 20.8 30.7 31.7 6.7-5.7 13.9-10.9 21.8-15.3 4.2-2.3 8.5-4.5 12.8-6.5-6.5-15.1-13.7-29.8-21.6-44.2z"/>
						<path id="&lt;Path&gt;" class="s9" d="m487.3 754c-9.6 1.4-19.2 3.4-28.6 5.9q-6 1.6-11.7 3.6c7.8 14.4 15 29.1 21.5 44.2 9.3-3.4 18.8-6.1 28.4-7.9-3.5-15.2-6.9-30.5-9.6-45.8z"/>
						<path id="&lt;Path&gt;" class="s9" d="m535.3 792.6c0.2-13.5 0.7-27.2 2.6-40.6-10.9-0.8-21.9-0.8-33 0 2.7 15.2 6.1 30.3 9.6 45.4q10.3-0.8 20.7-0.3 0-2.2 0.1-4.5z"/>
						<path id="&lt;Path&gt;" class="s9" d="m618.6 778.2q-11.8-7.6-24.5-13-5.2 21.9-9.1 44.2c6.6 3.2 13.1 7.1 19.3 11.5 4.1-14.3 8.8-28.6 14.3-42.7z"/>
						<path id="&lt;Path&gt;" class="s9" d="m672.1 839c-3.7-7-7.8-13.8-12.4-20.4-7.8-11.3-16.7-21-26.4-29.3q-8.2 21.8-14.1 44.1c10.8 10.7 19.6 23.5 24.9 37.9 8.7-11.4 18-22.2 28-32.3z"/>
						<path id="&lt;Path&gt;" class="s9" d="m674.2 908.2c5.8-3.4 11.7-6.5 17.8-9.4-2.4-14.5-6.3-28.8-11.9-42.6-9 9.5-17.4 19.6-25.1 30.2q-2.4 3.2-4.8 6.6c2.1 8.9 3.7 18.2 4.7 27.5 6.4-4.5 13-8.6 19.3-12.3z"/>
						<path id="&lt;Path&gt;" class="s9" d="m686.2 922c-9.7 5.4-20.2 12-30.2 19.6 0 12.2-1.3 24.2-4.3 35.5h36.9c4.9-19.3 6.7-39.3 5.5-59.4q-4 2.1-7.9 4.3z"/>
						<path id="&lt;Path&gt;" class="s9" d="m577.1 759.1c-7-2.1-14.2-3.7-21.4-4.9-2.1 14.3-2.4 28.9-2.6 43.3q0 0.9 0 1.7 7.5 1.4 14.9 3.6 3.9-22 9.1-43.7z"/>
						<path id="&lt;Path&gt;" class="s9" d="m403.4 847.7c-8.9-9.8-18.3-19.2-27.6-28.5-10.1 14.9-17.7 31.7-23 49.4 10 4.7 19.9 9.7 29.5 15.2 5.7-12.6 13.3-24.3 22.4-34.6q-0.6-0.8-1.3-1.5z"/>
						<path id="&lt;Path&gt;" class="s9" d="m344.1 937.8c0.4 13.3 2 26.5 4.7 39.3h25.6c-2.7-9.6-4.2-19.5-4.7-29.3-8.2-3.9-16.8-7.3-25.6-10z"/>
						<path id="&lt;Path&gt;" class="s4" d="m331.8 934.5c0.7 14.7 3 29 6.9 42.6h10.1c-2.7-12.8-4.3-26-4.7-39.3q-6.1-1.8-12.3-3.3z"/>
						<path id="&lt;Path&gt;" class="s4" d="m337.1 880.9c-2.8 11.4-4.6 23.2-5.2 35.3q6.2 1.3 12.3 3c0.6-11.1 2-22.2 4.2-33q-5.6-2.7-11.3-5.3z"/>
						<path id="&lt;Path&gt;" class="s4" d="m369.7 813.1c-11.6 15.2-20.9 32.2-27.4 50.6q5.3 2.4 10.5 4.9c5.3-17.7 12.9-34.5 23-49.4q-3.1-3-6.1-6.1z"/>
						<path id="&lt;Path&gt;" class="s4" d="m426.5 763.7c-16.9 9.5-32.1 21.6-45.2 35.7q2.7 2.7 5.4 5.4c11.9-14 26.5-25.7 43.7-34.3q-1.9-3.4-3.9-6.8z"/>
						<path id="&lt;Path&gt;" class="s4" d="m539.7 741.2q-10.8-1.4-22-1.4-7.4 0-14.7 0.6 0.9 5.8 1.9 11.6c11.1-0.8 22.1-0.8 33 0q0.7-5.5 1.8-10.8z"/>
						<path id="&lt;Path&gt;" class="s4" d="m579.2 750.3q-10.6-3.7-21.8-6.1-1 4.9-1.7 10c7.2 1.2 14.4 2.8 21.4 4.9q1-4.4 2.1-8.8z"/>
						<path id="&lt;Path&gt;" class="s4" d="m659.7 818.6c4.6 6.6 8.7 13.4 12.4 20.4q3.2-3.3 6.4-6.5c-11.1-19.1-25.5-36.1-42.5-50.1q-1.4 3.4-2.7 6.9c9.7 8.3 18.6 18 26.4 29.3z"/>
						<path id="&lt;Path&gt;" class="s4" d="m701.1 894.6c-2.7-16-7.5-31.3-14-45.7q-3.6 3.6-7 7.3c5.6 13.8 9.5 28.1 11.9 42.6q4.5-2.2 9.1-4.2z"/>
						<path id="&lt;Path&gt;" class="s4" d="m694.1 917.7c1.2 20.1-0.6 40.1-5.5 59.4h8c4.7-16.2 7.1-33.4 7.1-51.2q0-6.4-0.4-12.7-4.7 2.2-9.2 4.5z"/>
						<path id="&lt;Path&gt;" class="s4" d="m621.3 771.4c-8.1-5.4-16.5-10.1-25.3-14.2q-1 4-1.9 8 12.7 5.4 24.5 13 1.3-3.4 2.7-6.8z"/>
						<path id="&lt;Path&gt;" class="s4" d="m485.4 742.7c-15 2.6-29.3 7-42.9 12.9q2.3 4 4.5 7.9 5.7-2 11.7-3.6c9.4-2.5 19-4.5 28.6-5.9q-1-5.7-1.9-11.3z"/>
						<path id="&lt;Path&gt;" class="s18" d="m369.7 947.8c0.5 9.8 2 19.7 4.7 29.3h43.3c-15.1-11.3-31-21.4-48-29.3z"/>
						<path id="&lt;Path&gt;" class="s18" d="m471.4 959.3c-9.7-19.1-19.6-38.2-30-56.9-10.6-19.1-22.2-37-36.7-53.2-9.1 10.3-16.7 22-22.4 34.6 15.2 8.6 29.6 18.3 42.6 30.2 20.3 18.7 36.8 41 53.3 63.1h1.1c-2.5-6-5-12-7.9-17.8z"/>
						<path id="&lt;Path&gt;" class="s18" d="m495.8 942.9c-5.8-22.5-12.9-44.9-20.4-66.9-7-20.7-14.7-41.3-23.4-61.3-4.3 2-8.6 4.2-12.8 6.5-7.9 4.4-15.1 9.6-21.8 15.3q0.5 0.6 1 1.1c14.4 16.1 26.1 33.8 36.6 52.5 11.1 19.8 21.5 40 31.8 60.2 4.5 8.7 7.9 17.8 11.6 26.8h4.7c-2.1-11.4-4.3-22.9-7.3-34.2z"/>
						<path id="&lt;Path&gt;" class="s19" d="m519.8 944.1c-3.2-24.8-3.6-49.7-7.9-74.4-4-23.5-9.7-46.7-15-69.9-9.6 1.8-19.1 4.5-28.4 7.9 8.6 19.8 16.1 40 23.1 60.3 7.7 22.5 14.9 45.3 21 68.3 3.6 13.4 6.2 27.1 8.6 40.8h3.9q-3.2-16.4-5.3-33z"/>
						<path id="&lt;Path&gt;" class="s18" d="m533.7 870.6c0.2-24.5 1-49 1.5-73.5q-10.4-0.5-20.7 0.3c5.6 23.7 11.4 47.3 15.3 71.2 1.8 10.9 2.9 21.9 3.9 32.9q-0.2-15.4 0-30.9z"/>
						<path id="&lt;Path&gt;" class="s18" d="m568 802.8q-7.4-2.2-14.9-3.6c-0.4 23.8-1.3 47.6-1.5 71.4-0.4 35.6 0.3 71.2 4.1 106.5h1.6c-3.6-58.1 0.4-116.8 10.7-174.3z"/>
						<path id="&lt;Path&gt;" class="s18" d="m654.9 920.5c-1-9.3-2.6-18.6-4.7-27.5-16 22-34.1 47.1-42.7 73.9 11.7-18.3 29.3-33.9 47.4-46.4z"/>
						<path id="&lt;Path&gt;" class="s18" d="m631.7 964.2c-3.5 4.1-6.7 8.4-9.6 12.9h29.6c3-11.3 4.3-23.3 4.3-35.5-8.8 6.8-17.2 14.3-24.3 22.6z"/>
						<path id="&lt;Path&gt;" class="s18" d="m639.5 877.4q2.3-3.1 4.6-6.1c-5.3-14.4-14.1-27.2-24.9-37.9-9 33.3-14.5 67.2-17.3 101.5 10.7-20.6 24.9-39.9 37.6-57.5z"/>
						<path id="&lt;Path&gt;" class="s18" d="m604.3 820.9c-6.2-4.4-12.7-8.3-19.3-11.5-9.7 55.3-13.4 111.8-9.9 167.7h6.7c1.3-53 7.9-105.3 22.5-156.2z"/>
						<path id="&lt;Path&gt;" class="s18" d="m426.8 941.3c-6.8-6.4-13.7-12.6-20.7-18.8q-5-4.5-10-8.8c-6.5-4.7-13.2-9-20.2-13-2.8 8.9-4.7 18.2-5.6 27.6 27.7 11.8 52.7 29.2 76.1 48.8h9.6c-9.3-12.3-18.8-24.4-29.2-35.8z"/>
					</g>
					<g id="&lt;Group&gt;">
						<path id="&lt;Path&gt;" class="s9" d="m705.2 856.2c-2.2 10.8-3.6 21.8-4.2 32.9 9 2.5 17.7 5.6 26.1 9.2 0.9-9.4 2.8-18.7 5.6-27.7-8.9-5.2-18.2-9.9-27.5-14.4z"/>
						<path id="&lt;Path&gt;" class="s9" d="m787.2 740.5c-17.2 8.6-31.8 20.3-43.7 34.3 10.4 10.4 20.9 20.7 30.7 31.7 6.7-5.8 13.9-10.9 21.8-15.3 4.2-2.3 8.5-4.5 12.8-6.6-6.5-15-13.7-29.8-21.6-44.1z"/>
						<path id="&lt;Path&gt;" class="s9" d="m844.1 724c-9.6 1.4-19.2 3.4-28.6 5.9-4 1-7.9 2.2-11.8 3.6 7.9 14.3 15 29.1 21.6 44.2 9.3-3.4 18.8-6.1 28.4-8-3.5-15.2-6.9-30.4-9.6-45.7z"/>
						<path id="&lt;Path&gt;" class="s9" d="m892.1 762.6c0.2-13.5 0.7-27.2 2.5-40.7-10.8-0.8-21.9-0.7-32.9 0.1 2.7 15.2 6.1 30.3 9.6 45.4q10.3-0.8 20.7-0.3 0-2.3 0.1-4.5z"/>
						<path id="&lt;Path&gt;" class="s9" d="m975.4 748.2q-11.8-7.7-24.5-13.1-5.2 22-9.1 44.3c6.6 3.2 13.1 7.1 19.3 11.5 4.1-14.3 8.8-28.6 14.3-42.7z"/>
						<path id="&lt;Path&gt;" class="s9" d="m1028.9 808.9c-3.7-6.9-7.8-13.7-12.4-20.3-7.8-11.3-16.7-21.1-26.4-29.3q-8.2 21.8-14.2 44.1c10.9 10.6 19.7 23.4 25 37.8 8.6-11.4 18-22.1 28-32.3z"/>
						<path id="&lt;Path&gt;" class="s9" d="m1031 878.2c5.8-3.4 11.7-6.5 17.8-9.4-2.4-14.6-6.3-28.9-11.9-42.7-9 9.6-17.4 19.7-25.1 30.3q-2.4 3.2-4.8 6.5c2.1 9 3.7 18.2 4.7 27.5 6.4-4.4 12.9-8.5 19.3-12.2z"/>
						<path id="&lt;Path&gt;" class="s9" d="m1043 891.9c-9.7 5.5-20.2 12.1-30.2 19.7 0 12.2-1.3 24.2-4.4 35.5h37c4.9-19.3 6.7-39.4 5.4-59.4q-3.9 2-7.8 4.2z"/>
						<path id="&lt;Path&gt;" class="s9" d="m933.9 729.1c-7-2.1-14.2-3.7-21.4-5-2.1 14.4-2.4 29-2.6 43.4q0 0.9-0.1 1.7 7.6 1.4 15 3.6 3.9-22 9.1-43.7z"/>
						<path id="&lt;Path&gt;" class="s9" d="m760.2 817.7c-8.9-9.8-18.3-19.2-27.6-28.5-10.1 14.9-17.7 31.7-23 49.4 10 4.7 19.9 9.7 29.5 15.1 5.7-12.5 13.3-24.2 22.4-34.6q-0.6-0.7-1.3-1.4z"/>
						<path id="&lt;Path&gt;" class="s9" d="m700.8 907.8c0.5 13.3 2.1 26.5 4.8 39.3h25.5c-2.6-9.7-4.1-19.5-4.6-29.4-8.3-3.8-16.8-7.2-25.7-9.9z"/>
						<path id="&lt;Path&gt;" class="s4" d="m688.6 904.5c0.7 14.7 3 29 6.9 42.6h10.1c-2.7-12.8-4.3-26-4.8-39.3q-6-1.9-12.2-3.3z"/>
						<path id="&lt;Path&gt;" class="s4" d="m693.9 850.9c-2.8 11.4-4.6 23.2-5.3 35.2q6.3 1.3 12.4 3c0.6-11.1 2-22.1 4.2-32.9q-5.7-2.7-11.3-5.3z"/>
						<path id="&lt;Path&gt;" class="s4" d="m726.5 783.1c-11.6 15.2-20.9 32.2-27.4 50.6q5.3 2.4 10.5 4.9c5.3-17.7 12.9-34.5 23-49.4q-3.1-3.1-6.1-6.1z"/>
						<path id="&lt;Path&gt;" class="s4" d="m783.3 733.7c-16.9 9.5-32.1 21.5-45.2 35.6q2.7 2.7 5.4 5.5c11.9-14 26.5-25.7 43.7-34.3q-1.9-3.4-3.9-6.8z"/>
						<path id="&lt;Path&gt;" class="s4" d="m896.5 711.1q-10.9-1.3-22-1.3-7.5 0-14.7 0.6 0.9 5.8 1.9 11.6c11-0.8 22.1-0.9 32.9-0.1q0.8-5.4 1.9-10.8z"/>
						<path id="&lt;Path&gt;" class="s4" d="m936 720.3q-10.6-3.7-21.8-6.2-1 5-1.7 10c7.2 1.3 14.4 2.9 21.4 5q1-4.4 2.1-8.8z"/>
						<path id="&lt;Path&gt;" class="s4" d="m1016.5 788.6c4.6 6.6 8.7 13.4 12.4 20.3q3.1-3.2 6.4-6.4c-11.1-19.2-25.5-36.1-42.5-50.2q-1.4 3.5-2.7 7c9.7 8.2 18.6 18 26.4 29.3z"/>
						<path id="&lt;Path&gt;" class="s4" d="m1057.9 864.6c-2.7-16-7.5-31.3-14-45.7q-3.6 3.6-7 7.2c5.6 13.8 9.5 28.1 11.9 42.7q4.5-2.2 9.1-4.2z"/>
						<path id="&lt;Path&gt;" class="s4" d="m1050.8 887.7c1.3 20-0.5 40.1-5.4 59.4h8c4.6-16.3 7.1-33.4 7.1-51.2q0-6.4-0.4-12.7-4.7 2.2-9.3 4.5z"/>
						<path id="&lt;Path&gt;" class="s4" d="m978 741.4c-8-5.4-16.4-10.2-25.2-14.3q-1 4-1.9 8 12.7 5.4 24.5 13.1 1.3-3.4 2.6-6.8z"/>
						<path id="&lt;Path&gt;" class="s4" d="m842.2 712.6c-15 2.7-29.4 7-42.9 13q2.3 3.9 4.4 7.9c3.9-1.4 7.8-2.6 11.8-3.6 9.4-2.5 19-4.5 28.6-5.9q-1-5.7-1.9-11.4z"/>
						<path id="&lt;Path&gt;" class="s18" d="m726.5 917.7c0.5 9.9 2 19.7 4.6 29.4h43.4c-15.1-11.4-31-21.4-48-29.4z"/>
						<path id="&lt;Path&gt;" class="s18" d="m828.2 929.3c-9.8-19.1-19.6-38.2-30-56.9-10.6-19.1-22.2-37-36.7-53.3-9.1 10.4-16.7 22.1-22.4 34.6 15.2 8.6 29.6 18.4 42.5 30.3 20.4 18.7 36.9 41 53.4 63.1h1.1c-2.5-6-5-12-7.9-17.8z"/>
						<path id="&lt;Path&gt;" class="s18" d="m852.6 912.9c-5.8-22.6-13-44.9-20.4-66.9-7-20.7-14.7-41.3-23.4-61.4-4.3 2.1-8.6 4.3-12.8 6.6-7.9 4.4-15.1 9.5-21.8 15.3q0.5 0.6 1 1.1c14.3 16.1 26.1 33.7 36.6 52.5 11.1 19.7 21.5 40 31.8 60.2 4.5 8.6 7.9 17.8 11.5 26.8h4.8c-2.1-11.5-4.4-22.9-7.3-34.2z"/>
						<path id="&lt;Path&gt;" class="s18" d="m876.5 914.1c-3.1-24.8-3.5-49.8-7.8-74.4-4-23.5-9.7-46.7-15-70-9.6 1.9-19.1 4.6-28.4 8 8.5 19.7 16.1 40 23.1 60.3 7.7 22.5 14.9 45.3 21 68.2 3.6 13.5 6.2 27.2 8.6 40.9h3.9q-3.2-16.4-5.4-33z"/>
						<path id="&lt;Path&gt;" class="s18" d="m890.5 840.6c0.2-24.5 0.9-49 1.5-73.5q-10.4-0.5-20.7 0.3c5.5 23.6 11.4 47.2 15.3 71.2 1.8 10.9 2.9 21.9 3.9 32.9q-0.2-15.5 0-30.9z"/>
						<path id="&lt;Path&gt;" class="s18" d="m924.8 772.8q-7.4-2.2-15-3.6c-0.4 23.8-1.2 47.6-1.4 71.4-0.4 35.5 0.3 71.2 4.1 106.5h1.6c-3.6-58.2 0.4-116.8 10.7-174.3z"/>
						<path id="&lt;Path&gt;" class="s18" d="m1011.7 890.4c-1-9.3-2.6-18.5-4.7-27.5-16.1 22.1-34.1 47.2-42.7 74 11.7-18.4 29.3-33.9 47.4-46.5z"/>
						<path id="&lt;Path&gt;" class="s18" d="m988.4 934.2c-3.4 4.1-6.6 8.4-9.5 12.9h29.5c3.1-11.3 4.4-23.3 4.4-35.5-8.8 6.7-17.2 14.3-24.4 22.6z"/>
						<path id="&lt;Path&gt;" class="s18" d="m996.3 847.4q2.2-3.1 4.6-6.2c-5.3-14.4-14.1-27.2-25-37.8-8.9 33.2-14.4 67.2-17.3 101.5 10.8-20.6 24.9-40 37.7-57.5z"/>
						<path id="&lt;Path&gt;" class="s18" d="m961.1 790.9c-6.2-4.4-12.7-8.3-19.3-11.5-9.7 55.3-13.5 111.8-9.9 167.7h6.7c1.3-53 7.9-105.3 22.5-156.2z"/>
						<path id="&lt;Path&gt;" class="s18" d="m783.5 911.3c-6.7-6.4-13.6-12.6-20.6-18.8q-5-4.5-10-8.9c-6.5-4.6-13.3-9-20.2-13-2.8 9-4.7 18.3-5.6 27.7 27.7 11.8 52.7 29.2 76.1 48.8h9.6c-9.3-12.3-18.8-24.5-29.3-35.8z"/>
					</g>
				</g>
				<g id="&lt;Group&gt;">
					<path id="&lt;Path&gt;" class="s19" d="m1298.7 1024h-73.9c-1-7.5-1.5-15.1-2.3-22.3q-3-27.2-6.2-54.4c-4.5-38.3-7.9-76.7-11.8-115.1-7.8-77.7-20.8-154.7-32.7-231.8-5-33.1-9.6-66.3-14.6-99.4-47.3-58.2-96.9-113.4-153.2-163.4-5.1-4.6 0.9-13.4 6.3-8.8 25.5 21.4 50.5 44 74.4 67.6-1.3-3.7-2.6-7.5-3.9-10.9-6.8-17.9-13.5-35.7-19.6-53.8-2.1-6 6.3-10 9.2-4 8.3 17.1 16 34.5 23.7 51.9 6.1 13.8 15.3 29.7 17.8 44.9 14 15.1 27.6 30.5 40.5 46.4-5.8-32.8-13.6-65.4-20.6-98q-3.4-15.8-7-31.6c-11.8-17.4-22.5-35.9-34.2-53.2-18.4-27.5-38.1-54.1-58.7-80-41.8-52.2-86.2-102.7-134.2-149.3-5.2-5 3.1-13.7 8.6-9.2 39.9 33.3 77.7 68.9 112.2 107.5-2.1-7.8-4-15.6-5.9-23-5.4-20.4-9.8-40.9-15.6-61.2-1.4-5.2 7.5-7.8 9.1-2.6 6.1 20.1 13.6 39.7 20 59.8 5.5 17.1 12.7 36.3 16.1 54.6q3.7 4.5 7.3 9c21.2 26.5 41.3 53.9 60.2 82-15.8-66.1-32.5-131.9-48.7-197.9-2.7-4.3-5.2-8.7-8-12.8q-9.9-14.7-20.7-28.7-4.8-6.2-9.7-12.3h61.1q0 0.4-0.1 0.9c23.2 77.2 42.9 155.8 61 234.5q2.5-14.1 4.7-28.3c4.5-28.7 8.3-57.6 11.5-86.5-9.5-34.4-13.6-70.7-21.2-105.6q-1.6-7.5-3.2-15h17.3q1 4.7 1.8 9.4c3.2 16.7 7.2 33.4 11 50.2 1.5-19.9 2.7-39.7 3.7-59.6h18.7c-1.2 27.5-3.1 54.9-5.5 82.3 6.9-12.9 14.3-25.3 23.4-35.9 4.4-5 12.2-1.1 10.3 5.4-7.6 25.8-24.4 50.2-37.8 73.7-3.1 29.8-6.9 59.7-11.2 89.4-2.7 19.3-5.9 38.6-9.1 57.8-0.9 5.4-1.4 11.4-2.1 17.3 7.7 34.6 15.1 69.2 22.5 103.7 7.7 36.1 16.3 71.9 24.8 107.8q1.1-24.8 2.2-49.6 1.4-30.3 3.1-60.6c-5.4-30-11-60.2-11.3-90.4-0.1-6.2 8.5-5.2 9.9-0.3 2.1 7.7 3.9 15.4 5.5 23.3 1.3-20.3 2.9-40.5 4.6-60.7 0.7-8.5 12.9-6.9 12.9 1.2 0 38.3-0.8 76.5-2 114.8q1.2-3.2 2.4-6.4c6.9-18 14.1-39.9 26.5-54.8 4-4.9 10.6-0.9 9.2 4.9-4.4 18.7-14.9 36.9-21.2 55.3-6.3 18.6-10.9 38.2-18.7 56.2q-0.1 0.1-0.1 0.2-0.4 9.7-0.8 19.3c-1.2 30.5-2.5 61-4.3 91.5-0.5 9-1 17.9-1.5 26.9 3.4 15.7 6.7 31.4 9.8 47.1 14.7 75.7 29.1 151.4 44 227 7.4 37.9 13.1 75.9 18.6 114 1.7 11.6 5.2 26 5.7 39.6z"/>
					<g id="&lt;Group&gt;">
						<g id="&lt;Group&gt;">
							<g id="&lt;Group&gt;">
								<path id="&lt;Path&gt;" class="s19" d="m0 54.5v-54.5h1500v54.5z"/>
								<path id="&lt;Path&gt;" fill-rule="evenodd" class="s19" d="m1521 835.8v164.2h-1500v-164.2z"/>
							</g>
							<path id="&lt;Path&gt;" class="s20" d="m762.6 836.5h-25.2v-782h25.2z"/>
							<path id="&lt;Path&gt;" class="s19" d="m758.6 1000h-17.2v-1000h17.2z"/>
							<path id="&lt;Path&gt;" class="s20" d="m234.9 708.7v-24.6h1030.2v24.6z"/>
							<path id="&lt;Path&gt;" class="s19" d="m234.9 705v-17.2h1030.2v17.2z"/>
							<path id="&lt;Path&gt;" class="s20" d="m234.9 97.1v-23.2h1030.2v23.2z"/>
							<path id="&lt;Path&gt;" class="s19" d="m234.9 94.1v-17.2h1030.2v17.2z"/>
							<g id="&lt;Group&gt;">
								<path id="&lt;Path&gt;" class="s19" d="m246.3 1000h-246.3v-1000h246.3z"/>
								<path id="&lt;Path&gt;" class="s20" d="m246.3 835.8h6.1v-781.3h-6.1z"/>
								<path id="&lt;Path&gt;" class="s20" d="m1247.6 835.8h6.1v-781.3h-6.1z"/>
								<path id="&lt;Path&gt;" class="s19" d="m1500 28v1000h-246.3v-1000z"/>
							</g>
							<g id="&lt;Group&gt;">
								<g id="&lt;Group&gt;">
									<g id="&lt;Group&gt;">
										<path id="&lt;Path&gt;" class="s4" d="m469.8 73.9h-217.4v-19.4c2.6 0 5.5 0.8 7.5 2.4 2 1.6 3.6 3.7 5.6 5.3 4.4 3.5 10.4 4 15.9 3.5 5.6-0.6 11-2.2 16.6-2.5 5.5-0.3 11.6 0.9 15.4 5 18-4.4 38-4.2 56.5-2.8q30.3 2.1 60.6 4.3c6.2 0.4 13.6-3.4 19.6-2.2 6.1 1.2 14 4 19.7 6.4z"/>
										<path id="&lt;Path&gt;" class="s4" d="m737.4 59.9v14h-97.4c13.7 0 27.7-6.8 40.8-3 6.3-5.6 16-9.5 24.4-8.8 4 0.3 7.9 1.4 11.9 1.4 6.2-0.1 14.7-0.9 20.3-3.6z"/>
									</g>
									<g id="&lt;Group&gt;">
										<path id="&lt;Path&gt;" class="s4" d="m1111.2 73.9h136.4v-19.4c-1.7 0-3.5 0.8-4.7 2.4-1.3 1.6-2.3 3.7-3.5 5.3-2.8 3.5-6.6 4-10 3.5-3.5-0.6-6.9-2.2-10.4-2.5-3.5-0.3-7.3 0.9-9.7 5-11.3-4.4-23.8-4.2-35.4-2.8q-19.1 2.1-38.1 4.3c-3.9 0.4-8.5-3.4-12.3-2.2-3.8 1.2-8.8 4-12.3 6.4z"/>
										<path id="&lt;Path&gt;" class="s4" d="m762.6 59.9v14h136.2c-19.1 0-38.7-6.8-57.1-3-8.8-5.6-22.3-9.5-34.1-8.8-5.6 0.3-11.1 1.4-16.6 1.4-8.7-0.1-20.6-0.9-28.4-3.6z"/>
									</g>
								</g>
								<g id="&lt;Group&gt;">
									<g id="&lt;Group&gt;">
										<path id="&lt;Path&gt;" class="s21" d="m469.8 73.9h-217.4v-14c2.6 0 5.5 0.6 7.5 1.8 2 1.1 3.6 2.7 5.6 3.8 4.4 2.5 10.4 2.9 15.9 2.5 5.6-0.4 11-1.6 16.6-1.8 5.5-0.2 11.6 0.7 15.4 3.6 18-3.2 38-3 56.5-2.1q30.3 1.6 60.6 3.2c6.2 0.3 13.6-2.5 19.6-1.6 6.1 0.8 14 2.8 19.7 4.6z"/>
										<path id="&lt;Path&gt;" class="s21" d="m737.4 63.8v10.1h-97.4c13.7 0 27.7-4.9 40.8-2.1 6.3-4.1 16-6.9 24.4-6.4 4 0.2 7.9 1 11.9 1 6.2 0 14.7-0.6 20.3-2.6z"/>
									</g>
									<g id="&lt;Group&gt;">
										<path id="&lt;Path&gt;" class="s21" d="m1111.2 73.9h136.4v-14c-1.7 0-3.5 0.6-4.7 1.8-1.3 1.1-2.3 2.7-3.5 3.8-2.8 2.5-6.6 2.9-10 2.5-3.5-0.4-6.9-1.6-10.4-1.8-3.5-0.2-7.3 0.7-9.7 3.6-11.3-3.2-23.8-3-35.4-2.1q-19.1 1.6-38.1 3.2c-3.9 0.3-8.5-2.5-12.3-1.6-3.8 0.8-8.8 2.8-12.3 4.6z"/>
										<path id="&lt;Path&gt;" class="s21" d="m762.6 63.8v10.1h136.2c-19.1 0-38.7-4.9-57.1-2.1-8.8-4.1-22.3-6.9-34.1-6.4-5.6 0.2-11.1 1-16.6 1-8.7 0-20.6-0.6-28.4-2.6z"/>
									</g>
								</g>
							</g>
							<g id="&lt;Group&gt;">
								<path id="&lt;Path&gt;" class="s4" d="m1085.9 835.8h161.1v-68.2c-12.6 0-23.9 15.4-26.7 29.2-11.1-0.1-22.8 5.4-29.7 15.1-2.1 3-3.9 6.3-6.8 8.3-2.2 1.6-5.4 1.8-7.5 0.3-1.9-1.4-3.9-2.7-6.1-3-7.7-1.2-15.9 2-20.3 9.3-8.6-3.8-17.8-2-25.6 3.6-6.3-2.9-13.9-3.8-20.6-2.4-5.8 1.3-12.4 4.8-17.8 7.8z"/>
								<path id="&lt;Path&gt;" class="s21" d="m1101.9 835.8h145.1v-47.5c-11.3 0-21.5 10.8-24.1 20.4-10-0.1-20.5 3.7-26.7 10.5-1.9 2-3.5 4.4-6.1 5.8-2 1-4.9 1.2-6.7 0.1-1.8-1-3.6-1.8-5.6-2.1-6.9-0.8-14.3 1.5-18.2 6.5-7.8-2.6-16.1-1.3-23.1 2.6-5.7-2.1-12.5-2.7-18.5-1.7-5.3 0.9-11.3 3.3-16.1 5.4z"/>
								<path id="&lt;Path&gt;" class="s4" d="m762.7 776.8v59h101.5c-5.6-6.1-16-9.5-23.2-5.6-1.6-4.4-7.1-6.6-11.6-7.6-4.6-0.9-9.5-1.4-12.9-4.6-1.5-1.4-2.6-3.2-4.1-4.7-2.6-2.6-6.5-3.8-10.1-3.3-0.3-7.5-6.7-14.5-14-16.2-2.8-0.7-5.9-0.7-8.1-2.6-1.6-1.3-2.4-3.2-3.4-4.9-2.7-4.6-9-8.5-14.1-9.5z"/>
								<path id="&lt;Path&gt;" class="s21" d="m762.7 794.2v41.6h84.5c-4.6-4.3-13.3-6.7-19.3-4-1.3-3-5.9-4.6-9.7-5.3-3.8-0.6-7.9-1-10.7-3.3-1.3-1-2.2-2.2-3.4-3.3-2.2-1.8-5.4-2.7-8.4-2.3-0.3-5.3-5.6-10.2-11.7-11.5-2.3-0.4-4.9-0.5-6.8-1.8-1.3-0.9-1.9-2.2-2.8-3.5-2.2-3.2-7.4-5.9-11.7-6.6z"/>
							</g>
						</g>
						<g id="&lt;Group&gt;">
							<path id="&lt;Path&gt;" class="s22" d="m1312.5 904.9h-1125l103.9-57h917.2z"/>
							<g id="&lt;Group&gt;">
								<path id="&lt;Compound Path&gt;" fill-rule="evenodd" class="s23" d="m1106.7 940.7h-15.4v18.1c0 9.2-25.9 16.6-57.9 16.6-31.9 0-57.8-7.4-57.8-16.6v-106.3c0-4.3 5.6-8.2 14.8-11.1q0 0 0 0 4-1.3 8.8-2.3 0.1 0 0.2 0 2.2-0.5 4.6-0.9 0.2 0 0.4-0.1 2.4-0.4 4.9-0.7 0.2 0 0.5-0.1 2.4-0.3 5-0.5 0.3-0.1 0.6-0.1 2.6-0.2 5.3-0.4 0.2 0 0.5 0 2.8-0.2 5.7-0.3 0.2 0 0.3 0 3.1-0.1 6.2-0.1 1.6 0 3.2 0 0.4 0 0.9 0 1.1 0.1 2.2 0.1 0.5 0 1.1 0 0.9 0.1 1.9 0.1 0.6 0 1.1 0.1 1 0 1.9 0.1 0.6 0 1.1 0 1 0.1 1.9 0.2 0.5 0 1 0.1 1 0 2 0.1 0.4 0.1 0.8 0.1 1.1 0.1 2.1 0.2 0.4 0.1 0.7 0.1 1.2 0.2 2.3 0.3 0.2 0 0.4 0.1c19.7 2.6 33.3 8.3 33.3 15v12.2h15.4c10.9 0 19.8 7.5 19.8 16.8v42.3c0 9.3-8.9 16.9-19.8 16.9zm-15.4-10.1h15.4c4.4 0 7.9-3.1 7.9-6.8v-42.3c0-3.7-3.5-6.7-7.9-6.7h-15.4z"/>
								<g id="&lt;Group&gt;">
									<g id="&lt;Group&gt;">
										<g id="&lt;Group&gt;">
											<path id="&lt;Compound Path&gt;" fill-rule="evenodd" class="s14" d="m1100.7 844.7h-25.4c-10.9 0-19.8-8-19.8-17.8v-44.9c0-9.9 8.9-17.9 19.8-17.9h25.4c10.9 0 19.8 8 19.8 17.9v44.9c0 9.8-8.9 17.8-19.8 17.8zm-25.4-69.8c-4.4 0-7.9 3.2-7.9 7.1v44.9c0 3.9 3.5 7.1 7.9 7.1h25.4c4.4 0 7.9-3.2 7.9-7.1v-44.9c0-3.9-3.5-7.1-7.9-7.1z"/>
										</g>
										<g id="&lt;Group&gt;">
											<path id="&lt;Compound Path&gt;" fill-rule="evenodd" class="s14" d="m1100.7 842.1h-25.4c-9.3 0-16.9-6.8-16.9-15.2v-44.9c0-8.4 7.6-15.2 16.9-15.2h25.4c9.3 0 16.8 6.8 16.8 15.2v44.9c0 8.4-7.5 15.2-16.8 15.2zm-25.4-69.9c-6 0-10.9 4.4-10.9 9.8v44.9c0 5.4 4.9 9.8 10.9 9.8h25.4c6 0 10.9-4.4 10.9-9.8v-44.9c0-5.4-4.9-9.8-10.9-9.8z"/>
										</g>
									</g>
									<path id="&lt;Path&gt;" class="s14" d="m969.6 744.9v112.8c0 9.7 25.9 17.6 57.8 17.6 32 0 57.9-7.9 57.9-17.6v-112.8z"/>
									<path id="&lt;Path&gt;" class="s14" d="m984.4 744.9v124.6c10.6 3.5 26 5.8 43 5.8 17.5 0 33.2-2.4 43.8-6.1v-124.3z"/>
									<path id="&lt;Path&gt;" class="s13" d="m1085.3 744.9c0 9.7-25.9 17.6-57.9 17.6-31.9 0-57.8-7.9-57.8-17.6 0-9.7 25.9-17.6 57.8-17.6 32 0 57.9 7.9 57.9 17.6z"/>
									<path id="&lt;Path&gt;" class="s13" d="m1080.5 744.9c0 1.7-1 3.3-2.8 4.9-6.1 5.1-21.4 8.9-40.1 10q-5 0.2-10.2 0.2-4.2 0-8.3-0.2c-19.6-0.8-35.6-4.8-41.9-10-1.9-1.6-2.9-3.2-2.9-4.9 0-6.2 12.9-11.5 31.4-13.9 6.6-0.8 14-1.3 21.7-1.3q3.3 0 6.4 0.1c26.3 0.9 46.7 7.3 46.7 15.1z"/>
									<path id="&lt;Path&gt;" class="s24" d="m1077.7 749.8c-6.1 5.1-21.4 8.9-40.1 10q-5 0.2-10.2 0.2-4.2 0-8.3-0.2c-19.6-0.8-35.6-4.8-41.9-10 4.7-4 15.1-7.2 28.5-8.9 6.6-0.9 14-1.4 21.7-1.4q3.3 0 6.4 0.1c20.5 0.7 37.4 4.7 43.9 10.2z"/>
									<path id="&lt;Path&gt;" class="s25" d="m1078.8 637.6c-5.8 8.3-14.1 14.5-20.8 22.1-6.8 7.6-12.1 17.5-10.2 27.5 1.9 9.7 10.4 19.6 5.5 28.2-3.9 7.1-15 8.5-19.5 14.4-0.8 1.1-1.4 2.4-1.7 3.8-1.5 7.2 6.3 13.3 6.6 20.7 0.1 1.9-0.3 3.8-1.1 5.5q-5 0.2-10.2 0.2-4.2 0-8.3-0.2c-1.3-7.3-10.8-11.9-13.4-19.4-1.1-3.1-0.9-6.3 0-9.4 2.2-7.4 8.4-14.7 9.9-22.6 2.6-13.7-9-25.9-20.5-33.7-15.8-10.8-33.3-18.9-47.7-31.4-14.3-12.5-25.3-31.3-21.8-50 3.8-20.3 23.1-33.9 42.3-41.4 19.5-7.5 40.9-11 61.4-7.1 20.4 3.9 39.9 15.7 50.4 33.6 10.6 18 11.1 42.2-0.9 59.2z"/>
								</g>
							</g>
							<g id="&lt;Clip Group&gt;" clip-path="url(#cp1)">
							</g>
						</g>
					</g>
				</g>
			</g>
		</g>
	</g>
</svg>